999
"DXF R12 Output" (www.mydxf.blogspot.com)
 0 
SECTION
 2 
HEADER
 9 
$ACADVER
 1 
AC1009
 9 
$EXTMIN
 10 
 0 
 20 
 0 
 9 
$EXTMAX
 10 
 8.5 
 20 
 11 
 0 
ENDSEC
 0 
SECTION
 2 
ENTITIES
0
LINE
8
Layer 1
10
0.793749
20
297.794000
11
-0.793749
21
296.206000
0
LINE
8
Layer 1
10
0.000000
20
298.323000
11
0.000000
21
295.677000
0
LINE
8
Layer 1
10
2.116660
20
295.942000
11
1.058330
21
294.883670
0
LINE
8
Layer 1
10
1.587500
20
296.471000
11
0.529170
21
295.412670
0
LINE
8
Layer 1
10
1.058330
20
297.000000
11
0.000000
21
295.941670
0
LINE
8
Shape2DView
10
10.989200
20
93.157900
11
198.489000
21
93.157900
0
LINE
8
Shape2DView
10
4.739160
20
99.406900
11
4.860361
21
98.181894
0
LINE
8
Shape2DView
10
4.860361
20
98.181894
11
5.214912
21
97.015132
0
LINE
8
Shape2DView
10
5.214912
20
97.015132
11
5.789232
21
95.939402
0
LINE
8
Shape2DView
10
5.789232
20
95.939402
11
6.569740
21
94.987490
0
LINE
8
Shape2DView
10
6.569740
20
94.987490
11
7.521652
21
94.206982
0
LINE
8
Shape2DView
10
7.521652
20
94.206982
11
8.597382
21
93.632662
0
LINE
8
Shape2DView
10
8.597382
20
93.632662
11
9.764144
21
93.278111
0
LINE
8
Shape2DView
10
9.764144
20
93.278111
11
10.989150
21
93.156910
0
LINE
8
Shape2DView
10
198.489000
20
93.156900
11
199.714009
21
93.278100
0
LINE
8
Shape2DView
10
199.714009
20
93.278100
11
200.880773
21
93.632650
0
LINE
8
Shape2DView
10
200.880773
20
93.632650
11
201.956506
21
94.206970
0
LINE
8
Shape2DView
10
201.956506
20
94.206970
11
202.908420
21
94.987480
0
LINE
8
Shape2DView
10
202.908420
20
94.987480
11
203.688930
21
95.939394
0
LINE
8
Shape2DView
10
203.688930
20
95.939394
11
204.263250
21
97.015127
0
LINE
8
Shape2DView
10
204.263250
20
97.015127
11
204.617800
21
98.181891
0
LINE
8
Shape2DView
10
204.617800
20
98.181891
11
204.739000
21
99.406900
0
LINE
8
Shape2DView
10
4.739150
20
286.907000
11
4.739150
21
99.407300
0
LINE
8
Shape2DView
10
204.739000
20
99.407300
11
204.739000
21
286.907000
0
LINE
8
Shape2DView
10
10.989100
20
293.157000
11
9.729515
21
293.030013
0
LINE
8
Shape2DView
10
9.729515
20
293.030013
11
8.556335
21
292.665829
0
LINE
8
Shape2DView
10
8.556335
20
292.665829
11
7.494692
21
292.089580
0
LINE
8
Shape2DView
10
7.494692
20
292.089580
11
6.569718
21
291.326399
0
LINE
8
Shape2DView
10
6.569718
20
291.326399
11
5.806546
21
290.401418
0
LINE
8
Shape2DView
10
5.806546
20
290.401418
11
5.230307
21
289.339769
0
LINE
8
Shape2DView
10
5.230307
20
289.339769
11
4.866134
21
288.166586
0
LINE
8
Shape2DView
10
4.866134
20
288.166586
11
4.739160
21
286.907000
0
LINE
8
Shape2DView
10
204.739000
20
286.907000
11
204.617800
21
288.132009
0
LINE
8
Shape2DView
10
204.617800
20
288.132009
11
204.263250
21
289.298773
0
LINE
8
Shape2DView
10
204.263250
20
289.298773
11
203.688930
21
290.374506
0
LINE
8
Shape2DView
10
203.688930
20
290.374506
11
202.908420
21
291.326420
0
LINE
8
Shape2DView
10
202.908420
20
291.326420
11
201.956506
21
292.106930
0
LINE
8
Shape2DView
10
201.956506
20
292.106930
11
200.880773
21
292.681250
0
LINE
8
Shape2DView
10
200.880773
20
292.681250
11
199.714009
21
293.035800
0
LINE
8
Shape2DView
10
199.714009
20
293.035800
11
198.489000
21
293.157000
0
LINE
8
Shape2DView
10
198.489000
20
293.157000
11
10.989200
21
293.157000
0
LINE
8
Shape2DView
10
12.139100
20
99.406900
11
11.985029
21
99.981900
0
LINE
8
Shape2DView
10
11.985029
20
99.981900
11
11.564100
21
100.402829
0
LINE
8
Shape2DView
10
11.564100
20
100.402829
11
10.989100
21
100.556900
0
LINE
8
Shape2DView
10
10.989100
20
100.556900
11
10.414100
21
100.402829
0
LINE
8
Shape2DView
10
10.414100
20
100.402829
11
9.993171
21
99.981900
0
LINE
8
Shape2DView
10
9.993171
20
99.981900
11
9.839100
21
99.406900
0
LINE
8
Shape2DView
10
9.839100
20
99.406900
11
9.993171
21
98.831900
0
LINE
8
Shape2DView
10
9.993171
20
98.831900
11
10.414100
21
98.410971
0
LINE
8
Shape2DView
10
10.414100
20
98.410971
11
10.989100
21
98.256900
0
LINE
8
Shape2DView
10
10.989100
20
98.256900
11
11.564100
21
98.410971
0
LINE
8
Shape2DView
10
11.564100
20
98.410971
11
11.985029
21
98.831900
0
LINE
8
Shape2DView
10
11.985029
20
98.831900
11
12.139100
21
99.406900
0
LINE
8
Shape2DView
10
12.139100
20
99.406900
11
12.139100
21
99.406900
0
LINE
8
Shape2DView
10
17.439100
20
105.358000
11
27.039100
21
105.358000
0
LINE
8
Shape2DView
10
16.939100
20
105.857000
11
17.085547
21
105.503448
0
LINE
8
Shape2DView
10
17.085547
20
105.503448
11
17.439099
21
105.357002
0
LINE
8
Shape2DView
10
27.039100
20
105.357000
11
27.392652
21
105.503446
0
LINE
8
Shape2DView
10
27.392652
20
105.503446
11
27.539098
21
105.856998
0
LINE
8
Shape2DView
10
16.939100
20
115.457000
11
16.939100
21
105.858000
0
LINE
8
Shape2DView
10
27.539100
20
105.858000
11
27.539100
21
115.457000
0
LINE
8
Shape2DView
10
17.439100
20
115.957000
11
17.085547
21
115.810553
0
LINE
8
Shape2DView
10
17.085547
20
115.810553
11
16.939101
21
115.456999
0
LINE
8
Shape2DView
10
27.539100
20
115.457000
11
27.392655
21
115.810554
0
LINE
8
Shape2DView
10
27.392655
20
115.810554
11
27.039102
21
115.957001
0
LINE
8
Shape2DView
10
27.039100
20
115.957000
11
17.439100
21
115.957000
0
LINE
8
Shape2DView
10
30.889100
20
118.157000
11
30.735029
21
118.732000
0
LINE
8
Shape2DView
10
30.735029
20
118.732000
11
30.314100
21
119.152929
0
LINE
8
Shape2DView
10
30.314100
20
119.152929
11
29.739100
21
119.307000
0
LINE
8
Shape2DView
10
29.739100
20
119.307000
11
29.164100
21
119.152929
0
LINE
8
Shape2DView
10
29.164100
20
119.152929
11
28.743171
21
118.732000
0
LINE
8
Shape2DView
10
28.743171
20
118.732000
11
28.589100
21
118.157000
0
LINE
8
Shape2DView
10
28.589100
20
118.157000
11
28.743171
21
117.582000
0
LINE
8
Shape2DView
10
28.743171
20
117.582000
11
29.164100
21
117.161071
0
LINE
8
Shape2DView
10
29.164100
20
117.161071
11
29.739100
21
117.007000
0
LINE
8
Shape2DView
10
29.739100
20
117.007000
11
30.314100
21
117.161071
0
LINE
8
Shape2DView
10
30.314100
20
117.161071
11
30.735029
21
117.582000
0
LINE
8
Shape2DView
10
30.735029
20
117.582000
11
30.889100
21
118.157000
0
LINE
8
Shape2DView
10
30.889100
20
118.157000
11
30.889100
21
118.157000
0
LINE
8
Shape2DView
10
32.439100
20
105.358000
11
42.039100
21
105.358000
0
LINE
8
Shape2DView
10
31.939100
20
105.857000
11
32.085546
21
105.503448
0
LINE
8
Shape2DView
10
32.085546
20
105.503448
11
32.439098
21
105.357002
0
LINE
8
Shape2DView
10
42.039100
20
105.357000
11
42.392654
21
105.503445
0
LINE
8
Shape2DView
10
42.392654
20
105.503445
11
42.539101
21
105.856998
0
LINE
8
Shape2DView
10
31.939100
20
115.457000
11
31.939100
21
105.858000
0
LINE
8
Shape2DView
10
42.539100
20
105.858000
11
42.539100
21
115.457000
0
LINE
8
Shape2DView
10
32.439100
20
115.957000
11
32.085547
21
115.810553
0
LINE
8
Shape2DView
10
32.085547
20
115.810553
11
31.939102
21
115.456999
0
LINE
8
Shape2DView
10
42.539100
20
115.457000
11
42.392654
21
115.810555
0
LINE
8
Shape2DView
10
42.392654
20
115.810555
11
42.039099
21
115.957001
0
LINE
8
Shape2DView
10
42.039100
20
115.957000
11
32.439100
21
115.957000
0
LINE
8
Shape2DView
10
47.439200
20
105.358000
11
57.039000
21
105.358000
0
LINE
8
Shape2DView
10
46.939100
20
105.857000
11
47.085546
21
105.503448
0
LINE
8
Shape2DView
10
47.085546
20
105.503448
11
47.439098
21
105.357002
0
LINE
8
Shape2DView
10
57.039100
20
105.357000
11
57.392652
21
105.503446
0
LINE
8
Shape2DView
10
57.392652
20
105.503446
11
57.539098
21
105.856998
0
LINE
8
Shape2DView
10
46.939100
20
115.457000
11
46.939100
21
105.858000
0
LINE
8
Shape2DView
10
57.539100
20
105.858000
11
57.539100
21
115.457000
0
LINE
8
Shape2DView
10
47.439100
20
115.957000
11
47.085547
21
115.810553
0
LINE
8
Shape2DView
10
47.085547
20
115.810553
11
46.939102
21
115.456999
0
LINE
8
Shape2DView
10
57.539100
20
115.457000
11
57.392655
21
115.810554
0
LINE
8
Shape2DView
10
57.392655
20
115.810554
11
57.039102
21
115.957001
0
LINE
8
Shape2DView
10
57.039000
20
115.957000
11
47.439200
21
115.957000
0
LINE
8
Shape2DView
10
17.439100
20
120.357000
11
27.039100
21
120.357000
0
LINE
8
Shape2DView
10
16.939100
20
120.857000
11
17.085547
21
120.503448
0
LINE
8
Shape2DView
10
17.085547
20
120.503448
11
17.439099
21
120.357002
0
LINE
8
Shape2DView
10
27.039100
20
120.357000
11
27.392652
21
120.503446
0
LINE
8
Shape2DView
10
27.392652
20
120.503446
11
27.539098
21
120.856998
0
LINE
8
Shape2DView
10
16.939100
20
130.456000
11
16.939100
21
120.857000
0
LINE
8
Shape2DView
10
27.539100
20
120.857000
11
27.539100
21
130.456000
0
LINE
8
Shape2DView
10
17.439100
20
130.957000
11
17.085548
21
130.810554
0
LINE
8
Shape2DView
10
17.085548
20
130.810554
11
16.939101
21
130.457002
0
LINE
8
Shape2DView
10
27.539100
20
130.457000
11
27.392654
21
130.810552
0
LINE
8
Shape2DView
10
27.392654
20
130.810552
11
27.039102
21
130.956998
0
LINE
8
Shape2DView
10
27.039100
20
130.956000
11
17.439100
21
130.956000
0
LINE
8
Shape2DView
10
17.439100
20
135.356000
11
27.039100
21
135.356000
0
LINE
8
Shape2DView
10
16.939100
20
135.857000
11
17.085546
21
135.503446
0
LINE
8
Shape2DView
10
17.085546
20
135.503446
11
17.439099
21
135.356999
0
LINE
8
Shape2DView
10
27.039100
20
135.357000
11
27.392653
21
135.503447
0
LINE
8
Shape2DView
10
27.392653
20
135.503447
11
27.539098
21
135.857001
0
LINE
8
Shape2DView
10
16.939100
20
145.457000
11
16.939100
21
135.856000
0
LINE
8
Shape2DView
10
27.539100
20
135.856000
11
27.539100
21
145.457000
0
LINE
8
Shape2DView
10
17.439100
20
145.957000
11
17.085548
21
145.810554
0
LINE
8
Shape2DView
10
17.085548
20
145.810554
11
16.939101
21
145.457002
0
LINE
8
Shape2DView
10
27.539100
20
145.457000
11
27.392654
21
145.810552
0
LINE
8
Shape2DView
10
27.392654
20
145.810552
11
27.039102
21
145.956998
0
LINE
8
Shape2DView
10
27.039100
20
145.957000
11
17.439100
21
145.957000
0
LINE
8
Shape2DView
10
32.439100
20
120.357000
11
42.039100
21
120.357000
0
LINE
8
Shape2DView
10
31.939100
20
120.857000
11
32.085546
21
120.503448
0
LINE
8
Shape2DView
10
32.085546
20
120.503448
11
32.439098
21
120.357002
0
LINE
8
Shape2DView
10
42.039100
20
120.357000
11
42.392654
21
120.503445
0
LINE
8
Shape2DView
10
42.392654
20
120.503445
11
42.539101
21
120.856998
0
LINE
8
Shape2DView
10
31.939100
20
130.456000
11
31.939100
21
120.857000
0
LINE
8
Shape2DView
10
42.539100
20
120.857000
11
42.539100
21
130.456000
0
LINE
8
Shape2DView
10
32.439100
20
130.957000
11
32.085548
21
130.810554
0
LINE
8
Shape2DView
10
32.085548
20
130.810554
11
31.939102
21
130.457002
0
LINE
8
Shape2DView
10
42.539100
20
130.457000
11
42.392653
21
130.810553
0
LINE
8
Shape2DView
10
42.392653
20
130.810553
11
42.039099
21
130.956998
0
LINE
8
Shape2DView
10
42.039100
20
130.956000
11
32.439100
21
130.956000
0
LINE
8
Shape2DView
10
47.439200
20
120.357000
11
57.039000
21
120.357000
0
LINE
8
Shape2DView
10
46.939100
20
120.857000
11
47.085546
21
120.503448
0
LINE
8
Shape2DView
10
47.085546
20
120.503448
11
47.439098
21
120.357002
0
LINE
8
Shape2DView
10
57.039100
20
120.357000
11
57.392652
21
120.503446
0
LINE
8
Shape2DView
10
57.392652
20
120.503446
11
57.539098
21
120.856998
0
LINE
8
Shape2DView
10
46.939100
20
130.456000
11
46.939100
21
120.857000
0
LINE
8
Shape2DView
10
57.539100
20
120.857000
11
57.539100
21
130.456000
0
LINE
8
Shape2DView
10
47.439100
20
130.957000
11
47.085548
21
130.810554
0
LINE
8
Shape2DView
10
47.085548
20
130.810554
11
46.939102
21
130.457002
0
LINE
8
Shape2DView
10
57.539100
20
130.457000
11
57.392654
21
130.810552
0
LINE
8
Shape2DView
10
57.392654
20
130.810552
11
57.039102
21
130.956998
0
LINE
8
Shape2DView
10
57.039000
20
130.956000
11
47.439200
21
130.956000
0
LINE
8
Shape2DView
10
32.439100
20
135.356000
11
42.039100
21
135.356000
0
LINE
8
Shape2DView
10
31.939100
20
135.857000
11
32.085545
21
135.503446
0
LINE
8
Shape2DView
10
32.085545
20
135.503446
11
32.439098
21
135.356999
0
LINE
8
Shape2DView
10
42.039100
20
135.357000
11
42.392655
21
135.503446
0
LINE
8
Shape2DView
10
42.392655
20
135.503446
11
42.539101
21
135.857001
0
LINE
8
Shape2DView
10
31.939100
20
145.457000
11
31.939100
21
135.856000
0
LINE
8
Shape2DView
10
42.539100
20
135.856000
11
42.539100
21
145.457000
0
LINE
8
Shape2DView
10
32.439100
20
145.957000
11
32.085548
21
145.810554
0
LINE
8
Shape2DView
10
32.085548
20
145.810554
11
31.939102
21
145.457002
0
LINE
8
Shape2DView
10
42.539100
20
145.457000
11
42.392653
21
145.810553
0
LINE
8
Shape2DView
10
42.392653
20
145.810553
11
42.039099
21
145.956998
0
LINE
8
Shape2DView
10
42.039100
20
145.957000
11
32.439100
21
145.957000
0
LINE
8
Shape2DView
10
47.439200
20
135.356000
11
57.039000
21
135.356000
0
LINE
8
Shape2DView
10
46.939100
20
135.857000
11
47.085545
21
135.503446
0
LINE
8
Shape2DView
10
47.085545
20
135.503446
11
47.439098
21
135.356999
0
LINE
8
Shape2DView
10
57.039100
20
135.357000
11
57.392653
21
135.503447
0
LINE
8
Shape2DView
10
57.392653
20
135.503447
11
57.539098
21
135.857001
0
LINE
8
Shape2DView
10
46.939100
20
145.457000
11
46.939100
21
135.856000
0
LINE
8
Shape2DView
10
57.539100
20
135.856000
11
57.539100
21
145.457000
0
LINE
8
Shape2DView
10
47.439100
20
145.957000
11
47.085548
21
145.810554
0
LINE
8
Shape2DView
10
47.085548
20
145.810554
11
46.939102
21
145.457002
0
LINE
8
Shape2DView
10
57.539100
20
145.457000
11
57.392654
21
145.810552
0
LINE
8
Shape2DView
10
57.392654
20
145.810552
11
57.039102
21
145.956998
0
LINE
8
Shape2DView
10
57.039000
20
145.957000
11
47.439200
21
145.957000
0
LINE
8
Shape2DView
10
62.439200
20
105.358000
11
72.039000
21
105.358000
0
LINE
8
Shape2DView
10
61.939100
20
105.857000
11
62.085547
21
105.503447
0
LINE
8
Shape2DView
10
62.085547
20
105.503447
11
62.439101
21
105.357002
0
LINE
8
Shape2DView
10
72.039100
20
105.357000
11
72.392652
21
105.503446
0
LINE
8
Shape2DView
10
72.392652
20
105.503446
11
72.539098
21
105.856998
0
LINE
8
Shape2DView
10
61.939100
20
115.457000
11
61.939100
21
105.858000
0
LINE
8
Shape2DView
10
72.539100
20
105.858000
11
72.539100
21
115.457000
0
LINE
8
Shape2DView
10
62.439100
20
115.957000
11
62.085545
21
115.810554
0
LINE
8
Shape2DView
10
62.085545
20
115.810554
11
61.939099
21
115.456999
0
LINE
8
Shape2DView
10
72.539100
20
115.457000
11
72.392655
21
115.810554
0
LINE
8
Shape2DView
10
72.392655
20
115.810554
11
72.039102
21
115.957001
0
LINE
8
Shape2DView
10
72.039000
20
115.957000
11
62.439200
21
115.957000
0
LINE
8
Shape2DView
10
60.889100
20
118.157000
11
60.735029
21
118.732000
0
LINE
8
Shape2DView
10
60.735029
20
118.732000
11
60.314100
21
119.152929
0
LINE
8
Shape2DView
10
60.314100
20
119.152929
11
59.739100
21
119.307000
0
LINE
8
Shape2DView
10
59.739100
20
119.307000
11
59.164100
21
119.152929
0
LINE
8
Shape2DView
10
59.164100
20
119.152929
11
58.743171
21
118.732000
0
LINE
8
Shape2DView
10
58.743171
20
118.732000
11
58.589100
21
118.157000
0
LINE
8
Shape2DView
10
58.589100
20
118.157000
11
58.743171
21
117.582000
0
LINE
8
Shape2DView
10
58.743171
20
117.582000
11
59.164100
21
117.161071
0
LINE
8
Shape2DView
10
59.164100
20
117.161071
11
59.739100
21
117.007000
0
LINE
8
Shape2DView
10
59.739100
20
117.007000
11
60.314100
21
117.161071
0
LINE
8
Shape2DView
10
60.314100
20
117.161071
11
60.735029
21
117.582000
0
LINE
8
Shape2DView
10
60.735029
20
117.582000
11
60.889100
21
118.157000
0
LINE
8
Shape2DView
10
60.889100
20
118.157000
11
60.889100
21
118.157000
0
LINE
8
Shape2DView
10
77.439200
20
105.358000
11
87.039000
21
105.358000
0
LINE
8
Shape2DView
10
76.939100
20
105.857000
11
77.085546
21
105.503448
0
LINE
8
Shape2DView
10
77.085546
20
105.503448
11
77.439098
21
105.357002
0
LINE
8
Shape2DView
10
87.039000
20
105.357000
11
87.392554
21
105.503445
0
LINE
8
Shape2DView
10
87.392554
20
105.503445
11
87.539001
21
105.856998
0
LINE
8
Shape2DView
10
76.939100
20
115.457000
11
76.939100
21
105.858000
0
LINE
8
Shape2DView
10
87.539100
20
105.858000
11
87.539100
21
115.457000
0
LINE
8
Shape2DView
10
77.439100
20
115.957000
11
77.085547
21
115.810553
0
LINE
8
Shape2DView
10
77.085547
20
115.810553
11
76.939102
21
115.456999
0
LINE
8
Shape2DView
10
87.539100
20
115.457000
11
87.392654
21
115.810555
0
LINE
8
Shape2DView
10
87.392654
20
115.810555
11
87.039099
21
115.957001
0
LINE
8
Shape2DView
10
87.039000
20
115.957000
11
77.439200
21
115.957000
0
LINE
8
Shape2DView
10
90.889000
20
118.157000
11
90.734929
21
118.732000
0
LINE
8
Shape2DView
10
90.734929
20
118.732000
11
90.314000
21
119.152929
0
LINE
8
Shape2DView
10
90.314000
20
119.152929
11
89.739000
21
119.307000
0
LINE
8
Shape2DView
10
89.739000
20
119.307000
11
89.164000
21
119.152929
0
LINE
8
Shape2DView
10
89.164000
20
119.152929
11
88.743071
21
118.732000
0
LINE
8
Shape2DView
10
88.743071
20
118.732000
11
88.589000
21
118.157000
0
LINE
8
Shape2DView
10
88.589000
20
118.157000
11
88.743071
21
117.582000
0
LINE
8
Shape2DView
10
88.743071
20
117.582000
11
89.164000
21
117.161071
0
LINE
8
Shape2DView
10
89.164000
20
117.161071
11
89.739000
21
117.007000
0
LINE
8
Shape2DView
10
89.739000
20
117.007000
11
90.314000
21
117.161071
0
LINE
8
Shape2DView
10
90.314000
20
117.161071
11
90.734929
21
117.582000
0
LINE
8
Shape2DView
10
90.734929
20
117.582000
11
90.889000
21
118.157000
0
LINE
8
Shape2DView
10
90.889000
20
118.157000
11
90.889000
21
118.157000
0
LINE
8
Shape2DView
10
92.438900
20
105.358000
11
102.039000
21
105.358000
0
LINE
8
Shape2DView
10
91.939000
20
105.857000
11
92.085446
21
105.503448
0
LINE
8
Shape2DView
10
92.085446
20
105.503448
11
92.438998
21
105.357002
0
LINE
8
Shape2DView
10
102.039000
20
105.357000
11
102.392552
21
105.503446
0
LINE
8
Shape2DView
10
102.392552
20
105.503446
11
102.538998
21
105.856998
0
LINE
8
Shape2DView
10
91.939100
20
115.457000
11
91.939100
21
105.858000
0
LINE
8
Shape2DView
10
102.539000
20
105.858000
11
102.539000
21
115.457000
0
LINE
8
Shape2DView
10
92.439000
20
115.957000
11
92.085447
21
115.810553
0
LINE
8
Shape2DView
10
92.085447
20
115.810553
11
91.939002
21
115.456999
0
LINE
8
Shape2DView
10
102.539000
20
115.457000
11
102.392555
21
115.810554
0
LINE
8
Shape2DView
10
102.392555
20
115.810554
11
102.039002
21
115.957001
0
LINE
8
Shape2DView
10
102.039000
20
115.957000
11
92.438900
21
115.957000
0
LINE
8
Shape2DView
10
62.439200
20
120.357000
11
72.039000
21
120.357000
0
LINE
8
Shape2DView
10
61.939100
20
120.857000
11
62.085547
21
120.503447
0
LINE
8
Shape2DView
10
62.085547
20
120.503447
11
62.439101
21
120.357002
0
LINE
8
Shape2DView
10
72.039100
20
120.357000
11
72.392652
21
120.503446
0
LINE
8
Shape2DView
10
72.392652
20
120.503446
11
72.539098
21
120.856998
0
LINE
8
Shape2DView
10
61.939100
20
130.456000
11
61.939100
21
120.857000
0
LINE
8
Shape2DView
10
72.539100
20
120.857000
11
72.539100
21
130.456000
0
LINE
8
Shape2DView
10
62.439100
20
130.957000
11
62.085546
21
130.810555
0
LINE
8
Shape2DView
10
62.085546
20
130.810555
11
61.939099
21
130.457002
0
LINE
8
Shape2DView
10
72.539100
20
130.457000
11
72.392654
21
130.810552
0
LINE
8
Shape2DView
10
72.392654
20
130.810552
11
72.039102
21
130.956998
0
LINE
8
Shape2DView
10
72.039000
20
130.956000
11
62.439200
21
130.956000
0
LINE
8
Shape2DView
10
62.439200
20
135.356000
11
72.039000
21
135.356000
0
LINE
8
Shape2DView
10
61.939100
20
135.857000
11
62.085546
21
135.503445
0
LINE
8
Shape2DView
10
62.085546
20
135.503445
11
62.439101
21
135.356999
0
LINE
8
Shape2DView
10
72.039100
20
135.357000
11
72.392653
21
135.503447
0
LINE
8
Shape2DView
10
72.392653
20
135.503447
11
72.539098
21
135.857001
0
LINE
8
Shape2DView
10
61.939100
20
145.457000
11
61.939100
21
135.856000
0
LINE
8
Shape2DView
10
72.539100
20
135.856000
11
72.539100
21
145.457000
0
LINE
8
Shape2DView
10
62.439100
20
145.957000
11
62.085546
21
145.810555
0
LINE
8
Shape2DView
10
62.085546
20
145.810555
11
61.939099
21
145.457002
0
LINE
8
Shape2DView
10
72.539100
20
145.457000
11
72.392654
21
145.810552
0
LINE
8
Shape2DView
10
72.392654
20
145.810552
11
72.039102
21
145.956998
0
LINE
8
Shape2DView
10
72.039000
20
145.957000
11
62.439200
21
145.957000
0
LINE
8
Shape2DView
10
77.439200
20
120.357000
11
87.039000
21
120.357000
0
LINE
8
Shape2DView
10
76.939100
20
120.857000
11
77.085546
21
120.503448
0
LINE
8
Shape2DView
10
77.085546
20
120.503448
11
77.439098
21
120.357002
0
LINE
8
Shape2DView
10
87.039000
20
120.357000
11
87.392554
21
120.503445
0
LINE
8
Shape2DView
10
87.392554
20
120.503445
11
87.539001
21
120.856998
0
LINE
8
Shape2DView
10
76.939100
20
130.456000
11
76.939100
21
120.857000
0
LINE
8
Shape2DView
10
87.539100
20
120.857000
11
87.539100
21
130.456000
0
LINE
8
Shape2DView
10
77.439100
20
130.957000
11
77.085548
21
130.810554
0
LINE
8
Shape2DView
10
77.085548
20
130.810554
11
76.939102
21
130.457002
0
LINE
8
Shape2DView
10
87.539100
20
130.457000
11
87.392653
21
130.810553
0
LINE
8
Shape2DView
10
87.392653
20
130.810553
11
87.039099
21
130.956998
0
LINE
8
Shape2DView
10
87.039000
20
130.956000
11
77.439200
21
130.956000
0
LINE
8
Shape2DView
10
92.438900
20
120.357000
11
102.039000
21
120.357000
0
LINE
8
Shape2DView
10
91.939000
20
120.857000
11
92.085446
21
120.503448
0
LINE
8
Shape2DView
10
92.085446
20
120.503448
11
92.438998
21
120.357002
0
LINE
8
Shape2DView
10
102.039000
20
120.357000
11
102.392552
21
120.503446
0
LINE
8
Shape2DView
10
102.392552
20
120.503446
11
102.538998
21
120.856998
0
LINE
8
Shape2DView
10
91.939100
20
130.456000
11
91.939100
21
120.857000
0
LINE
8
Shape2DView
10
102.539000
20
120.857000
11
102.539000
21
130.456000
0
LINE
8
Shape2DView
10
92.439000
20
130.957000
11
92.085448
21
130.810554
0
LINE
8
Shape2DView
10
92.085448
20
130.810554
11
91.939002
21
130.457002
0
LINE
8
Shape2DView
10
102.539000
20
130.457000
11
102.392554
21
130.810552
0
LINE
8
Shape2DView
10
102.392554
20
130.810552
11
102.039002
21
130.956998
0
LINE
8
Shape2DView
10
102.039000
20
130.956000
11
92.438900
21
130.956000
0
LINE
8
Shape2DView
10
77.439200
20
135.356000
11
87.039000
21
135.356000
0
LINE
8
Shape2DView
10
76.939100
20
135.857000
11
77.085545
21
135.503446
0
LINE
8
Shape2DView
10
77.085545
20
135.503446
11
77.439098
21
135.356999
0
LINE
8
Shape2DView
10
87.039000
20
135.357000
11
87.392555
21
135.503446
0
LINE
8
Shape2DView
10
87.392555
20
135.503446
11
87.539001
21
135.857001
0
LINE
8
Shape2DView
10
76.939100
20
145.457000
11
76.939100
21
135.856000
0
LINE
8
Shape2DView
10
87.539100
20
135.856000
11
87.539100
21
145.457000
0
LINE
8
Shape2DView
10
77.439100
20
145.957000
11
77.085548
21
145.810554
0
LINE
8
Shape2DView
10
77.085548
20
145.810554
11
76.939102
21
145.457002
0
LINE
8
Shape2DView
10
87.539100
20
145.457000
11
87.392653
21
145.810553
0
LINE
8
Shape2DView
10
87.392653
20
145.810553
11
87.039099
21
145.956998
0
LINE
8
Shape2DView
10
87.039000
20
145.957000
11
77.439200
21
145.957000
0
LINE
8
Shape2DView
10
92.438900
20
135.356000
11
102.039000
21
135.356000
0
LINE
8
Shape2DView
10
91.939000
20
135.857000
11
92.085445
21
135.503446
0
LINE
8
Shape2DView
10
92.085445
20
135.503446
11
92.438998
21
135.356999
0
LINE
8
Shape2DView
10
102.039000
20
135.357000
11
102.392553
21
135.503447
0
LINE
8
Shape2DView
10
102.392553
20
135.503447
11
102.538998
21
135.857001
0
LINE
8
Shape2DView
10
91.939100
20
145.457000
11
91.939100
21
135.856000
0
LINE
8
Shape2DView
10
102.539000
20
135.856000
11
102.539000
21
145.457000
0
LINE
8
Shape2DView
10
92.439000
20
145.957000
11
92.085448
21
145.810554
0
LINE
8
Shape2DView
10
92.085448
20
145.810554
11
91.939002
21
145.457002
0
LINE
8
Shape2DView
10
102.539000
20
145.457000
11
102.392554
21
145.810552
0
LINE
8
Shape2DView
10
102.392554
20
145.810552
11
102.039002
21
145.956998
0
LINE
8
Shape2DView
10
102.039000
20
145.957000
11
92.438900
21
145.957000
0
LINE
8
Shape2DView
10
30.889100
20
148.157000
11
30.735029
21
148.732000
0
LINE
8
Shape2DView
10
30.735029
20
148.732000
11
30.314100
21
149.152929
0
LINE
8
Shape2DView
10
30.314100
20
149.152929
11
29.739100
21
149.307000
0
LINE
8
Shape2DView
10
29.739100
20
149.307000
11
29.164100
21
149.152929
0
LINE
8
Shape2DView
10
29.164100
20
149.152929
11
28.743171
21
148.732000
0
LINE
8
Shape2DView
10
28.743171
20
148.732000
11
28.589100
21
148.157000
0
LINE
8
Shape2DView
10
28.589100
20
148.157000
11
28.743171
21
147.582000
0
LINE
8
Shape2DView
10
28.743171
20
147.582000
11
29.164100
21
147.161071
0
LINE
8
Shape2DView
10
29.164100
20
147.161071
11
29.739100
21
147.007000
0
LINE
8
Shape2DView
10
29.739100
20
147.007000
11
30.314100
21
147.161071
0
LINE
8
Shape2DView
10
30.314100
20
147.161071
11
30.735029
21
147.582000
0
LINE
8
Shape2DView
10
30.735029
20
147.582000
11
30.889100
21
148.157000
0
LINE
8
Shape2DView
10
30.889100
20
148.157000
11
30.889100
21
148.157000
0
LINE
8
Shape2DView
10
17.439100
20
150.357000
11
27.039100
21
150.357000
0
LINE
8
Shape2DView
10
16.939100
20
150.857000
11
17.085547
21
150.503448
0
LINE
8
Shape2DView
10
17.085547
20
150.503448
11
17.439099
21
150.357002
0
LINE
8
Shape2DView
10
27.039100
20
150.357000
11
27.392652
21
150.503446
0
LINE
8
Shape2DView
10
27.392652
20
150.503446
11
27.539098
21
150.856998
0
LINE
8
Shape2DView
10
16.939100
20
160.457000
11
16.939100
21
150.857000
0
LINE
8
Shape2DView
10
27.539100
20
150.857000
11
27.539100
21
160.457000
0
LINE
8
Shape2DView
10
17.439100
20
160.957000
11
17.085547
21
160.810553
0
LINE
8
Shape2DView
10
17.085547
20
160.810553
11
16.939101
21
160.456999
0
LINE
8
Shape2DView
10
27.539100
20
160.457000
11
27.392655
21
160.810554
0
LINE
8
Shape2DView
10
27.392655
20
160.810554
11
27.039102
21
160.957001
0
LINE
8
Shape2DView
10
27.039100
20
160.957000
11
17.439100
21
160.957000
0
LINE
8
Shape2DView
10
32.439100
20
150.357000
11
42.039100
21
150.357000
0
LINE
8
Shape2DView
10
31.939100
20
150.857000
11
32.085546
21
150.503448
0
LINE
8
Shape2DView
10
32.085546
20
150.503448
11
32.439098
21
150.357002
0
LINE
8
Shape2DView
10
42.039100
20
150.357000
11
42.392654
21
150.503445
0
LINE
8
Shape2DView
10
42.392654
20
150.503445
11
42.539101
21
150.856998
0
LINE
8
Shape2DView
10
31.939100
20
160.457000
11
31.939100
21
150.857000
0
LINE
8
Shape2DView
10
42.539100
20
150.857000
11
42.539100
21
160.457000
0
LINE
8
Shape2DView
10
32.439100
20
160.957000
11
32.085547
21
160.810553
0
LINE
8
Shape2DView
10
32.085547
20
160.810553
11
31.939102
21
160.456999
0
LINE
8
Shape2DView
10
42.539100
20
160.457000
11
42.392654
21
160.810555
0
LINE
8
Shape2DView
10
42.392654
20
160.810555
11
42.039099
21
160.957001
0
LINE
8
Shape2DView
10
42.039100
20
160.957000
11
32.439100
21
160.957000
0
LINE
8
Shape2DView
10
47.439200
20
150.357000
11
57.039000
21
150.357000
0
LINE
8
Shape2DView
10
46.939100
20
150.857000
11
47.085546
21
150.503448
0
LINE
8
Shape2DView
10
47.085546
20
150.503448
11
47.439098
21
150.357002
0
LINE
8
Shape2DView
10
57.039100
20
150.357000
11
57.392652
21
150.503446
0
LINE
8
Shape2DView
10
57.392652
20
150.503446
11
57.539098
21
150.856998
0
LINE
8
Shape2DView
10
46.939100
20
160.457000
11
46.939100
21
150.857000
0
LINE
8
Shape2DView
10
57.539100
20
150.857000
11
57.539100
21
160.457000
0
LINE
8
Shape2DView
10
47.439100
20
160.957000
11
47.085547
21
160.810553
0
LINE
8
Shape2DView
10
47.085547
20
160.810553
11
46.939102
21
160.456999
0
LINE
8
Shape2DView
10
57.539100
20
160.457000
11
57.392655
21
160.810554
0
LINE
8
Shape2DView
10
57.392655
20
160.810554
11
57.039102
21
160.957001
0
LINE
8
Shape2DView
10
57.039000
20
160.957000
11
47.439200
21
160.957000
0
LINE
8
Shape2DView
10
17.439100
20
165.357000
11
27.039100
21
165.357000
0
LINE
8
Shape2DView
10
16.939100
20
165.857000
11
17.085547
21
165.503448
0
LINE
8
Shape2DView
10
17.085547
20
165.503448
11
17.439099
21
165.357002
0
LINE
8
Shape2DView
10
27.039100
20
165.357000
11
27.392652
21
165.503446
0
LINE
8
Shape2DView
10
27.392652
20
165.503446
11
27.539098
21
165.856998
0
LINE
8
Shape2DView
10
16.939100
20
175.457000
11
16.939100
21
165.857000
0
LINE
8
Shape2DView
10
27.539100
20
165.857000
11
27.539100
21
175.457000
0
LINE
8
Shape2DView
10
17.439100
20
175.957000
11
17.085548
21
175.810554
0
LINE
8
Shape2DView
10
17.085548
20
175.810554
11
16.939101
21
175.457002
0
LINE
8
Shape2DView
10
27.539100
20
175.457000
11
27.392654
21
175.810552
0
LINE
8
Shape2DView
10
27.392654
20
175.810552
11
27.039102
21
175.956998
0
LINE
8
Shape2DView
10
27.039100
20
175.957000
11
17.439100
21
175.957000
0
LINE
8
Shape2DView
10
30.889100
20
178.157000
11
30.735029
21
178.732000
0
LINE
8
Shape2DView
10
30.735029
20
178.732000
11
30.314100
21
179.152929
0
LINE
8
Shape2DView
10
30.314100
20
179.152929
11
29.739100
21
179.307000
0
LINE
8
Shape2DView
10
29.739100
20
179.307000
11
29.164100
21
179.152929
0
LINE
8
Shape2DView
10
29.164100
20
179.152929
11
28.743171
21
178.732000
0
LINE
8
Shape2DView
10
28.743171
20
178.732000
11
28.589100
21
178.157000
0
LINE
8
Shape2DView
10
28.589100
20
178.157000
11
28.743171
21
177.582000
0
LINE
8
Shape2DView
10
28.743171
20
177.582000
11
29.164100
21
177.161071
0
LINE
8
Shape2DView
10
29.164100
20
177.161071
11
29.739100
21
177.007000
0
LINE
8
Shape2DView
10
29.739100
20
177.007000
11
30.314100
21
177.161071
0
LINE
8
Shape2DView
10
30.314100
20
177.161071
11
30.735029
21
177.582000
0
LINE
8
Shape2DView
10
30.735029
20
177.582000
11
30.889100
21
178.157000
0
LINE
8
Shape2DView
10
30.889100
20
178.157000
11
30.889100
21
178.157000
0
LINE
8
Shape2DView
10
17.439100
20
180.357000
11
27.039100
21
180.357000
0
LINE
8
Shape2DView
10
16.939100
20
180.857000
11
17.085546
21
180.503446
0
LINE
8
Shape2DView
10
17.085546
20
180.503446
11
17.439099
21
180.356999
0
LINE
8
Shape2DView
10
27.039100
20
180.357000
11
27.392653
21
180.503447
0
LINE
8
Shape2DView
10
27.392653
20
180.503447
11
27.539098
21
180.857001
0
LINE
8
Shape2DView
10
16.939100
20
190.457000
11
16.939100
21
180.857000
0
LINE
8
Shape2DView
10
27.539100
20
180.857000
11
27.539100
21
190.457000
0
LINE
8
Shape2DView
10
17.439100
20
190.957000
11
17.085548
21
190.810554
0
LINE
8
Shape2DView
10
17.085548
20
190.810554
11
16.939101
21
190.457002
0
LINE
8
Shape2DView
10
27.539100
20
190.457000
11
27.392654
21
190.810552
0
LINE
8
Shape2DView
10
27.392654
20
190.810552
11
27.039102
21
190.956998
0
LINE
8
Shape2DView
10
27.039100
20
190.957000
11
17.439100
21
190.957000
0
LINE
8
Shape2DView
10
32.439100
20
165.357000
11
42.039100
21
165.357000
0
LINE
8
Shape2DView
10
31.939100
20
165.857000
11
32.085546
21
165.503448
0
LINE
8
Shape2DView
10
32.085546
20
165.503448
11
32.439098
21
165.357002
0
LINE
8
Shape2DView
10
42.039100
20
165.357000
11
42.392654
21
165.503445
0
LINE
8
Shape2DView
10
42.392654
20
165.503445
11
42.539101
21
165.856998
0
LINE
8
Shape2DView
10
31.939100
20
175.457000
11
31.939100
21
165.857000
0
LINE
8
Shape2DView
10
42.539100
20
165.857000
11
42.539100
21
175.457000
0
LINE
8
Shape2DView
10
32.439100
20
175.957000
11
32.085548
21
175.810554
0
LINE
8
Shape2DView
10
32.085548
20
175.810554
11
31.939102
21
175.457002
0
LINE
8
Shape2DView
10
42.539100
20
175.457000
11
42.392653
21
175.810553
0
LINE
8
Shape2DView
10
42.392653
20
175.810553
11
42.039099
21
175.956998
0
LINE
8
Shape2DView
10
42.039100
20
175.957000
11
32.439100
21
175.957000
0
LINE
8
Shape2DView
10
47.439200
20
165.357000
11
57.039000
21
165.357000
0
LINE
8
Shape2DView
10
46.939100
20
165.857000
11
47.085546
21
165.503448
0
LINE
8
Shape2DView
10
47.085546
20
165.503448
11
47.439098
21
165.357002
0
LINE
8
Shape2DView
10
57.039100
20
165.357000
11
57.392652
21
165.503446
0
LINE
8
Shape2DView
10
57.392652
20
165.503446
11
57.539098
21
165.856998
0
LINE
8
Shape2DView
10
46.939100
20
175.457000
11
46.939100
21
165.857000
0
LINE
8
Shape2DView
10
57.539100
20
165.857000
11
57.539100
21
175.457000
0
LINE
8
Shape2DView
10
47.439100
20
175.957000
11
47.085548
21
175.810554
0
LINE
8
Shape2DView
10
47.085548
20
175.810554
11
46.939102
21
175.457002
0
LINE
8
Shape2DView
10
57.539100
20
175.457000
11
57.392654
21
175.810552
0
LINE
8
Shape2DView
10
57.392654
20
175.810552
11
57.039102
21
175.956998
0
LINE
8
Shape2DView
10
57.039000
20
175.957000
11
47.439200
21
175.957000
0
LINE
8
Shape2DView
10
32.439100
20
180.357000
11
42.039100
21
180.357000
0
LINE
8
Shape2DView
10
31.939100
20
180.857000
11
32.085545
21
180.503446
0
LINE
8
Shape2DView
10
32.085545
20
180.503446
11
32.439098
21
180.356999
0
LINE
8
Shape2DView
10
42.039100
20
180.357000
11
42.392655
21
180.503446
0
LINE
8
Shape2DView
10
42.392655
20
180.503446
11
42.539101
21
180.857001
0
LINE
8
Shape2DView
10
31.939100
20
190.457000
11
31.939100
21
180.857000
0
LINE
8
Shape2DView
10
42.539100
20
180.857000
11
42.539100
21
190.457000
0
LINE
8
Shape2DView
10
32.439100
20
190.957000
11
32.085548
21
190.810554
0
LINE
8
Shape2DView
10
32.085548
20
190.810554
11
31.939102
21
190.457002
0
LINE
8
Shape2DView
10
42.539100
20
190.457000
11
42.392653
21
190.810553
0
LINE
8
Shape2DView
10
42.392653
20
190.810553
11
42.039099
21
190.956998
0
LINE
8
Shape2DView
10
42.039100
20
190.957000
11
32.439100
21
190.957000
0
LINE
8
Shape2DView
10
47.439200
20
180.357000
11
57.039000
21
180.357000
0
LINE
8
Shape2DView
10
46.939100
20
180.857000
11
47.085545
21
180.503446
0
LINE
8
Shape2DView
10
47.085545
20
180.503446
11
47.439098
21
180.356999
0
LINE
8
Shape2DView
10
57.039100
20
180.357000
11
57.392653
21
180.503447
0
LINE
8
Shape2DView
10
57.392653
20
180.503447
11
57.539098
21
180.857001
0
LINE
8
Shape2DView
10
46.939100
20
190.457000
11
46.939100
21
180.857000
0
LINE
8
Shape2DView
10
57.539100
20
180.857000
11
57.539100
21
190.457000
0
LINE
8
Shape2DView
10
47.439100
20
190.957000
11
47.085548
21
190.810554
0
LINE
8
Shape2DView
10
47.085548
20
190.810554
11
46.939102
21
190.457002
0
LINE
8
Shape2DView
10
57.539100
20
190.457000
11
57.392654
21
190.810552
0
LINE
8
Shape2DView
10
57.392654
20
190.810552
11
57.039102
21
190.956998
0
LINE
8
Shape2DView
10
57.039000
20
190.957000
11
47.439200
21
190.957000
0
LINE
8
Shape2DView
10
60.889100
20
148.157000
11
60.735029
21
148.732000
0
LINE
8
Shape2DView
10
60.735029
20
148.732000
11
60.314100
21
149.152929
0
LINE
8
Shape2DView
10
60.314100
20
149.152929
11
59.739100
21
149.307000
0
LINE
8
Shape2DView
10
59.739100
20
149.307000
11
59.164100
21
149.152929
0
LINE
8
Shape2DView
10
59.164100
20
149.152929
11
58.743171
21
148.732000
0
LINE
8
Shape2DView
10
58.743171
20
148.732000
11
58.589100
21
148.157000
0
LINE
8
Shape2DView
10
58.589100
20
148.157000
11
58.743171
21
147.582000
0
LINE
8
Shape2DView
10
58.743171
20
147.582000
11
59.164100
21
147.161071
0
LINE
8
Shape2DView
10
59.164100
20
147.161071
11
59.739100
21
147.007000
0
LINE
8
Shape2DView
10
59.739100
20
147.007000
11
60.314100
21
147.161071
0
LINE
8
Shape2DView
10
60.314100
20
147.161071
11
60.735029
21
147.582000
0
LINE
8
Shape2DView
10
60.735029
20
147.582000
11
60.889100
21
148.157000
0
LINE
8
Shape2DView
10
60.889100
20
148.157000
11
60.889100
21
148.157000
0
LINE
8
Shape2DView
10
62.439200
20
150.357000
11
72.039000
21
150.357000
0
LINE
8
Shape2DView
10
61.939100
20
150.857000
11
62.085547
21
150.503447
0
LINE
8
Shape2DView
10
62.085547
20
150.503447
11
62.439101
21
150.357002
0
LINE
8
Shape2DView
10
72.039100
20
150.357000
11
72.392652
21
150.503446
0
LINE
8
Shape2DView
10
72.392652
20
150.503446
11
72.539098
21
150.856998
0
LINE
8
Shape2DView
10
61.939100
20
160.457000
11
61.939100
21
150.857000
0
LINE
8
Shape2DView
10
72.539100
20
150.857000
11
72.539100
21
160.457000
0
LINE
8
Shape2DView
10
62.439100
20
160.957000
11
62.085545
21
160.810554
0
LINE
8
Shape2DView
10
62.085545
20
160.810554
11
61.939099
21
160.456999
0
LINE
8
Shape2DView
10
72.539100
20
160.457000
11
72.392655
21
160.810554
0
LINE
8
Shape2DView
10
72.392655
20
160.810554
11
72.039102
21
160.957001
0
LINE
8
Shape2DView
10
72.039000
20
160.957000
11
62.439200
21
160.957000
0
LINE
8
Shape2DView
10
90.889000
20
148.157000
11
90.734929
21
148.732000
0
LINE
8
Shape2DView
10
90.734929
20
148.732000
11
90.314000
21
149.152929
0
LINE
8
Shape2DView
10
90.314000
20
149.152929
11
89.739000
21
149.307000
0
LINE
8
Shape2DView
10
89.739000
20
149.307000
11
89.164000
21
149.152929
0
LINE
8
Shape2DView
10
89.164000
20
149.152929
11
88.743071
21
148.732000
0
LINE
8
Shape2DView
10
88.743071
20
148.732000
11
88.589000
21
148.157000
0
LINE
8
Shape2DView
10
88.589000
20
148.157000
11
88.743071
21
147.582000
0
LINE
8
Shape2DView
10
88.743071
20
147.582000
11
89.164000
21
147.161071
0
LINE
8
Shape2DView
10
89.164000
20
147.161071
11
89.739000
21
147.007000
0
LINE
8
Shape2DView
10
89.739000
20
147.007000
11
90.314000
21
147.161071
0
LINE
8
Shape2DView
10
90.314000
20
147.161071
11
90.734929
21
147.582000
0
LINE
8
Shape2DView
10
90.734929
20
147.582000
11
90.889000
21
148.157000
0
LINE
8
Shape2DView
10
90.889000
20
148.157000
11
90.889000
21
148.157000
0
LINE
8
Shape2DView
10
77.439200
20
150.357000
11
87.039000
21
150.357000
0
LINE
8
Shape2DView
10
76.939100
20
150.857000
11
77.085546
21
150.503448
0
LINE
8
Shape2DView
10
77.085546
20
150.503448
11
77.439098
21
150.357002
0
LINE
8
Shape2DView
10
87.039000
20
150.357000
11
87.392554
21
150.503445
0
LINE
8
Shape2DView
10
87.392554
20
150.503445
11
87.539001
21
150.856998
0
LINE
8
Shape2DView
10
76.939100
20
160.457000
11
76.939100
21
150.857000
0
LINE
8
Shape2DView
10
87.539100
20
150.857000
11
87.539100
21
160.457000
0
LINE
8
Shape2DView
10
77.439100
20
160.957000
11
77.085547
21
160.810553
0
LINE
8
Shape2DView
10
77.085547
20
160.810553
11
76.939102
21
160.456999
0
LINE
8
Shape2DView
10
87.539100
20
160.457000
11
87.392654
21
160.810555
0
LINE
8
Shape2DView
10
87.392654
20
160.810555
11
87.039099
21
160.957001
0
LINE
8
Shape2DView
10
87.039000
20
160.957000
11
77.439200
21
160.957000
0
LINE
8
Shape2DView
10
92.438900
20
150.357000
11
102.039000
21
150.357000
0
LINE
8
Shape2DView
10
91.939000
20
150.857000
11
92.085446
21
150.503448
0
LINE
8
Shape2DView
10
92.085446
20
150.503448
11
92.438998
21
150.357002
0
LINE
8
Shape2DView
10
102.039000
20
150.357000
11
102.392552
21
150.503446
0
LINE
8
Shape2DView
10
102.392552
20
150.503446
11
102.538998
21
150.856998
0
LINE
8
Shape2DView
10
91.939100
20
160.457000
11
91.939100
21
150.857000
0
LINE
8
Shape2DView
10
102.539000
20
150.857000
11
102.539000
21
160.457000
0
LINE
8
Shape2DView
10
92.439000
20
160.957000
11
92.085447
21
160.810553
0
LINE
8
Shape2DView
10
92.085447
20
160.810553
11
91.939002
21
160.456999
0
LINE
8
Shape2DView
10
102.539000
20
160.457000
11
102.392555
21
160.810554
0
LINE
8
Shape2DView
10
102.392555
20
160.810554
11
102.039002
21
160.957001
0
LINE
8
Shape2DView
10
102.039000
20
160.957000
11
92.438900
21
160.957000
0
LINE
8
Shape2DView
10
62.439200
20
165.357000
11
72.039000
21
165.357000
0
LINE
8
Shape2DView
10
61.939100
20
165.857000
11
62.085547
21
165.503447
0
LINE
8
Shape2DView
10
62.085547
20
165.503447
11
62.439101
21
165.357002
0
LINE
8
Shape2DView
10
72.039100
20
165.357000
11
72.392652
21
165.503446
0
LINE
8
Shape2DView
10
72.392652
20
165.503446
11
72.539098
21
165.856998
0
LINE
8
Shape2DView
10
61.939100
20
175.457000
11
61.939100
21
165.857000
0
LINE
8
Shape2DView
10
72.539100
20
165.857000
11
72.539100
21
175.457000
0
LINE
8
Shape2DView
10
62.439100
20
175.957000
11
62.085546
21
175.810555
0
LINE
8
Shape2DView
10
62.085546
20
175.810555
11
61.939099
21
175.457002
0
LINE
8
Shape2DView
10
72.539100
20
175.457000
11
72.392654
21
175.810552
0
LINE
8
Shape2DView
10
72.392654
20
175.810552
11
72.039102
21
175.956998
0
LINE
8
Shape2DView
10
72.039000
20
175.957000
11
62.439200
21
175.957000
0
LINE
8
Shape2DView
10
60.889100
20
178.157000
11
60.735029
21
178.732000
0
LINE
8
Shape2DView
10
60.735029
20
178.732000
11
60.314100
21
179.152929
0
LINE
8
Shape2DView
10
60.314100
20
179.152929
11
59.739100
21
179.307000
0
LINE
8
Shape2DView
10
59.739100
20
179.307000
11
59.164100
21
179.152929
0
LINE
8
Shape2DView
10
59.164100
20
179.152929
11
58.743171
21
178.732000
0
LINE
8
Shape2DView
10
58.743171
20
178.732000
11
58.589100
21
178.157000
0
LINE
8
Shape2DView
10
58.589100
20
178.157000
11
58.743171
21
177.582000
0
LINE
8
Shape2DView
10
58.743171
20
177.582000
11
59.164100
21
177.161071
0
LINE
8
Shape2DView
10
59.164100
20
177.161071
11
59.739100
21
177.007000
0
LINE
8
Shape2DView
10
59.739100
20
177.007000
11
60.314100
21
177.161071
0
LINE
8
Shape2DView
10
60.314100
20
177.161071
11
60.735029
21
177.582000
0
LINE
8
Shape2DView
10
60.735029
20
177.582000
11
60.889100
21
178.157000
0
LINE
8
Shape2DView
10
60.889100
20
178.157000
11
60.889100
21
178.157000
0
LINE
8
Shape2DView
10
62.439200
20
180.357000
11
72.039000
21
180.357000
0
LINE
8
Shape2DView
10
61.939100
20
180.857000
11
62.085546
21
180.503445
0
LINE
8
Shape2DView
10
62.085546
20
180.503445
11
62.439101
21
180.356999
0
LINE
8
Shape2DView
10
72.039100
20
180.357000
11
72.392653
21
180.503447
0
LINE
8
Shape2DView
10
72.392653
20
180.503447
11
72.539098
21
180.857001
0
LINE
8
Shape2DView
10
61.939100
20
190.457000
11
61.939100
21
180.857000
0
LINE
8
Shape2DView
10
72.539100
20
180.857000
11
72.539100
21
190.457000
0
LINE
8
Shape2DView
10
62.439100
20
190.957000
11
62.085546
21
190.810555
0
LINE
8
Shape2DView
10
62.085546
20
190.810555
11
61.939099
21
190.457002
0
LINE
8
Shape2DView
10
72.539100
20
190.457000
11
72.392654
21
190.810552
0
LINE
8
Shape2DView
10
72.392654
20
190.810552
11
72.039102
21
190.956998
0
LINE
8
Shape2DView
10
72.039000
20
190.957000
11
62.439200
21
190.957000
0
LINE
8
Shape2DView
10
77.439200
20
165.357000
11
87.039000
21
165.357000
0
LINE
8
Shape2DView
10
76.939100
20
165.857000
11
77.085546
21
165.503448
0
LINE
8
Shape2DView
10
77.085546
20
165.503448
11
77.439098
21
165.357002
0
LINE
8
Shape2DView
10
87.039000
20
165.357000
11
87.392554
21
165.503445
0
LINE
8
Shape2DView
10
87.392554
20
165.503445
11
87.539001
21
165.856998
0
LINE
8
Shape2DView
10
76.939100
20
175.457000
11
76.939100
21
165.857000
0
LINE
8
Shape2DView
10
87.539100
20
165.857000
11
87.539100
21
175.457000
0
LINE
8
Shape2DView
10
77.439100
20
175.957000
11
77.085548
21
175.810554
0
LINE
8
Shape2DView
10
77.085548
20
175.810554
11
76.939102
21
175.457002
0
LINE
8
Shape2DView
10
87.539100
20
175.457000
11
87.392653
21
175.810553
0
LINE
8
Shape2DView
10
87.392653
20
175.810553
11
87.039099
21
175.956998
0
LINE
8
Shape2DView
10
87.039000
20
175.957000
11
77.439200
21
175.957000
0
LINE
8
Shape2DView
10
90.889000
20
178.157000
11
90.734929
21
178.732000
0
LINE
8
Shape2DView
10
90.734929
20
178.732000
11
90.314000
21
179.152929
0
LINE
8
Shape2DView
10
90.314000
20
179.152929
11
89.739000
21
179.307000
0
LINE
8
Shape2DView
10
89.739000
20
179.307000
11
89.164000
21
179.152929
0
LINE
8
Shape2DView
10
89.164000
20
179.152929
11
88.743071
21
178.732000
0
LINE
8
Shape2DView
10
88.743071
20
178.732000
11
88.589000
21
178.157000
0
LINE
8
Shape2DView
10
88.589000
20
178.157000
11
88.743071
21
177.582000
0
LINE
8
Shape2DView
10
88.743071
20
177.582000
11
89.164000
21
177.161071
0
LINE
8
Shape2DView
10
89.164000
20
177.161071
11
89.739000
21
177.007000
0
LINE
8
Shape2DView
10
89.739000
20
177.007000
11
90.314000
21
177.161071
0
LINE
8
Shape2DView
10
90.314000
20
177.161071
11
90.734929
21
177.582000
0
LINE
8
Shape2DView
10
90.734929
20
177.582000
11
90.889000
21
178.157000
0
LINE
8
Shape2DView
10
90.889000
20
178.157000
11
90.889000
21
178.157000
0
LINE
8
Shape2DView
10
92.438900
20
165.357000
11
102.039000
21
165.357000
0
LINE
8
Shape2DView
10
91.939000
20
165.857000
11
92.085446
21
165.503448
0
LINE
8
Shape2DView
10
92.085446
20
165.503448
11
92.438998
21
165.357002
0
LINE
8
Shape2DView
10
102.039000
20
165.357000
11
102.392552
21
165.503446
0
LINE
8
Shape2DView
10
102.392552
20
165.503446
11
102.538998
21
165.856998
0
LINE
8
Shape2DView
10
91.939100
20
175.457000
11
91.939100
21
165.857000
0
LINE
8
Shape2DView
10
102.539000
20
165.857000
11
102.539000
21
175.457000
0
LINE
8
Shape2DView
10
92.439000
20
175.957000
11
92.085448
21
175.810554
0
LINE
8
Shape2DView
10
92.085448
20
175.810554
11
91.939002
21
175.457002
0
LINE
8
Shape2DView
10
102.539000
20
175.457000
11
102.392554
21
175.810552
0
LINE
8
Shape2DView
10
102.392554
20
175.810552
11
102.039002
21
175.956998
0
LINE
8
Shape2DView
10
102.039000
20
175.957000
11
92.438900
21
175.957000
0
LINE
8
Shape2DView
10
77.439200
20
180.357000
11
87.039000
21
180.357000
0
LINE
8
Shape2DView
10
76.939100
20
180.857000
11
77.085545
21
180.503446
0
LINE
8
Shape2DView
10
77.085545
20
180.503446
11
77.439098
21
180.356999
0
LINE
8
Shape2DView
10
87.039000
20
180.357000
11
87.392555
21
180.503446
0
LINE
8
Shape2DView
10
87.392555
20
180.503446
11
87.539001
21
180.857001
0
LINE
8
Shape2DView
10
76.939100
20
190.457000
11
76.939100
21
180.857000
0
LINE
8
Shape2DView
10
87.539100
20
180.857000
11
87.539100
21
190.457000
0
LINE
8
Shape2DView
10
77.439100
20
190.957000
11
77.085548
21
190.810554
0
LINE
8
Shape2DView
10
77.085548
20
190.810554
11
76.939102
21
190.457002
0
LINE
8
Shape2DView
10
87.539100
20
190.457000
11
87.392618
21
190.810589
0
LINE
8
Shape2DView
10
87.392618
20
190.810589
11
87.039000
21
190.957000
0
LINE
8
Shape2DView
10
87.039000
20
190.957000
11
77.439200
21
190.957000
0
LINE
8
Shape2DView
10
92.438900
20
180.357000
11
102.039000
21
180.357000
0
LINE
8
Shape2DView
10
91.939000
20
180.857000
11
92.085445
21
180.503446
0
LINE
8
Shape2DView
10
92.085445
20
180.503446
11
92.438998
21
180.356999
0
LINE
8
Shape2DView
10
102.039000
20
180.357000
11
102.392553
21
180.503447
0
LINE
8
Shape2DView
10
102.392553
20
180.503447
11
102.538998
21
180.857001
0
LINE
8
Shape2DView
10
91.939100
20
190.457000
11
91.939100
21
180.857000
0
LINE
8
Shape2DView
10
102.539000
20
180.857000
11
102.539000
21
190.457000
0
LINE
8
Shape2DView
10
92.439000
20
190.957000
11
92.085448
21
190.810554
0
LINE
8
Shape2DView
10
92.085448
20
190.810554
11
91.939002
21
190.457002
0
LINE
8
Shape2DView
10
102.539000
20
190.457000
11
102.392554
21
190.810552
0
LINE
8
Shape2DView
10
102.392554
20
190.810552
11
102.039002
21
190.956998
0
LINE
8
Shape2DView
10
102.039000
20
190.957000
11
92.438900
21
190.957000
0
LINE
8
Shape2DView
10
105.889000
20
99.406900
11
105.734929
21
99.981900
0
LINE
8
Shape2DView
10
105.734929
20
99.981900
11
105.314000
21
100.402829
0
LINE
8
Shape2DView
10
105.314000
20
100.402829
11
104.739000
21
100.556900
0
LINE
8
Shape2DView
10
104.739000
20
100.556900
11
104.164000
21
100.402829
0
LINE
8
Shape2DView
10
104.164000
20
100.402829
11
103.743071
21
99.981900
0
LINE
8
Shape2DView
10
103.743071
20
99.981900
11
103.589000
21
99.406900
0
LINE
8
Shape2DView
10
103.589000
20
99.406900
11
103.743071
21
98.831900
0
LINE
8
Shape2DView
10
103.743071
20
98.831900
11
104.164000
21
98.410971
0
LINE
8
Shape2DView
10
104.164000
20
98.410971
11
104.739000
21
98.256900
0
LINE
8
Shape2DView
10
104.739000
20
98.256900
11
105.314000
21
98.410971
0
LINE
8
Shape2DView
10
105.314000
20
98.410971
11
105.734929
21
98.831900
0
LINE
8
Shape2DView
10
105.734929
20
98.831900
11
105.889000
21
99.406900
0
LINE
8
Shape2DView
10
105.889000
20
99.406900
11
105.889000
21
99.406900
0
LINE
8
Shape2DView
10
107.439000
20
105.358000
11
117.039000
21
105.358000
0
LINE
8
Shape2DView
10
106.939000
20
105.857000
11
107.085447
21
105.503447
0
LINE
8
Shape2DView
10
107.085447
20
105.503447
11
107.439001
21
105.357002
0
LINE
8
Shape2DView
10
117.039000
20
105.357000
11
117.392552
21
105.503446
0
LINE
8
Shape2DView
10
117.392552
20
105.503446
11
117.538998
21
105.856998
0
LINE
8
Shape2DView
10
106.939000
20
115.457000
11
106.939000
21
105.858000
0
LINE
8
Shape2DView
10
117.539000
20
105.858000
11
117.539000
21
115.457000
0
LINE
8
Shape2DView
10
107.439000
20
115.957000
11
107.085445
21
115.810554
0
LINE
8
Shape2DView
10
107.085445
20
115.810554
11
106.938999
21
115.456999
0
LINE
8
Shape2DView
10
117.539000
20
115.457000
11
117.392555
21
115.810554
0
LINE
8
Shape2DView
10
117.392555
20
115.810554
11
117.039002
21
115.957001
0
LINE
8
Shape2DView
10
117.039000
20
115.957000
11
107.439000
21
115.957000
0
LINE
8
Shape2DView
10
122.439000
20
105.358000
11
132.039000
21
105.358000
0
LINE
8
Shape2DView
10
121.939000
20
105.857000
11
122.085446
21
105.503448
0
LINE
8
Shape2DView
10
122.085446
20
105.503448
11
122.438998
21
105.357002
0
LINE
8
Shape2DView
10
132.039000
20
105.357000
11
132.392554
21
105.503445
0
LINE
8
Shape2DView
10
132.392554
20
105.503445
11
132.539001
21
105.856998
0
LINE
8
Shape2DView
10
121.939000
20
115.457000
11
121.939000
21
105.858000
0
LINE
8
Shape2DView
10
132.539000
20
105.858000
11
132.539000
21
115.457000
0
LINE
8
Shape2DView
10
122.439000
20
115.957000
11
122.085447
21
115.810553
0
LINE
8
Shape2DView
10
122.085447
20
115.810553
11
121.939002
21
115.456999
0
LINE
8
Shape2DView
10
132.539000
20
115.457000
11
132.392554
21
115.810555
0
LINE
8
Shape2DView
10
132.392554
20
115.810555
11
132.038999
21
115.957001
0
LINE
8
Shape2DView
10
132.039000
20
115.957000
11
122.439000
21
115.957000
0
LINE
8
Shape2DView
10
120.889000
20
118.157000
11
120.734929
21
118.732000
0
LINE
8
Shape2DView
10
120.734929
20
118.732000
11
120.314000
21
119.152929
0
LINE
8
Shape2DView
10
120.314000
20
119.152929
11
119.739000
21
119.307000
0
LINE
8
Shape2DView
10
119.739000
20
119.307000
11
119.164000
21
119.152929
0
LINE
8
Shape2DView
10
119.164000
20
119.152929
11
118.743071
21
118.732000
0
LINE
8
Shape2DView
10
118.743071
20
118.732000
11
118.589000
21
118.157000
0
LINE
8
Shape2DView
10
118.589000
20
118.157000
11
118.679373
21
117.709368
0
LINE
8
Shape2DView
10
118.679373
20
117.709368
11
118.925827
21
117.343827
0
LINE
8
Shape2DView
10
118.925827
20
117.343827
11
119.291368
21
117.097373
0
LINE
8
Shape2DView
10
119.291368
20
117.097373
11
119.739000
21
117.007000
0
LINE
8
Shape2DView
10
119.739000
20
117.007000
11
120.186632
21
117.097373
0
LINE
8
Shape2DView
10
120.186632
20
117.097373
11
120.552173
21
117.343827
0
LINE
8
Shape2DView
10
120.552173
20
117.343827
11
120.798627
21
117.709368
0
LINE
8
Shape2DView
10
120.798627
20
117.709368
11
120.889000
21
118.157000
0
LINE
8
Shape2DView
10
120.889000
20
118.157000
11
120.889000
21
118.157000
0
LINE
8
Shape2DView
10
137.439000
20
105.358000
11
147.039000
21
105.358000
0
LINE
8
Shape2DView
10
136.939000
20
105.857000
11
137.085446
21
105.503448
0
LINE
8
Shape2DView
10
137.085446
20
105.503448
11
137.438998
21
105.357002
0
LINE
8
Shape2DView
10
147.039000
20
105.357000
11
147.392552
21
105.503446
0
LINE
8
Shape2DView
10
147.392552
20
105.503446
11
147.538998
21
105.856998
0
LINE
8
Shape2DView
10
136.939000
20
115.457000
11
136.939000
21
105.858000
0
LINE
8
Shape2DView
10
147.539000
20
105.858000
11
147.539000
21
115.457000
0
LINE
8
Shape2DView
10
137.439000
20
115.957000
11
137.085447
21
115.810553
0
LINE
8
Shape2DView
10
137.085447
20
115.810553
11
136.939002
21
115.456999
0
LINE
8
Shape2DView
10
147.539000
20
115.457000
11
147.392555
21
115.810554
0
LINE
8
Shape2DView
10
147.392555
20
115.810554
11
147.039002
21
115.957001
0
LINE
8
Shape2DView
10
147.039000
20
115.957000
11
137.439000
21
115.957000
0
LINE
8
Shape2DView
10
150.889000
20
118.157000
11
150.734929
21
118.732000
0
LINE
8
Shape2DView
10
150.734929
20
118.732000
11
150.314000
21
119.152929
0
LINE
8
Shape2DView
10
150.314000
20
119.152929
11
149.739000
21
119.307000
0
LINE
8
Shape2DView
10
149.739000
20
119.307000
11
149.164000
21
119.152929
0
LINE
8
Shape2DView
10
149.164000
20
119.152929
11
148.743071
21
118.732000
0
LINE
8
Shape2DView
10
148.743071
20
118.732000
11
148.589000
21
118.157000
0
LINE
8
Shape2DView
10
148.589000
20
118.157000
11
148.743071
21
117.582000
0
LINE
8
Shape2DView
10
148.743071
20
117.582000
11
149.164000
21
117.161071
0
LINE
8
Shape2DView
10
149.164000
20
117.161071
11
149.739000
21
117.007000
0
LINE
8
Shape2DView
10
149.739000
20
117.007000
11
150.314000
21
117.161071
0
LINE
8
Shape2DView
10
150.314000
20
117.161071
11
150.734929
21
117.582000
0
LINE
8
Shape2DView
10
150.734929
20
117.582000
11
150.889000
21
118.157000
0
LINE
8
Shape2DView
10
150.889000
20
118.157000
11
150.889000
21
118.157000
0
LINE
8
Shape2DView
10
107.439000
20
120.357000
11
117.039000
21
120.357000
0
LINE
8
Shape2DView
10
106.939000
20
120.857000
11
107.085447
21
120.503447
0
LINE
8
Shape2DView
10
107.085447
20
120.503447
11
107.439001
21
120.357002
0
LINE
8
Shape2DView
10
117.039000
20
120.357000
11
117.392552
21
120.503446
0
LINE
8
Shape2DView
10
117.392552
20
120.503446
11
117.538998
21
120.856998
0
LINE
8
Shape2DView
10
106.939000
20
130.456000
11
106.939000
21
120.857000
0
LINE
8
Shape2DView
10
117.539000
20
120.857000
11
117.539000
21
130.456000
0
LINE
8
Shape2DView
10
107.439000
20
130.957000
11
107.085446
21
130.810555
0
LINE
8
Shape2DView
10
107.085446
20
130.810555
11
106.938999
21
130.457002
0
LINE
8
Shape2DView
10
117.539000
20
130.457000
11
117.392554
21
130.810552
0
LINE
8
Shape2DView
10
117.392554
20
130.810552
11
117.039002
21
130.956998
0
LINE
8
Shape2DView
10
117.039000
20
130.956000
11
107.439000
21
130.956000
0
LINE
8
Shape2DView
10
122.439000
20
120.357000
11
132.039000
21
120.357000
0
LINE
8
Shape2DView
10
121.939000
20
120.857000
11
122.085446
21
120.503448
0
LINE
8
Shape2DView
10
122.085446
20
120.503448
11
122.438998
21
120.357002
0
LINE
8
Shape2DView
10
132.039000
20
120.357000
11
132.392554
21
120.503445
0
LINE
8
Shape2DView
10
132.392554
20
120.503445
11
132.539001
21
120.856998
0
LINE
8
Shape2DView
10
121.939000
20
130.456000
11
121.939000
21
120.857000
0
LINE
8
Shape2DView
10
132.539000
20
120.857000
11
132.539000
21
130.456000
0
LINE
8
Shape2DView
10
122.439000
20
130.957000
11
122.085448
21
130.810554
0
LINE
8
Shape2DView
10
122.085448
20
130.810554
11
121.939002
21
130.457002
0
LINE
8
Shape2DView
10
132.539000
20
130.457000
11
132.392553
21
130.810553
0
LINE
8
Shape2DView
10
132.392553
20
130.810553
11
132.038999
21
130.956998
0
LINE
8
Shape2DView
10
132.039000
20
130.956000
11
122.439000
21
130.956000
0
LINE
8
Shape2DView
10
107.439000
20
135.356000
11
117.039000
21
135.356000
0
LINE
8
Shape2DView
10
106.939000
20
135.857000
11
107.085446
21
135.503445
0
LINE
8
Shape2DView
10
107.085446
20
135.503445
11
107.439001
21
135.356999
0
LINE
8
Shape2DView
10
117.039000
20
135.357000
11
117.392553
21
135.503447
0
LINE
8
Shape2DView
10
117.392553
20
135.503447
11
117.538998
21
135.857001
0
LINE
8
Shape2DView
10
106.939000
20
145.457000
11
106.939000
21
135.856000
0
LINE
8
Shape2DView
10
117.539000
20
135.856000
11
117.539000
21
145.457000
0
LINE
8
Shape2DView
10
107.439000
20
145.957000
11
107.085446
21
145.810555
0
LINE
8
Shape2DView
10
107.085446
20
145.810555
11
106.938999
21
145.457002
0
LINE
8
Shape2DView
10
117.539000
20
145.457000
11
117.392554
21
145.810552
0
LINE
8
Shape2DView
10
117.392554
20
145.810552
11
117.039002
21
145.956998
0
LINE
8
Shape2DView
10
117.039000
20
145.957000
11
107.439000
21
145.957000
0
LINE
8
Shape2DView
10
122.439000
20
135.356000
11
132.039000
21
135.356000
0
LINE
8
Shape2DView
10
121.939000
20
135.857000
11
122.085445
21
135.503446
0
LINE
8
Shape2DView
10
122.085445
20
135.503446
11
122.438998
21
135.356999
0
LINE
8
Shape2DView
10
132.039000
20
135.357000
11
132.392555
21
135.503446
0
LINE
8
Shape2DView
10
132.392555
20
135.503446
11
132.539001
21
135.857001
0
LINE
8
Shape2DView
10
121.939000
20
145.457000
11
121.939000
21
135.856000
0
LINE
8
Shape2DView
10
132.539000
20
135.856000
11
132.539000
21
145.457000
0
LINE
8
Shape2DView
10
122.439000
20
145.957000
11
122.085448
21
145.810554
0
LINE
8
Shape2DView
10
122.085448
20
145.810554
11
121.939002
21
145.457002
0
LINE
8
Shape2DView
10
132.539000
20
145.457000
11
132.392553
21
145.810553
0
LINE
8
Shape2DView
10
132.392553
20
145.810553
11
132.038999
21
145.956998
0
LINE
8
Shape2DView
10
132.039000
20
145.957000
11
122.439000
21
145.957000
0
LINE
8
Shape2DView
10
137.439000
20
120.357000
11
147.039000
21
120.357000
0
LINE
8
Shape2DView
10
136.939000
20
120.857000
11
137.085446
21
120.503448
0
LINE
8
Shape2DView
10
137.085446
20
120.503448
11
137.438998
21
120.357002
0
LINE
8
Shape2DView
10
147.039000
20
120.357000
11
147.392552
21
120.503446
0
LINE
8
Shape2DView
10
147.392552
20
120.503446
11
147.538998
21
120.856998
0
LINE
8
Shape2DView
10
136.939000
20
130.456000
11
136.939000
21
120.857000
0
LINE
8
Shape2DView
10
147.539000
20
120.857000
11
147.539000
21
130.456000
0
LINE
8
Shape2DView
10
137.439000
20
130.957000
11
137.085448
21
130.810554
0
LINE
8
Shape2DView
10
137.085448
20
130.810554
11
136.939002
21
130.457002
0
LINE
8
Shape2DView
10
147.539000
20
130.457000
11
147.392554
21
130.810552
0
LINE
8
Shape2DView
10
147.392554
20
130.810552
11
147.039002
21
130.956998
0
LINE
8
Shape2DView
10
147.039000
20
130.956000
11
137.439000
21
130.956000
0
LINE
8
Shape2DView
10
137.439000
20
135.356000
11
147.039000
21
135.356000
0
LINE
8
Shape2DView
10
136.939000
20
135.857000
11
137.085445
21
135.503446
0
LINE
8
Shape2DView
10
137.085445
20
135.503446
11
137.438998
21
135.356999
0
LINE
8
Shape2DView
10
147.039000
20
135.357000
11
147.392553
21
135.503447
0
LINE
8
Shape2DView
10
147.392553
20
135.503447
11
147.538998
21
135.857001
0
LINE
8
Shape2DView
10
136.939000
20
145.457000
11
136.939000
21
135.856000
0
LINE
8
Shape2DView
10
147.539000
20
135.856000
11
147.539000
21
145.457000
0
LINE
8
Shape2DView
10
137.439000
20
145.957000
11
137.085448
21
145.810554
0
LINE
8
Shape2DView
10
137.085448
20
145.810554
11
136.939002
21
145.457002
0
LINE
8
Shape2DView
10
147.539000
20
145.457000
11
147.392554
21
145.810552
0
LINE
8
Shape2DView
10
147.392554
20
145.810552
11
147.039002
21
145.956998
0
LINE
8
Shape2DView
10
147.039000
20
145.957000
11
137.439000
21
145.957000
0
LINE
8
Shape2DView
10
152.439000
20
105.358000
11
162.039000
21
105.358000
0
LINE
8
Shape2DView
10
151.939000
20
105.857000
11
152.085447
21
105.503447
0
LINE
8
Shape2DView
10
152.085447
20
105.503447
11
152.439001
21
105.357002
0
LINE
8
Shape2DView
10
162.039000
20
105.357000
11
162.392552
21
105.503446
0
LINE
8
Shape2DView
10
162.392552
20
105.503446
11
162.538998
21
105.856998
0
LINE
8
Shape2DView
10
151.939000
20
115.457000
11
151.939000
21
105.858000
0
LINE
8
Shape2DView
10
162.539000
20
105.858000
11
162.539000
21
115.457000
0
LINE
8
Shape2DView
10
152.439000
20
115.957000
11
152.085445
21
115.810554
0
LINE
8
Shape2DView
10
152.085445
20
115.810554
11
151.938999
21
115.456999
0
LINE
8
Shape2DView
10
162.539000
20
115.457000
11
162.392555
21
115.810554
0
LINE
8
Shape2DView
10
162.392555
20
115.810554
11
162.039002
21
115.957001
0
LINE
8
Shape2DView
10
162.039000
20
115.957000
11
152.439000
21
115.957000
0
LINE
8
Shape2DView
10
167.439000
20
105.358000
11
177.039000
21
105.358000
0
LINE
8
Shape2DView
10
166.939000
20
105.857000
11
167.085446
21
105.503448
0
LINE
8
Shape2DView
10
167.085446
20
105.503448
11
167.438998
21
105.357002
0
LINE
8
Shape2DView
10
177.039000
20
105.357000
11
177.392554
21
105.503445
0
LINE
8
Shape2DView
10
177.392554
20
105.503445
11
177.539001
21
105.856998
0
LINE
8
Shape2DView
10
166.939000
20
115.457000
11
166.939000
21
105.858000
0
LINE
8
Shape2DView
10
177.539000
20
105.858000
11
177.539000
21
115.457000
0
LINE
8
Shape2DView
10
167.439000
20
115.957000
11
167.085447
21
115.810553
0
LINE
8
Shape2DView
10
167.085447
20
115.810553
11
166.939002
21
115.456999
0
LINE
8
Shape2DView
10
177.539000
20
115.457000
11
177.392554
21
115.810555
0
LINE
8
Shape2DView
10
177.392554
20
115.810555
11
177.038999
21
115.957001
0
LINE
8
Shape2DView
10
177.039000
20
115.957000
11
167.439000
21
115.957000
0
LINE
8
Shape2DView
10
199.639000
20
99.406900
11
199.484929
21
99.981900
0
LINE
8
Shape2DView
10
199.484929
20
99.981900
11
199.064000
21
100.402829
0
LINE
8
Shape2DView
10
199.064000
20
100.402829
11
198.489000
21
100.556900
0
LINE
8
Shape2DView
10
198.489000
20
100.556900
11
197.914000
21
100.402829
0
LINE
8
Shape2DView
10
197.914000
20
100.402829
11
197.493071
21
99.981900
0
LINE
8
Shape2DView
10
197.493071
20
99.981900
11
197.339000
21
99.406900
0
LINE
8
Shape2DView
10
197.339000
20
99.406900
11
197.493071
21
98.831900
0
LINE
8
Shape2DView
10
197.493071
20
98.831900
11
197.914000
21
98.410971
0
LINE
8
Shape2DView
10
197.914000
20
98.410971
11
198.489000
21
98.256900
0
LINE
8
Shape2DView
10
198.489000
20
98.256900
11
199.064000
21
98.410971
0
LINE
8
Shape2DView
10
199.064000
20
98.410971
11
199.484929
21
98.831900
0
LINE
8
Shape2DView
10
199.484929
20
98.831900
11
199.639000
21
99.406900
0
LINE
8
Shape2DView
10
199.639000
20
99.406900
11
199.639000
21
99.406900
0
LINE
8
Shape2DView
10
182.439000
20
105.358000
11
192.039000
21
105.358000
0
LINE
8
Shape2DView
10
181.939000
20
105.857000
11
182.085446
21
105.503448
0
LINE
8
Shape2DView
10
182.085446
20
105.503448
11
182.438998
21
105.357002
0
LINE
8
Shape2DView
10
192.039000
20
105.357000
11
192.392552
21
105.503446
0
LINE
8
Shape2DView
10
192.392552
20
105.503446
11
192.538998
21
105.856998
0
LINE
8
Shape2DView
10
181.939000
20
115.457000
11
181.939000
21
105.858000
0
LINE
8
Shape2DView
10
192.539000
20
105.858000
11
192.539000
21
115.457000
0
LINE
8
Shape2DView
10
182.439000
20
115.957000
11
182.085447
21
115.810553
0
LINE
8
Shape2DView
10
182.085447
20
115.810553
11
181.939002
21
115.456999
0
LINE
8
Shape2DView
10
192.539000
20
115.457000
11
192.392555
21
115.810554
0
LINE
8
Shape2DView
10
192.392555
20
115.810554
11
192.039002
21
115.957001
0
LINE
8
Shape2DView
10
192.039000
20
115.957000
11
182.439000
21
115.957000
0
LINE
8
Shape2DView
10
180.889000
20
118.157000
11
180.734929
21
118.732000
0
LINE
8
Shape2DView
10
180.734929
20
118.732000
11
180.314000
21
119.152929
0
LINE
8
Shape2DView
10
180.314000
20
119.152929
11
179.739000
21
119.307000
0
LINE
8
Shape2DView
10
179.739000
20
119.307000
11
179.164000
21
119.152929
0
LINE
8
Shape2DView
10
179.164000
20
119.152929
11
178.743071
21
118.732000
0
LINE
8
Shape2DView
10
178.743071
20
118.732000
11
178.589000
21
118.157000
0
LINE
8
Shape2DView
10
178.589000
20
118.157000
11
178.743071
21
117.582000
0
LINE
8
Shape2DView
10
178.743071
20
117.582000
11
179.164000
21
117.161071
0
LINE
8
Shape2DView
10
179.164000
20
117.161071
11
179.739000
21
117.007000
0
LINE
8
Shape2DView
10
179.739000
20
117.007000
11
180.314000
21
117.161071
0
LINE
8
Shape2DView
10
180.314000
20
117.161071
11
180.734929
21
117.582000
0
LINE
8
Shape2DView
10
180.734929
20
117.582000
11
180.889000
21
118.157000
0
LINE
8
Shape2DView
10
180.889000
20
118.157000
11
180.889000
21
118.157000
0
LINE
8
Shape2DView
10
152.439000
20
120.357000
11
162.039000
21
120.357000
0
LINE
8
Shape2DView
10
151.939000
20
120.857000
11
152.085447
21
120.503447
0
LINE
8
Shape2DView
10
152.085447
20
120.503447
11
152.439001
21
120.357002
0
LINE
8
Shape2DView
10
162.039000
20
120.357000
11
162.392552
21
120.503446
0
LINE
8
Shape2DView
10
162.392552
20
120.503446
11
162.538998
21
120.856998
0
LINE
8
Shape2DView
10
151.939000
20
130.456000
11
151.939000
21
120.857000
0
LINE
8
Shape2DView
10
162.539000
20
120.857000
11
162.539000
21
130.456000
0
LINE
8
Shape2DView
10
152.439000
20
130.957000
11
152.085446
21
130.810555
0
LINE
8
Shape2DView
10
152.085446
20
130.810555
11
151.938999
21
130.457002
0
LINE
8
Shape2DView
10
162.539000
20
130.457000
11
162.392554
21
130.810552
0
LINE
8
Shape2DView
10
162.392554
20
130.810552
11
162.039002
21
130.956998
0
LINE
8
Shape2DView
10
162.039000
20
130.956000
11
152.439000
21
130.956000
0
LINE
8
Shape2DView
10
167.439000
20
120.357000
11
177.039000
21
120.357000
0
LINE
8
Shape2DView
10
166.939000
20
120.857000
11
167.085446
21
120.503448
0
LINE
8
Shape2DView
10
167.085446
20
120.503448
11
167.438998
21
120.357002
0
LINE
8
Shape2DView
10
177.039000
20
120.357000
11
177.392554
21
120.503445
0
LINE
8
Shape2DView
10
177.392554
20
120.503445
11
177.539001
21
120.856998
0
LINE
8
Shape2DView
10
166.939000
20
130.456000
11
166.939000
21
120.857000
0
LINE
8
Shape2DView
10
177.539000
20
120.857000
11
177.539000
21
130.456000
0
LINE
8
Shape2DView
10
167.439000
20
130.957000
11
167.085448
21
130.810554
0
LINE
8
Shape2DView
10
167.085448
20
130.810554
11
166.939002
21
130.457002
0
LINE
8
Shape2DView
10
177.539000
20
130.457000
11
177.392553
21
130.810553
0
LINE
8
Shape2DView
10
177.392553
20
130.810553
11
177.038999
21
130.956998
0
LINE
8
Shape2DView
10
177.039000
20
130.956000
11
167.439000
21
130.956000
0
LINE
8
Shape2DView
10
152.439000
20
135.356000
11
162.039000
21
135.356000
0
LINE
8
Shape2DView
10
151.939000
20
135.857000
11
152.085446
21
135.503445
0
LINE
8
Shape2DView
10
152.085446
20
135.503445
11
152.439001
21
135.356999
0
LINE
8
Shape2DView
10
162.039000
20
135.357000
11
162.392553
21
135.503447
0
LINE
8
Shape2DView
10
162.392553
20
135.503447
11
162.538998
21
135.857001
0
LINE
8
Shape2DView
10
151.939000
20
145.457000
11
151.939000
21
135.856000
0
LINE
8
Shape2DView
10
162.539000
20
135.856000
11
162.539000
21
145.457000
0
LINE
8
Shape2DView
10
152.439000
20
145.957000
11
152.085446
21
145.810555
0
LINE
8
Shape2DView
10
152.085446
20
145.810555
11
151.938999
21
145.457002
0
LINE
8
Shape2DView
10
162.539000
20
145.457000
11
162.392554
21
145.810552
0
LINE
8
Shape2DView
10
162.392554
20
145.810552
11
162.039002
21
145.956998
0
LINE
8
Shape2DView
10
162.039000
20
145.957000
11
152.439000
21
145.957000
0
LINE
8
Shape2DView
10
167.439000
20
135.356000
11
177.039000
21
135.356000
0
LINE
8
Shape2DView
10
166.939000
20
135.857000
11
167.085445
21
135.503446
0
LINE
8
Shape2DView
10
167.085445
20
135.503446
11
167.438998
21
135.356999
0
LINE
8
Shape2DView
10
177.039000
20
135.357000
11
177.392555
21
135.503446
0
LINE
8
Shape2DView
10
177.392555
20
135.503446
11
177.539001
21
135.857001
0
LINE
8
Shape2DView
10
166.939000
20
145.457000
11
166.939000
21
135.856000
0
LINE
8
Shape2DView
10
177.539000
20
135.856000
11
177.539000
21
145.457000
0
LINE
8
Shape2DView
10
167.439000
20
145.957000
11
167.085448
21
145.810554
0
LINE
8
Shape2DView
10
167.085448
20
145.810554
11
166.939002
21
145.457002
0
LINE
8
Shape2DView
10
177.539000
20
145.457000
11
177.392553
21
145.810553
0
LINE
8
Shape2DView
10
177.392553
20
145.810553
11
177.038999
21
145.956998
0
LINE
8
Shape2DView
10
177.039000
20
145.957000
11
167.439000
21
145.957000
0
LINE
8
Shape2DView
10
182.439000
20
120.357000
11
192.039000
21
120.357000
0
LINE
8
Shape2DView
10
181.939000
20
120.857000
11
182.085446
21
120.503448
0
LINE
8
Shape2DView
10
182.085446
20
120.503448
11
182.438998
21
120.357002
0
LINE
8
Shape2DView
10
192.039000
20
120.357000
11
192.392552
21
120.503446
0
LINE
8
Shape2DView
10
192.392552
20
120.503446
11
192.538998
21
120.856998
0
LINE
8
Shape2DView
10
181.939000
20
130.456000
11
181.939000
21
120.857000
0
LINE
8
Shape2DView
10
192.539000
20
120.857000
11
192.539000
21
130.456000
0
LINE
8
Shape2DView
10
182.439000
20
130.957000
11
182.085448
21
130.810554
0
LINE
8
Shape2DView
10
182.085448
20
130.810554
11
181.939002
21
130.457002
0
LINE
8
Shape2DView
10
192.539000
20
130.457000
11
192.392554
21
130.810552
0
LINE
8
Shape2DView
10
192.392554
20
130.810552
11
192.039002
21
130.956998
0
LINE
8
Shape2DView
10
192.039000
20
130.956000
11
182.439000
21
130.956000
0
LINE
8
Shape2DView
10
182.439000
20
135.356000
11
192.039000
21
135.356000
0
LINE
8
Shape2DView
10
181.939000
20
135.857000
11
182.085445
21
135.503446
0
LINE
8
Shape2DView
10
182.085445
20
135.503446
11
182.438998
21
135.356999
0
LINE
8
Shape2DView
10
192.039000
20
135.357000
11
192.392553
21
135.503447
0
LINE
8
Shape2DView
10
192.392553
20
135.503447
11
192.538998
21
135.857001
0
LINE
8
Shape2DView
10
181.939000
20
145.457000
11
181.939000
21
135.856000
0
LINE
8
Shape2DView
10
192.539000
20
135.856000
11
192.539000
21
145.457000
0
LINE
8
Shape2DView
10
182.439000
20
145.957000
11
182.085448
21
145.810554
0
LINE
8
Shape2DView
10
182.085448
20
145.810554
11
181.939002
21
145.457002
0
LINE
8
Shape2DView
10
192.539000
20
145.457000
11
192.392554
21
145.810552
0
LINE
8
Shape2DView
10
192.392554
20
145.810552
11
192.039002
21
145.956998
0
LINE
8
Shape2DView
10
192.039000
20
145.957000
11
182.439000
21
145.957000
0
LINE
8
Shape2DView
10
107.439000
20
150.357000
11
117.039000
21
150.357000
0
LINE
8
Shape2DView
10
106.939000
20
150.857000
11
107.085447
21
150.503447
0
LINE
8
Shape2DView
10
107.085447
20
150.503447
11
107.439001
21
150.357002
0
LINE
8
Shape2DView
10
117.039000
20
150.357000
11
117.392552
21
150.503446
0
LINE
8
Shape2DView
10
117.392552
20
150.503446
11
117.538998
21
150.856998
0
LINE
8
Shape2DView
10
106.939000
20
160.457000
11
106.939000
21
150.857000
0
LINE
8
Shape2DView
10
117.539000
20
150.857000
11
117.539000
21
160.457000
0
LINE
8
Shape2DView
10
107.439000
20
160.957000
11
107.085445
21
160.810554
0
LINE
8
Shape2DView
10
107.085445
20
160.810554
11
106.938999
21
160.456999
0
LINE
8
Shape2DView
10
117.539000
20
160.457000
11
117.392555
21
160.810554
0
LINE
8
Shape2DView
10
117.392555
20
160.810554
11
117.039002
21
160.957001
0
LINE
8
Shape2DView
10
117.039000
20
160.957000
11
107.439000
21
160.957000
0
LINE
8
Shape2DView
10
120.889000
20
148.157000
11
120.734929
21
148.732000
0
LINE
8
Shape2DView
10
120.734929
20
148.732000
11
120.314000
21
149.152929
0
LINE
8
Shape2DView
10
120.314000
20
149.152929
11
119.739000
21
149.307000
0
LINE
8
Shape2DView
10
119.739000
20
149.307000
11
119.164000
21
149.152929
0
LINE
8
Shape2DView
10
119.164000
20
149.152929
11
118.743071
21
148.732000
0
LINE
8
Shape2DView
10
118.743071
20
148.732000
11
118.589000
21
148.157000
0
LINE
8
Shape2DView
10
118.589000
20
148.157000
11
118.679373
21
147.709368
0
LINE
8
Shape2DView
10
118.679373
20
147.709368
11
118.925827
21
147.343827
0
LINE
8
Shape2DView
10
118.925827
20
147.343827
11
119.291368
21
147.097373
0
LINE
8
Shape2DView
10
119.291368
20
147.097373
11
119.739000
21
147.007000
0
LINE
8
Shape2DView
10
119.739000
20
147.007000
11
120.186632
21
147.097373
0
LINE
8
Shape2DView
10
120.186632
20
147.097373
11
120.552173
21
147.343827
0
LINE
8
Shape2DView
10
120.552173
20
147.343827
11
120.798627
21
147.709368
0
LINE
8
Shape2DView
10
120.798627
20
147.709368
11
120.889000
21
148.157000
0
LINE
8
Shape2DView
10
120.889000
20
148.157000
11
120.889000
21
148.157000
0
LINE
8
Shape2DView
10
122.439000
20
150.357000
11
132.039000
21
150.357000
0
LINE
8
Shape2DView
10
121.939000
20
150.857000
11
122.085446
21
150.503448
0
LINE
8
Shape2DView
10
122.085446
20
150.503448
11
122.438998
21
150.357002
0
LINE
8
Shape2DView
10
132.039000
20
150.357000
11
132.392554
21
150.503445
0
LINE
8
Shape2DView
10
132.392554
20
150.503445
11
132.539001
21
150.856998
0
LINE
8
Shape2DView
10
121.939000
20
160.457000
11
121.939000
21
150.857000
0
LINE
8
Shape2DView
10
132.539000
20
150.857000
11
132.539000
21
160.457000
0
LINE
8
Shape2DView
10
122.439000
20
160.957000
11
122.085447
21
160.810553
0
LINE
8
Shape2DView
10
122.085447
20
160.810553
11
121.939002
21
160.456999
0
LINE
8
Shape2DView
10
132.539000
20
160.457000
11
132.392554
21
160.810555
0
LINE
8
Shape2DView
10
132.392554
20
160.810555
11
132.038999
21
160.957001
0
LINE
8
Shape2DView
10
132.039000
20
160.957000
11
122.439000
21
160.957000
0
LINE
8
Shape2DView
10
150.889000
20
148.157000
11
150.734929
21
148.732000
0
LINE
8
Shape2DView
10
150.734929
20
148.732000
11
150.314000
21
149.152929
0
LINE
8
Shape2DView
10
150.314000
20
149.152929
11
149.739000
21
149.307000
0
LINE
8
Shape2DView
10
149.739000
20
149.307000
11
149.164000
21
149.152929
0
LINE
8
Shape2DView
10
149.164000
20
149.152929
11
148.743071
21
148.732000
0
LINE
8
Shape2DView
10
148.743071
20
148.732000
11
148.589000
21
148.157000
0
LINE
8
Shape2DView
10
148.589000
20
148.157000
11
148.743071
21
147.582000
0
LINE
8
Shape2DView
10
148.743071
20
147.582000
11
149.164000
21
147.161071
0
LINE
8
Shape2DView
10
149.164000
20
147.161071
11
149.739000
21
147.007000
0
LINE
8
Shape2DView
10
149.739000
20
147.007000
11
150.314000
21
147.161071
0
LINE
8
Shape2DView
10
150.314000
20
147.161071
11
150.734929
21
147.582000
0
LINE
8
Shape2DView
10
150.734929
20
147.582000
11
150.889000
21
148.157000
0
LINE
8
Shape2DView
10
150.889000
20
148.157000
11
150.889000
21
148.157000
0
LINE
8
Shape2DView
10
137.439000
20
150.357000
11
147.039000
21
150.357000
0
LINE
8
Shape2DView
10
136.939000
20
150.857000
11
137.085446
21
150.503448
0
LINE
8
Shape2DView
10
137.085446
20
150.503448
11
137.438998
21
150.357002
0
LINE
8
Shape2DView
10
147.039000
20
150.357000
11
147.392552
21
150.503446
0
LINE
8
Shape2DView
10
147.392552
20
150.503446
11
147.538998
21
150.856998
0
LINE
8
Shape2DView
10
136.939000
20
160.457000
11
136.939000
21
150.857000
0
LINE
8
Shape2DView
10
147.539000
20
150.857000
11
147.539000
21
160.457000
0
LINE
8
Shape2DView
10
137.439000
20
160.957000
11
137.085447
21
160.810553
0
LINE
8
Shape2DView
10
137.085447
20
160.810553
11
136.939002
21
160.456999
0
LINE
8
Shape2DView
10
147.539000
20
160.457000
11
147.392555
21
160.810554
0
LINE
8
Shape2DView
10
147.392555
20
160.810554
11
147.039002
21
160.957001
0
LINE
8
Shape2DView
10
147.039000
20
160.957000
11
137.439000
21
160.957000
0
LINE
8
Shape2DView
10
107.439000
20
165.357000
11
117.039000
21
165.357000
0
LINE
8
Shape2DView
10
106.939000
20
165.857000
11
107.085447
21
165.503447
0
LINE
8
Shape2DView
10
107.085447
20
165.503447
11
107.439001
21
165.357002
0
LINE
8
Shape2DView
10
117.039000
20
165.357000
11
117.392552
21
165.503446
0
LINE
8
Shape2DView
10
117.392552
20
165.503446
11
117.538998
21
165.856998
0
LINE
8
Shape2DView
10
106.939000
20
175.457000
11
106.939000
21
165.857000
0
LINE
8
Shape2DView
10
117.539000
20
165.857000
11
117.539000
21
175.457000
0
LINE
8
Shape2DView
10
107.439000
20
175.957000
11
107.085446
21
175.810555
0
LINE
8
Shape2DView
10
107.085446
20
175.810555
11
106.938999
21
175.457002
0
LINE
8
Shape2DView
10
117.539000
20
175.457000
11
117.392554
21
175.810552
0
LINE
8
Shape2DView
10
117.392554
20
175.810552
11
117.039002
21
175.956998
0
LINE
8
Shape2DView
10
117.039000
20
175.957000
11
107.439000
21
175.957000
0
LINE
8
Shape2DView
10
122.439000
20
165.357000
11
132.039000
21
165.357000
0
LINE
8
Shape2DView
10
121.939000
20
165.857000
11
122.085446
21
165.503448
0
LINE
8
Shape2DView
10
122.085446
20
165.503448
11
122.438998
21
165.357002
0
LINE
8
Shape2DView
10
132.039000
20
165.357000
11
132.392554
21
165.503445
0
LINE
8
Shape2DView
10
132.392554
20
165.503445
11
132.539001
21
165.856998
0
LINE
8
Shape2DView
10
121.939000
20
175.457000
11
121.939000
21
165.857000
0
LINE
8
Shape2DView
10
132.539000
20
165.857000
11
132.539000
21
175.457000
0
LINE
8
Shape2DView
10
122.439000
20
175.957000
11
122.085448
21
175.810554
0
LINE
8
Shape2DView
10
122.085448
20
175.810554
11
121.939002
21
175.457002
0
LINE
8
Shape2DView
10
132.539000
20
175.457000
11
132.392553
21
175.810553
0
LINE
8
Shape2DView
10
132.392553
20
175.810553
11
132.038999
21
175.956998
0
LINE
8
Shape2DView
10
132.039000
20
175.957000
11
122.439000
21
175.957000
0
LINE
8
Shape2DView
10
120.889000
20
178.157000
11
120.734929
21
178.732000
0
LINE
8
Shape2DView
10
120.734929
20
178.732000
11
120.314000
21
179.152929
0
LINE
8
Shape2DView
10
120.314000
20
179.152929
11
119.739000
21
179.307000
0
LINE
8
Shape2DView
10
119.739000
20
179.307000
11
119.164000
21
179.152929
0
LINE
8
Shape2DView
10
119.164000
20
179.152929
11
118.743071
21
178.732000
0
LINE
8
Shape2DView
10
118.743071
20
178.732000
11
118.589000
21
178.157000
0
LINE
8
Shape2DView
10
118.589000
20
178.157000
11
118.679373
21
177.709368
0
LINE
8
Shape2DView
10
118.679373
20
177.709368
11
118.925827
21
177.343827
0
LINE
8
Shape2DView
10
118.925827
20
177.343827
11
119.291368
21
177.097373
0
LINE
8
Shape2DView
10
119.291368
20
177.097373
11
119.739000
21
177.007000
0
LINE
8
Shape2DView
10
119.739000
20
177.007000
11
120.186632
21
177.097373
0
LINE
8
Shape2DView
10
120.186632
20
177.097373
11
120.552173
21
177.343827
0
LINE
8
Shape2DView
10
120.552173
20
177.343827
11
120.798627
21
177.709368
0
LINE
8
Shape2DView
10
120.798627
20
177.709368
11
120.889000
21
178.157000
0
LINE
8
Shape2DView
10
120.889000
20
178.157000
11
120.889000
21
178.157000
0
LINE
8
Shape2DView
10
107.439000
20
180.357000
11
117.039000
21
180.357000
0
LINE
8
Shape2DView
10
106.939000
20
180.857000
11
107.085446
21
180.503445
0
LINE
8
Shape2DView
10
107.085446
20
180.503445
11
107.439001
21
180.356999
0
LINE
8
Shape2DView
10
117.039000
20
180.357000
11
117.392553
21
180.503447
0
LINE
8
Shape2DView
10
117.392553
20
180.503447
11
117.538998
21
180.857001
0
LINE
8
Shape2DView
10
106.939000
20
190.457000
11
106.939000
21
180.857000
0
LINE
8
Shape2DView
10
117.539000
20
180.857000
11
117.539000
21
190.457000
0
LINE
8
Shape2DView
10
107.439000
20
190.957000
11
107.085446
21
190.810555
0
LINE
8
Shape2DView
10
107.085446
20
190.810555
11
106.938999
21
190.457002
0
LINE
8
Shape2DView
10
117.539000
20
190.457000
11
117.392554
21
190.810552
0
LINE
8
Shape2DView
10
117.392554
20
190.810552
11
117.039002
21
190.956998
0
LINE
8
Shape2DView
10
117.039000
20
190.957000
11
107.439000
21
190.957000
0
LINE
8
Shape2DView
10
122.439000
20
180.357000
11
132.039000
21
180.357000
0
LINE
8
Shape2DView
10
121.939000
20
180.857000
11
122.085445
21
180.503446
0
LINE
8
Shape2DView
10
122.085445
20
180.503446
11
122.438998
21
180.356999
0
LINE
8
Shape2DView
10
132.039000
20
180.357000
11
132.392555
21
180.503446
0
LINE
8
Shape2DView
10
132.392555
20
180.503446
11
132.539001
21
180.857001
0
LINE
8
Shape2DView
10
121.939000
20
190.457000
11
121.939000
21
180.857000
0
LINE
8
Shape2DView
10
132.539000
20
180.857000
11
132.539000
21
190.457000
0
LINE
8
Shape2DView
10
122.439000
20
190.957000
11
122.085448
21
190.810554
0
LINE
8
Shape2DView
10
122.085448
20
190.810554
11
121.939002
21
190.457002
0
LINE
8
Shape2DView
10
132.539000
20
190.457000
11
132.392553
21
190.810553
0
LINE
8
Shape2DView
10
132.392553
20
190.810553
11
132.038999
21
190.956998
0
LINE
8
Shape2DView
10
132.039000
20
190.957000
11
122.439000
21
190.957000
0
LINE
8
Shape2DView
10
137.439000
20
165.357000
11
147.039000
21
165.357000
0
LINE
8
Shape2DView
10
136.939000
20
165.857000
11
137.085446
21
165.503448
0
LINE
8
Shape2DView
10
137.085446
20
165.503448
11
137.438998
21
165.357002
0
LINE
8
Shape2DView
10
147.039000
20
165.357000
11
147.392552
21
165.503446
0
LINE
8
Shape2DView
10
147.392552
20
165.503446
11
147.538998
21
165.856998
0
LINE
8
Shape2DView
10
136.939000
20
175.457000
11
136.939000
21
165.857000
0
LINE
8
Shape2DView
10
147.539000
20
165.857000
11
147.539000
21
175.457000
0
LINE
8
Shape2DView
10
137.439000
20
175.957000
11
137.085448
21
175.810554
0
LINE
8
Shape2DView
10
137.085448
20
175.810554
11
136.939002
21
175.457002
0
LINE
8
Shape2DView
10
147.539000
20
175.457000
11
147.392554
21
175.810552
0
LINE
8
Shape2DView
10
147.392554
20
175.810552
11
147.039002
21
175.956998
0
LINE
8
Shape2DView
10
147.039000
20
175.957000
11
137.439000
21
175.957000
0
LINE
8
Shape2DView
10
150.889000
20
178.157000
11
150.734929
21
178.732000
0
LINE
8
Shape2DView
10
150.734929
20
178.732000
11
150.314000
21
179.152929
0
LINE
8
Shape2DView
10
150.314000
20
179.152929
11
149.739000
21
179.307000
0
LINE
8
Shape2DView
10
149.739000
20
179.307000
11
149.164000
21
179.152929
0
LINE
8
Shape2DView
10
149.164000
20
179.152929
11
148.743071
21
178.732000
0
LINE
8
Shape2DView
10
148.743071
20
178.732000
11
148.589000
21
178.157000
0
LINE
8
Shape2DView
10
148.589000
20
178.157000
11
148.743071
21
177.582000
0
LINE
8
Shape2DView
10
148.743071
20
177.582000
11
149.164000
21
177.161071
0
LINE
8
Shape2DView
10
149.164000
20
177.161071
11
149.739000
21
177.007000
0
LINE
8
Shape2DView
10
149.739000
20
177.007000
11
150.314000
21
177.161071
0
LINE
8
Shape2DView
10
150.314000
20
177.161071
11
150.734929
21
177.582000
0
LINE
8
Shape2DView
10
150.734929
20
177.582000
11
150.889000
21
178.157000
0
LINE
8
Shape2DView
10
150.889000
20
178.157000
11
150.889000
21
178.157000
0
LINE
8
Shape2DView
10
137.439000
20
180.357000
11
147.039000
21
180.357000
0
LINE
8
Shape2DView
10
136.939000
20
180.857000
11
137.085445
21
180.503446
0
LINE
8
Shape2DView
10
137.085445
20
180.503446
11
137.438998
21
180.356999
0
LINE
8
Shape2DView
10
147.039000
20
180.357000
11
147.392553
21
180.503447
0
LINE
8
Shape2DView
10
147.392553
20
180.503447
11
147.538998
21
180.857001
0
LINE
8
Shape2DView
10
136.939000
20
190.457000
11
136.939000
21
180.857000
0
LINE
8
Shape2DView
10
147.539000
20
180.857000
11
147.539000
21
190.457000
0
LINE
8
Shape2DView
10
137.439000
20
190.957000
11
137.085448
21
190.810554
0
LINE
8
Shape2DView
10
137.085448
20
190.810554
11
136.939002
21
190.457002
0
LINE
8
Shape2DView
10
147.539000
20
190.457000
11
147.392554
21
190.810552
0
LINE
8
Shape2DView
10
147.392554
20
190.810552
11
147.039002
21
190.956998
0
LINE
8
Shape2DView
10
147.039000
20
190.957000
11
137.439000
21
190.957000
0
LINE
8
Shape2DView
10
152.439000
20
150.357000
11
162.039000
21
150.357000
0
LINE
8
Shape2DView
10
151.939000
20
150.857000
11
152.085447
21
150.503447
0
LINE
8
Shape2DView
10
152.085447
20
150.503447
11
152.439001
21
150.357002
0
LINE
8
Shape2DView
10
162.039000
20
150.357000
11
162.392552
21
150.503446
0
LINE
8
Shape2DView
10
162.392552
20
150.503446
11
162.538998
21
150.856998
0
LINE
8
Shape2DView
10
151.939000
20
160.457000
11
151.939000
21
150.857000
0
LINE
8
Shape2DView
10
162.539000
20
150.857000
11
162.539000
21
160.457000
0
LINE
8
Shape2DView
10
152.439000
20
160.957000
11
152.085445
21
160.810554
0
LINE
8
Shape2DView
10
152.085445
20
160.810554
11
151.938999
21
160.456999
0
LINE
8
Shape2DView
10
162.539000
20
160.457000
11
162.392555
21
160.810554
0
LINE
8
Shape2DView
10
162.392555
20
160.810554
11
162.039002
21
160.957001
0
LINE
8
Shape2DView
10
162.039000
20
160.957000
11
152.439000
21
160.957000
0
LINE
8
Shape2DView
10
167.439000
20
150.357000
11
177.039000
21
150.357000
0
LINE
8
Shape2DView
10
166.939000
20
150.857000
11
167.085446
21
150.503448
0
LINE
8
Shape2DView
10
167.085446
20
150.503448
11
167.438998
21
150.357002
0
LINE
8
Shape2DView
10
177.039000
20
150.357000
11
177.392554
21
150.503445
0
LINE
8
Shape2DView
10
177.392554
20
150.503445
11
177.539001
21
150.856998
0
LINE
8
Shape2DView
10
166.939000
20
160.457000
11
166.939000
21
150.857000
0
LINE
8
Shape2DView
10
177.539000
20
150.857000
11
177.539000
21
160.457000
0
LINE
8
Shape2DView
10
167.439000
20
160.957000
11
167.085447
21
160.810553
0
LINE
8
Shape2DView
10
167.085447
20
160.810553
11
166.939002
21
160.456999
0
LINE
8
Shape2DView
10
177.539000
20
160.457000
11
177.392554
21
160.810555
0
LINE
8
Shape2DView
10
177.392554
20
160.810555
11
177.038999
21
160.957001
0
LINE
8
Shape2DView
10
177.039000
20
160.957000
11
167.439000
21
160.957000
0
LINE
8
Shape2DView
10
180.889000
20
148.157000
11
180.734929
21
148.732000
0
LINE
8
Shape2DView
10
180.734929
20
148.732000
11
180.314000
21
149.152929
0
LINE
8
Shape2DView
10
180.314000
20
149.152929
11
179.739000
21
149.307000
0
LINE
8
Shape2DView
10
179.739000
20
149.307000
11
179.164000
21
149.152929
0
LINE
8
Shape2DView
10
179.164000
20
149.152929
11
178.743071
21
148.732000
0
LINE
8
Shape2DView
10
178.743071
20
148.732000
11
178.589000
21
148.157000
0
LINE
8
Shape2DView
10
178.589000
20
148.157000
11
178.743071
21
147.582000
0
LINE
8
Shape2DView
10
178.743071
20
147.582000
11
179.164000
21
147.161071
0
LINE
8
Shape2DView
10
179.164000
20
147.161071
11
179.739000
21
147.007000
0
LINE
8
Shape2DView
10
179.739000
20
147.007000
11
180.314000
21
147.161071
0
LINE
8
Shape2DView
10
180.314000
20
147.161071
11
180.734929
21
147.582000
0
LINE
8
Shape2DView
10
180.734929
20
147.582000
11
180.889000
21
148.157000
0
LINE
8
Shape2DView
10
180.889000
20
148.157000
11
180.889000
21
148.157000
0
LINE
8
Shape2DView
10
182.439000
20
150.357000
11
192.039000
21
150.357000
0
LINE
8
Shape2DView
10
181.939000
20
150.857000
11
182.085446
21
150.503448
0
LINE
8
Shape2DView
10
182.085446
20
150.503448
11
182.438998
21
150.357002
0
LINE
8
Shape2DView
10
192.039000
20
150.357000
11
192.392552
21
150.503446
0
LINE
8
Shape2DView
10
192.392552
20
150.503446
11
192.538998
21
150.856998
0
LINE
8
Shape2DView
10
181.939000
20
160.457000
11
181.939000
21
150.857000
0
LINE
8
Shape2DView
10
192.539000
20
150.857000
11
192.539000
21
160.457000
0
LINE
8
Shape2DView
10
182.439000
20
160.957000
11
182.085447
21
160.810553
0
LINE
8
Shape2DView
10
182.085447
20
160.810553
11
181.939002
21
160.456999
0
LINE
8
Shape2DView
10
192.539000
20
160.457000
11
192.392555
21
160.810554
0
LINE
8
Shape2DView
10
192.392555
20
160.810554
11
192.039002
21
160.957001
0
LINE
8
Shape2DView
10
192.039000
20
160.957000
11
182.439000
21
160.957000
0
LINE
8
Shape2DView
10
152.439000
20
165.357000
11
162.039000
21
165.357000
0
LINE
8
Shape2DView
10
151.939000
20
165.857000
11
152.085447
21
165.503447
0
LINE
8
Shape2DView
10
152.085447
20
165.503447
11
152.439001
21
165.357002
0
LINE
8
Shape2DView
10
162.039000
20
165.357000
11
162.392552
21
165.503446
0
LINE
8
Shape2DView
10
162.392552
20
165.503446
11
162.538998
21
165.856998
0
LINE
8
Shape2DView
10
151.939000
20
175.457000
11
151.939000
21
165.857000
0
LINE
8
Shape2DView
10
162.539000
20
165.857000
11
162.539000
21
175.457000
0
LINE
8
Shape2DView
10
152.439000
20
175.957000
11
152.085446
21
175.810555
0
LINE
8
Shape2DView
10
152.085446
20
175.810555
11
151.938999
21
175.457002
0
LINE
8
Shape2DView
10
162.539000
20
175.457000
11
162.392554
21
175.810552
0
LINE
8
Shape2DView
10
162.392554
20
175.810552
11
162.039002
21
175.956998
0
LINE
8
Shape2DView
10
162.039000
20
175.957000
11
152.439000
21
175.957000
0
LINE
8
Shape2DView
10
167.439000
20
165.357000
11
177.039000
21
165.357000
0
LINE
8
Shape2DView
10
166.939000
20
165.857000
11
167.085446
21
165.503448
0
LINE
8
Shape2DView
10
167.085446
20
165.503448
11
167.438998
21
165.357002
0
LINE
8
Shape2DView
10
177.039000
20
165.357000
11
177.392554
21
165.503445
0
LINE
8
Shape2DView
10
177.392554
20
165.503445
11
177.539001
21
165.856998
0
LINE
8
Shape2DView
10
166.939000
20
175.457000
11
166.939000
21
165.857000
0
LINE
8
Shape2DView
10
177.539000
20
165.857000
11
177.539000
21
175.457000
0
LINE
8
Shape2DView
10
167.439000
20
175.957000
11
167.085448
21
175.810554
0
LINE
8
Shape2DView
10
167.085448
20
175.810554
11
166.939002
21
175.457002
0
LINE
8
Shape2DView
10
177.539000
20
175.457000
11
177.392553
21
175.810553
0
LINE
8
Shape2DView
10
177.392553
20
175.810553
11
177.038999
21
175.956998
0
LINE
8
Shape2DView
10
177.039000
20
175.957000
11
167.439000
21
175.957000
0
LINE
8
Shape2DView
10
152.439000
20
180.357000
11
162.039000
21
180.357000
0
LINE
8
Shape2DView
10
151.939000
20
180.857000
11
152.085446
21
180.503445
0
LINE
8
Shape2DView
10
152.085446
20
180.503445
11
152.439001
21
180.356999
0
LINE
8
Shape2DView
10
162.039000
20
180.357000
11
162.392553
21
180.503447
0
LINE
8
Shape2DView
10
162.392553
20
180.503447
11
162.538998
21
180.857001
0
LINE
8
Shape2DView
10
151.939000
20
190.457000
11
151.939000
21
180.857000
0
LINE
8
Shape2DView
10
162.539000
20
180.857000
11
162.539000
21
190.457000
0
LINE
8
Shape2DView
10
152.439000
20
190.957000
11
152.085446
21
190.810555
0
LINE
8
Shape2DView
10
152.085446
20
190.810555
11
151.938999
21
190.457002
0
LINE
8
Shape2DView
10
162.539000
20
190.457000
11
162.392554
21
190.810552
0
LINE
8
Shape2DView
10
162.392554
20
190.810552
11
162.039002
21
190.956998
0
LINE
8
Shape2DView
10
162.039000
20
190.957000
11
152.439000
21
190.957000
0
LINE
8
Shape2DView
10
167.439000
20
180.357000
11
177.039000
21
180.357000
0
LINE
8
Shape2DView
10
166.939000
20
180.857000
11
167.085445
21
180.503446
0
LINE
8
Shape2DView
10
167.085445
20
180.503446
11
167.438998
21
180.356999
0
LINE
8
Shape2DView
10
177.039000
20
180.357000
11
177.392555
21
180.503446
0
LINE
8
Shape2DView
10
177.392555
20
180.503446
11
177.539001
21
180.857001
0
LINE
8
Shape2DView
10
166.939000
20
190.457000
11
166.939000
21
180.857000
0
LINE
8
Shape2DView
10
177.539000
20
180.857000
11
177.539000
21
190.457000
0
LINE
8
Shape2DView
10
167.439000
20
190.957000
11
167.085448
21
190.810554
0
LINE
8
Shape2DView
10
167.085448
20
190.810554
11
166.939002
21
190.457002
0
LINE
8
Shape2DView
10
177.539000
20
190.457000
11
177.392553
21
190.810553
0
LINE
8
Shape2DView
10
177.392553
20
190.810553
11
177.038999
21
190.956998
0
LINE
8
Shape2DView
10
177.039000
20
190.957000
11
167.439000
21
190.957000
0
LINE
8
Shape2DView
10
182.439000
20
165.357000
11
192.039000
21
165.357000
0
LINE
8
Shape2DView
10
181.939000
20
165.857000
11
182.085446
21
165.503448
0
LINE
8
Shape2DView
10
182.085446
20
165.503448
11
182.438998
21
165.357002
0
LINE
8
Shape2DView
10
192.039000
20
165.357000
11
192.392552
21
165.503446
0
LINE
8
Shape2DView
10
192.392552
20
165.503446
11
192.538998
21
165.856998
0
LINE
8
Shape2DView
10
181.939000
20
175.457000
11
181.939000
21
165.857000
0
LINE
8
Shape2DView
10
192.539000
20
165.857000
11
192.539000
21
175.457000
0
LINE
8
Shape2DView
10
182.439000
20
175.957000
11
182.085448
21
175.810554
0
LINE
8
Shape2DView
10
182.085448
20
175.810554
11
181.939002
21
175.457002
0
LINE
8
Shape2DView
10
192.539000
20
175.457000
11
192.392554
21
175.810552
0
LINE
8
Shape2DView
10
192.392554
20
175.810552
11
192.039002
21
175.956998
0
LINE
8
Shape2DView
10
192.039000
20
175.957000
11
182.439000
21
175.957000
0
LINE
8
Shape2DView
10
180.889000
20
178.157000
11
180.734929
21
178.732000
0
LINE
8
Shape2DView
10
180.734929
20
178.732000
11
180.314000
21
179.152929
0
LINE
8
Shape2DView
10
180.314000
20
179.152929
11
179.739000
21
179.307000
0
LINE
8
Shape2DView
10
179.739000
20
179.307000
11
179.164000
21
179.152929
0
LINE
8
Shape2DView
10
179.164000
20
179.152929
11
178.743071
21
178.732000
0
LINE
8
Shape2DView
10
178.743071
20
178.732000
11
178.589000
21
178.157000
0
LINE
8
Shape2DView
10
178.589000
20
178.157000
11
178.743071
21
177.582000
0
LINE
8
Shape2DView
10
178.743071
20
177.582000
11
179.164000
21
177.161071
0
LINE
8
Shape2DView
10
179.164000
20
177.161071
11
179.739000
21
177.007000
0
LINE
8
Shape2DView
10
179.739000
20
177.007000
11
180.314000
21
177.161071
0
LINE
8
Shape2DView
10
180.314000
20
177.161071
11
180.734929
21
177.582000
0
LINE
8
Shape2DView
10
180.734929
20
177.582000
11
180.889000
21
178.157000
0
LINE
8
Shape2DView
10
180.889000
20
178.157000
11
180.889000
21
178.157000
0
LINE
8
Shape2DView
10
182.439000
20
180.357000
11
192.039000
21
180.357000
0
LINE
8
Shape2DView
10
181.939000
20
180.857000
11
182.085445
21
180.503446
0
LINE
8
Shape2DView
10
182.085445
20
180.503446
11
182.438998
21
180.356999
0
LINE
8
Shape2DView
10
192.039000
20
180.357000
11
192.392553
21
180.503447
0
LINE
8
Shape2DView
10
192.392553
20
180.503447
11
192.538998
21
180.857001
0
LINE
8
Shape2DView
10
181.939000
20
190.457000
11
181.939000
21
180.857000
0
LINE
8
Shape2DView
10
192.539000
20
180.857000
11
192.539000
21
190.457000
0
LINE
8
Shape2DView
10
182.439000
20
190.957000
11
182.085448
21
190.810554
0
LINE
8
Shape2DView
10
182.085448
20
190.810554
11
181.939002
21
190.457002
0
LINE
8
Shape2DView
10
192.539000
20
190.457000
11
192.392554
21
190.810554
0
LINE
8
Shape2DView
10
192.392554
20
190.810554
11
192.039000
21
190.957000
0
LINE
8
Shape2DView
10
192.039000
20
190.957000
11
182.439000
21
190.957000
0
LINE
8
Shape2DView
10
12.139100
20
193.157000
11
11.985029
21
193.732000
0
LINE
8
Shape2DView
10
11.985029
20
193.732000
11
11.564100
21
194.152929
0
LINE
8
Shape2DView
10
11.564100
20
194.152929
11
10.989100
21
194.307000
0
LINE
8
Shape2DView
10
10.989100
20
194.307000
11
10.414100
21
194.152929
0
LINE
8
Shape2DView
10
10.414100
20
194.152929
11
9.993171
21
193.732000
0
LINE
8
Shape2DView
10
9.993171
20
193.732000
11
9.839100
21
193.157000
0
LINE
8
Shape2DView
10
9.839100
20
193.157000
11
9.993171
21
192.582000
0
LINE
8
Shape2DView
10
9.993171
20
192.582000
11
10.414100
21
192.161071
0
LINE
8
Shape2DView
10
10.414100
20
192.161071
11
10.989100
21
192.007000
0
LINE
8
Shape2DView
10
10.989100
20
192.007000
11
11.564100
21
192.161071
0
LINE
8
Shape2DView
10
11.564100
20
192.161071
11
11.985029
21
192.582000
0
LINE
8
Shape2DView
10
11.985029
20
192.582000
11
12.139100
21
193.157000
0
LINE
8
Shape2DView
10
12.139100
20
193.157000
11
12.139100
21
193.157000
0
LINE
8
Shape2DView
10
17.439100
20
195.357000
11
27.039100
21
195.357000
0
LINE
8
Shape2DView
10
16.939100
20
195.857000
11
17.085547
21
195.503448
0
LINE
8
Shape2DView
10
17.085547
20
195.503448
11
17.439099
21
195.357002
0
LINE
8
Shape2DView
10
27.039100
20
195.357000
11
27.392652
21
195.503446
0
LINE
8
Shape2DView
10
27.392652
20
195.503446
11
27.539098
21
195.856998
0
LINE
8
Shape2DView
10
16.939100
20
205.457000
11
16.939100
21
195.857000
0
LINE
8
Shape2DView
10
27.539100
20
195.857000
11
27.539100
21
205.457000
0
LINE
8
Shape2DView
10
17.439100
20
205.957000
11
17.085547
21
205.810553
0
LINE
8
Shape2DView
10
17.085547
20
205.810553
11
16.939101
21
205.456999
0
LINE
8
Shape2DView
10
27.539100
20
205.457000
11
27.392655
21
205.810554
0
LINE
8
Shape2DView
10
27.392655
20
205.810554
11
27.039102
21
205.957001
0
LINE
8
Shape2DView
10
27.039100
20
205.957000
11
17.439100
21
205.957000
0
LINE
8
Shape2DView
10
30.889100
20
208.157000
11
30.735029
21
208.732000
0
LINE
8
Shape2DView
10
30.735029
20
208.732000
11
30.314100
21
209.152929
0
LINE
8
Shape2DView
10
30.314100
20
209.152929
11
29.739100
21
209.307000
0
LINE
8
Shape2DView
10
29.739100
20
209.307000
11
29.164100
21
209.152929
0
LINE
8
Shape2DView
10
29.164100
20
209.152929
11
28.743171
21
208.732000
0
LINE
8
Shape2DView
10
28.743171
20
208.732000
11
28.589100
21
208.157000
0
LINE
8
Shape2DView
10
28.589100
20
208.157000
11
28.743171
21
207.582000
0
LINE
8
Shape2DView
10
28.743171
20
207.582000
11
29.164100
21
207.161071
0
LINE
8
Shape2DView
10
29.164100
20
207.161071
11
29.739100
21
207.007000
0
LINE
8
Shape2DView
10
29.739100
20
207.007000
11
30.314100
21
207.161071
0
LINE
8
Shape2DView
10
30.314100
20
207.161071
11
30.735029
21
207.582000
0
LINE
8
Shape2DView
10
30.735029
20
207.582000
11
30.889100
21
208.157000
0
LINE
8
Shape2DView
10
30.889100
20
208.157000
11
30.889100
21
208.157000
0
LINE
8
Shape2DView
10
17.439100
20
210.357000
11
27.039100
21
210.357000
0
LINE
8
Shape2DView
10
16.939100
20
210.857000
11
17.085547
21
210.503448
0
LINE
8
Shape2DView
10
17.085547
20
210.503448
11
17.439099
21
210.357002
0
LINE
8
Shape2DView
10
27.039100
20
210.357000
11
27.392652
21
210.503446
0
LINE
8
Shape2DView
10
27.392652
20
210.503446
11
27.539098
21
210.856998
0
LINE
8
Shape2DView
10
16.939100
20
220.457000
11
16.939100
21
210.857000
0
LINE
8
Shape2DView
10
27.539100
20
210.857000
11
27.539100
21
220.457000
0
LINE
8
Shape2DView
10
17.439100
20
220.957000
11
17.085548
21
220.810554
0
LINE
8
Shape2DView
10
17.085548
20
220.810554
11
16.939101
21
220.457002
0
LINE
8
Shape2DView
10
27.539100
20
220.457000
11
27.392654
21
220.810552
0
LINE
8
Shape2DView
10
27.392654
20
220.810552
11
27.039102
21
220.956998
0
LINE
8
Shape2DView
10
27.039100
20
220.957000
11
17.439100
21
220.957000
0
LINE
8
Shape2DView
10
32.439100
20
195.357000
11
42.039100
21
195.357000
0
LINE
8
Shape2DView
10
31.939100
20
195.857000
11
32.085546
21
195.503448
0
LINE
8
Shape2DView
10
32.085546
20
195.503448
11
32.439098
21
195.357002
0
LINE
8
Shape2DView
10
42.039100
20
195.357000
11
42.392654
21
195.503445
0
LINE
8
Shape2DView
10
42.392654
20
195.503445
11
42.539101
21
195.856998
0
LINE
8
Shape2DView
10
31.939100
20
205.457000
11
31.939100
21
195.857000
0
LINE
8
Shape2DView
10
42.539100
20
195.857000
11
42.539100
21
205.457000
0
LINE
8
Shape2DView
10
32.439100
20
205.957000
11
32.085547
21
205.810553
0
LINE
8
Shape2DView
10
32.085547
20
205.810553
11
31.939102
21
205.456999
0
LINE
8
Shape2DView
10
42.539100
20
205.457000
11
42.392654
21
205.810555
0
LINE
8
Shape2DView
10
42.392654
20
205.810555
11
42.039099
21
205.957001
0
LINE
8
Shape2DView
10
42.039100
20
205.957000
11
32.439100
21
205.957000
0
LINE
8
Shape2DView
10
47.439200
20
195.357000
11
57.039000
21
195.357000
0
LINE
8
Shape2DView
10
46.939100
20
195.857000
11
47.085546
21
195.503448
0
LINE
8
Shape2DView
10
47.085546
20
195.503448
11
47.439098
21
195.357002
0
LINE
8
Shape2DView
10
57.039100
20
195.357000
11
57.392652
21
195.503446
0
LINE
8
Shape2DView
10
57.392652
20
195.503446
11
57.539098
21
195.856998
0
LINE
8
Shape2DView
10
46.939100
20
205.457000
11
46.939100
21
195.857000
0
LINE
8
Shape2DView
10
57.539100
20
195.857000
11
57.539100
21
205.457000
0
LINE
8
Shape2DView
10
47.439100
20
205.957000
11
47.085547
21
205.810553
0
LINE
8
Shape2DView
10
47.085547
20
205.810553
11
46.939102
21
205.456999
0
LINE
8
Shape2DView
10
57.539100
20
205.457000
11
57.392655
21
205.810554
0
LINE
8
Shape2DView
10
57.392655
20
205.810554
11
57.039102
21
205.957001
0
LINE
8
Shape2DView
10
57.039000
20
205.957000
11
47.439200
21
205.957000
0
LINE
8
Shape2DView
10
32.439100
20
210.357000
11
42.039100
21
210.357000
0
LINE
8
Shape2DView
10
31.939100
20
210.857000
11
32.085546
21
210.503448
0
LINE
8
Shape2DView
10
32.085546
20
210.503448
11
32.439098
21
210.357002
0
LINE
8
Shape2DView
10
42.039100
20
210.357000
11
42.392654
21
210.503445
0
LINE
8
Shape2DView
10
42.392654
20
210.503445
11
42.539101
21
210.856998
0
LINE
8
Shape2DView
10
31.939100
20
220.457000
11
31.939100
21
210.857000
0
LINE
8
Shape2DView
10
42.539100
20
210.857000
11
42.539100
21
220.457000
0
LINE
8
Shape2DView
10
32.439100
20
220.957000
11
32.085548
21
220.810554
0
LINE
8
Shape2DView
10
32.085548
20
220.810554
11
31.939102
21
220.457002
0
LINE
8
Shape2DView
10
42.539100
20
220.457000
11
42.392653
21
220.810553
0
LINE
8
Shape2DView
10
42.392653
20
220.810553
11
42.039099
21
220.956998
0
LINE
8
Shape2DView
10
42.039100
20
220.957000
11
32.439100
21
220.957000
0
LINE
8
Shape2DView
10
47.439200
20
210.357000
11
57.039000
21
210.357000
0
LINE
8
Shape2DView
10
46.939100
20
210.857000
11
47.085546
21
210.503448
0
LINE
8
Shape2DView
10
47.085546
20
210.503448
11
47.439098
21
210.357002
0
LINE
8
Shape2DView
10
57.039100
20
210.357000
11
57.392652
21
210.503446
0
LINE
8
Shape2DView
10
57.392652
20
210.503446
11
57.539098
21
210.856998
0
LINE
8
Shape2DView
10
46.939100
20
220.457000
11
46.939100
21
210.857000
0
LINE
8
Shape2DView
10
57.539100
20
210.857000
11
57.539100
21
220.457000
0
LINE
8
Shape2DView
10
47.439100
20
220.957000
11
47.085548
21
220.810554
0
LINE
8
Shape2DView
10
47.085548
20
220.810554
11
46.939102
21
220.457002
0
LINE
8
Shape2DView
10
57.539100
20
220.457000
11
57.392654
21
220.810552
0
LINE
8
Shape2DView
10
57.392654
20
220.810552
11
57.039102
21
220.956998
0
LINE
8
Shape2DView
10
57.039000
20
220.957000
11
47.439200
21
220.957000
0
LINE
8
Shape2DView
10
17.439100
20
225.357000
11
27.039100
21
225.357000
0
LINE
8
Shape2DView
10
16.939100
20
225.857000
11
17.085546
21
225.503446
0
LINE
8
Shape2DView
10
17.085546
20
225.503446
11
17.439099
21
225.356999
0
LINE
8
Shape2DView
10
27.039100
20
225.357000
11
27.392653
21
225.503447
0
LINE
8
Shape2DView
10
27.392653
20
225.503447
11
27.539098
21
225.857001
0
LINE
8
Shape2DView
10
16.939100
20
235.457000
11
16.939100
21
225.857000
0
LINE
8
Shape2DView
10
27.539100
20
225.857000
11
27.539100
21
235.457000
0
LINE
8
Shape2DView
10
17.439100
20
235.957000
11
17.085548
21
235.810554
0
LINE
8
Shape2DView
10
17.085548
20
235.810554
11
16.939101
21
235.457002
0
LINE
8
Shape2DView
10
27.539100
20
235.457000
11
27.392654
21
235.810552
0
LINE
8
Shape2DView
10
27.392654
20
235.810552
11
27.039102
21
235.956998
0
LINE
8
Shape2DView
10
27.039100
20
235.957000
11
17.439100
21
235.957000
0
LINE
8
Shape2DView
10
30.889100
20
238.157000
11
30.735029
21
238.732000
0
LINE
8
Shape2DView
10
30.735029
20
238.732000
11
30.314100
21
239.152929
0
LINE
8
Shape2DView
10
30.314100
20
239.152929
11
29.739100
21
239.307000
0
LINE
8
Shape2DView
10
29.739100
20
239.307000
11
29.164100
21
239.152929
0
LINE
8
Shape2DView
10
29.164100
20
239.152929
11
28.743171
21
238.732000
0
LINE
8
Shape2DView
10
28.743171
20
238.732000
11
28.589100
21
238.157000
0
LINE
8
Shape2DView
10
28.589100
20
238.157000
11
28.743171
21
237.582000
0
LINE
8
Shape2DView
10
28.743171
20
237.582000
11
29.164100
21
237.161071
0
LINE
8
Shape2DView
10
29.164100
20
237.161071
11
29.739100
21
237.007000
0
LINE
8
Shape2DView
10
29.739100
20
237.007000
11
30.314100
21
237.161071
0
LINE
8
Shape2DView
10
30.314100
20
237.161071
11
30.735029
21
237.582000
0
LINE
8
Shape2DView
10
30.735029
20
237.582000
11
30.889100
21
238.157000
0
LINE
8
Shape2DView
10
30.889100
20
238.157000
11
30.889100
21
238.157000
0
LINE
8
Shape2DView
10
32.439100
20
225.357000
11
42.039100
21
225.357000
0
LINE
8
Shape2DView
10
31.939100
20
225.857000
11
32.085545
21
225.503446
0
LINE
8
Shape2DView
10
32.085545
20
225.503446
11
32.439098
21
225.356999
0
LINE
8
Shape2DView
10
42.039100
20
225.357000
11
42.392655
21
225.503446
0
LINE
8
Shape2DView
10
42.392655
20
225.503446
11
42.539101
21
225.857001
0
LINE
8
Shape2DView
10
31.939100
20
235.457000
11
31.939100
21
225.857000
0
LINE
8
Shape2DView
10
42.539100
20
225.857000
11
42.539100
21
235.457000
0
LINE
8
Shape2DView
10
32.439100
20
235.957000
11
32.085548
21
235.810554
0
LINE
8
Shape2DView
10
32.085548
20
235.810554
11
31.939102
21
235.457002
0
LINE
8
Shape2DView
10
42.539100
20
235.457000
11
42.392653
21
235.810553
0
LINE
8
Shape2DView
10
42.392653
20
235.810553
11
42.039099
21
235.956998
0
LINE
8
Shape2DView
10
42.039100
20
235.957000
11
32.439100
21
235.957000
0
LINE
8
Shape2DView
10
47.439200
20
225.357000
11
57.039000
21
225.357000
0
LINE
8
Shape2DView
10
46.939100
20
225.857000
11
47.085545
21
225.503446
0
LINE
8
Shape2DView
10
47.085545
20
225.503446
11
47.439098
21
225.356999
0
LINE
8
Shape2DView
10
57.039100
20
225.357000
11
57.392653
21
225.503447
0
LINE
8
Shape2DView
10
57.392653
20
225.503447
11
57.539098
21
225.857001
0
LINE
8
Shape2DView
10
46.939100
20
235.457000
11
46.939100
21
225.857000
0
LINE
8
Shape2DView
10
57.539100
20
225.857000
11
57.539100
21
235.457000
0
LINE
8
Shape2DView
10
47.439100
20
235.957000
11
47.085548
21
235.810554
0
LINE
8
Shape2DView
10
47.085548
20
235.810554
11
46.939102
21
235.457002
0
LINE
8
Shape2DView
10
57.539100
20
235.457000
11
57.392654
21
235.810552
0
LINE
8
Shape2DView
10
57.392654
20
235.810552
11
57.039102
21
235.956998
0
LINE
8
Shape2DView
10
57.039000
20
235.957000
11
47.439200
21
235.957000
0
LINE
8
Shape2DView
10
62.439200
20
195.357000
11
72.039000
21
195.357000
0
LINE
8
Shape2DView
10
61.939100
20
195.857000
11
62.085547
21
195.503447
0
LINE
8
Shape2DView
10
62.085547
20
195.503447
11
62.439101
21
195.357002
0
LINE
8
Shape2DView
10
72.039100
20
195.357000
11
72.392652
21
195.503446
0
LINE
8
Shape2DView
10
72.392652
20
195.503446
11
72.539098
21
195.856998
0
LINE
8
Shape2DView
10
61.939100
20
205.457000
11
61.939100
21
195.857000
0
LINE
8
Shape2DView
10
72.539100
20
195.857000
11
72.539100
21
205.457000
0
LINE
8
Shape2DView
10
62.439100
20
205.957000
11
62.085545
21
205.810554
0
LINE
8
Shape2DView
10
62.085545
20
205.810554
11
61.939099
21
205.456999
0
LINE
8
Shape2DView
10
72.539100
20
205.457000
11
72.392655
21
205.810554
0
LINE
8
Shape2DView
10
72.392655
20
205.810554
11
72.039102
21
205.957001
0
LINE
8
Shape2DView
10
72.039000
20
205.957000
11
62.439200
21
205.957000
0
LINE
8
Shape2DView
10
60.889100
20
208.157000
11
60.735029
21
208.732000
0
LINE
8
Shape2DView
10
60.735029
20
208.732000
11
60.314100
21
209.152929
0
LINE
8
Shape2DView
10
60.314100
20
209.152929
11
59.739100
21
209.307000
0
LINE
8
Shape2DView
10
59.739100
20
209.307000
11
59.164100
21
209.152929
0
LINE
8
Shape2DView
10
59.164100
20
209.152929
11
58.743171
21
208.732000
0
LINE
8
Shape2DView
10
58.743171
20
208.732000
11
58.589100
21
208.157000
0
LINE
8
Shape2DView
10
58.589100
20
208.157000
11
58.743171
21
207.582000
0
LINE
8
Shape2DView
10
58.743171
20
207.582000
11
59.164100
21
207.161071
0
LINE
8
Shape2DView
10
59.164100
20
207.161071
11
59.739100
21
207.007000
0
LINE
8
Shape2DView
10
59.739100
20
207.007000
11
60.314100
21
207.161071
0
LINE
8
Shape2DView
10
60.314100
20
207.161071
11
60.735029
21
207.582000
0
LINE
8
Shape2DView
10
60.735029
20
207.582000
11
60.889100
21
208.157000
0
LINE
8
Shape2DView
10
60.889100
20
208.157000
11
60.889100
21
208.157000
0
LINE
8
Shape2DView
10
62.439200
20
210.357000
11
72.039000
21
210.357000
0
LINE
8
Shape2DView
10
61.939100
20
210.857000
11
62.085547
21
210.503447
0
LINE
8
Shape2DView
10
62.085547
20
210.503447
11
62.439101
21
210.357002
0
LINE
8
Shape2DView
10
72.039100
20
210.357000
11
72.392652
21
210.503446
0
LINE
8
Shape2DView
10
72.392652
20
210.503446
11
72.539098
21
210.856998
0
LINE
8
Shape2DView
10
61.939100
20
220.457000
11
61.939100
21
210.857000
0
LINE
8
Shape2DView
10
72.539100
20
210.857000
11
72.539100
21
220.457000
0
LINE
8
Shape2DView
10
62.439100
20
220.957000
11
62.085546
21
220.810555
0
LINE
8
Shape2DView
10
62.085546
20
220.810555
11
61.939099
21
220.457002
0
LINE
8
Shape2DView
10
72.539100
20
220.457000
11
72.392654
21
220.810552
0
LINE
8
Shape2DView
10
72.392654
20
220.810552
11
72.039102
21
220.956998
0
LINE
8
Shape2DView
10
72.039000
20
220.957000
11
62.439200
21
220.957000
0
LINE
8
Shape2DView
10
77.439200
20
195.357000
11
87.039000
21
195.357000
0
LINE
8
Shape2DView
10
76.939100
20
195.857000
11
77.085546
21
195.503448
0
LINE
8
Shape2DView
10
77.085546
20
195.503448
11
77.439098
21
195.357002
0
LINE
8
Shape2DView
10
87.039000
20
195.357000
11
87.392554
21
195.503445
0
LINE
8
Shape2DView
10
87.392554
20
195.503445
11
87.539001
21
195.856998
0
LINE
8
Shape2DView
10
76.939100
20
205.457000
11
76.939100
21
195.857000
0
LINE
8
Shape2DView
10
87.539100
20
195.857000
11
87.539100
21
205.457000
0
LINE
8
Shape2DView
10
77.439100
20
205.957000
11
77.085547
21
205.810553
0
LINE
8
Shape2DView
10
77.085547
20
205.810553
11
76.939102
21
205.456999
0
LINE
8
Shape2DView
10
87.539100
20
205.457000
11
87.392654
21
205.810555
0
LINE
8
Shape2DView
10
87.392654
20
205.810555
11
87.039099
21
205.957001
0
LINE
8
Shape2DView
10
87.039000
20
205.957000
11
77.439200
21
205.957000
0
LINE
8
Shape2DView
10
92.438900
20
195.357000
11
102.039000
21
195.357000
0
LINE
8
Shape2DView
10
91.939000
20
195.857000
11
92.085446
21
195.503448
0
LINE
8
Shape2DView
10
92.085446
20
195.503448
11
92.438998
21
195.357002
0
LINE
8
Shape2DView
10
102.039000
20
195.357000
11
102.392552
21
195.503446
0
LINE
8
Shape2DView
10
102.392552
20
195.503446
11
102.538998
21
195.856998
0
LINE
8
Shape2DView
10
91.939100
20
205.457000
11
91.939100
21
195.857000
0
LINE
8
Shape2DView
10
102.539000
20
195.857000
11
102.539000
21
205.457000
0
LINE
8
Shape2DView
10
92.439000
20
205.957000
11
92.085447
21
205.810553
0
LINE
8
Shape2DView
10
92.085447
20
205.810553
11
91.939002
21
205.456999
0
LINE
8
Shape2DView
10
102.539000
20
205.457000
11
102.392555
21
205.810554
0
LINE
8
Shape2DView
10
102.392555
20
205.810554
11
102.039002
21
205.957001
0
LINE
8
Shape2DView
10
102.039000
20
205.957000
11
92.438900
21
205.957000
0
LINE
8
Shape2DView
10
90.889000
20
208.157000
11
90.734929
21
208.732000
0
LINE
8
Shape2DView
10
90.734929
20
208.732000
11
90.314000
21
209.152929
0
LINE
8
Shape2DView
10
90.314000
20
209.152929
11
89.739000
21
209.307000
0
LINE
8
Shape2DView
10
89.739000
20
209.307000
11
89.164000
21
209.152929
0
LINE
8
Shape2DView
10
89.164000
20
209.152929
11
88.743071
21
208.732000
0
LINE
8
Shape2DView
10
88.743071
20
208.732000
11
88.589000
21
208.157000
0
LINE
8
Shape2DView
10
88.589000
20
208.157000
11
88.743071
21
207.582000
0
LINE
8
Shape2DView
10
88.743071
20
207.582000
11
89.164000
21
207.161071
0
LINE
8
Shape2DView
10
89.164000
20
207.161071
11
89.739000
21
207.007000
0
LINE
8
Shape2DView
10
89.739000
20
207.007000
11
90.314000
21
207.161071
0
LINE
8
Shape2DView
10
90.314000
20
207.161071
11
90.734929
21
207.582000
0
LINE
8
Shape2DView
10
90.734929
20
207.582000
11
90.889000
21
208.157000
0
LINE
8
Shape2DView
10
90.889000
20
208.157000
11
90.889000
21
208.157000
0
LINE
8
Shape2DView
10
77.439200
20
210.357000
11
87.039000
21
210.357000
0
LINE
8
Shape2DView
10
76.939100
20
210.857000
11
77.085546
21
210.503448
0
LINE
8
Shape2DView
10
77.085546
20
210.503448
11
77.439098
21
210.357002
0
LINE
8
Shape2DView
10
87.039000
20
210.357000
11
87.392554
21
210.503445
0
LINE
8
Shape2DView
10
87.392554
20
210.503445
11
87.539001
21
210.856998
0
LINE
8
Shape2DView
10
76.939100
20
220.457000
11
76.939100
21
210.857000
0
LINE
8
Shape2DView
10
87.539100
20
210.857000
11
87.539100
21
220.457000
0
LINE
8
Shape2DView
10
77.439100
20
220.957000
11
77.085548
21
220.810554
0
LINE
8
Shape2DView
10
77.085548
20
220.810554
11
76.939102
21
220.457002
0
LINE
8
Shape2DView
10
87.539100
20
220.457000
11
87.392653
21
220.810553
0
LINE
8
Shape2DView
10
87.392653
20
220.810553
11
87.039099
21
220.956998
0
LINE
8
Shape2DView
10
87.039000
20
220.957000
11
77.439200
21
220.957000
0
LINE
8
Shape2DView
10
92.438900
20
210.357000
11
102.039000
21
210.357000
0
LINE
8
Shape2DView
10
91.939000
20
210.857000
11
92.085446
21
210.503448
0
LINE
8
Shape2DView
10
92.085446
20
210.503448
11
92.438998
21
210.357002
0
LINE
8
Shape2DView
10
102.039000
20
210.357000
11
102.392552
21
210.503446
0
LINE
8
Shape2DView
10
102.392552
20
210.503446
11
102.538998
21
210.856998
0
LINE
8
Shape2DView
10
91.939100
20
220.457000
11
91.939100
21
210.857000
0
LINE
8
Shape2DView
10
102.539000
20
210.857000
11
102.539000
21
220.457000
0
LINE
8
Shape2DView
10
92.439000
20
220.957000
11
92.085448
21
220.810554
0
LINE
8
Shape2DView
10
92.085448
20
220.810554
11
91.939002
21
220.457002
0
LINE
8
Shape2DView
10
102.539000
20
220.457000
11
102.392554
21
220.810552
0
LINE
8
Shape2DView
10
102.392554
20
220.810552
11
102.039002
21
220.956998
0
LINE
8
Shape2DView
10
102.039000
20
220.957000
11
92.438900
21
220.957000
0
LINE
8
Shape2DView
10
62.439200
20
225.357000
11
72.039000
21
225.357000
0
LINE
8
Shape2DView
10
61.939100
20
225.857000
11
62.085546
21
225.503445
0
LINE
8
Shape2DView
10
62.085546
20
225.503445
11
62.439101
21
225.356999
0
LINE
8
Shape2DView
10
72.039100
20
225.357000
11
72.392653
21
225.503447
0
LINE
8
Shape2DView
10
72.392653
20
225.503447
11
72.539098
21
225.857001
0
LINE
8
Shape2DView
10
61.939100
20
235.457000
11
61.939100
21
225.857000
0
LINE
8
Shape2DView
10
72.539100
20
225.857000
11
72.539100
21
235.457000
0
LINE
8
Shape2DView
10
62.439100
20
235.957000
11
62.085546
21
235.810555
0
LINE
8
Shape2DView
10
62.085546
20
235.810555
11
61.939099
21
235.457002
0
LINE
8
Shape2DView
10
72.539100
20
235.457000
11
72.392654
21
235.810552
0
LINE
8
Shape2DView
10
72.392654
20
235.810552
11
72.039102
21
235.956998
0
LINE
8
Shape2DView
10
72.039000
20
235.957000
11
62.439200
21
235.957000
0
LINE
8
Shape2DView
10
60.889100
20
238.157000
11
60.735029
21
238.732000
0
LINE
8
Shape2DView
10
60.735029
20
238.732000
11
60.314100
21
239.152929
0
LINE
8
Shape2DView
10
60.314100
20
239.152929
11
59.739100
21
239.307000
0
LINE
8
Shape2DView
10
59.739100
20
239.307000
11
59.164100
21
239.152929
0
LINE
8
Shape2DView
10
59.164100
20
239.152929
11
58.743171
21
238.732000
0
LINE
8
Shape2DView
10
58.743171
20
238.732000
11
58.589100
21
238.157000
0
LINE
8
Shape2DView
10
58.589100
20
238.157000
11
58.743171
21
237.582000
0
LINE
8
Shape2DView
10
58.743171
20
237.582000
11
59.164100
21
237.161071
0
LINE
8
Shape2DView
10
59.164100
20
237.161071
11
59.739100
21
237.007000
0
LINE
8
Shape2DView
10
59.739100
20
237.007000
11
60.314100
21
237.161071
0
LINE
8
Shape2DView
10
60.314100
20
237.161071
11
60.735029
21
237.582000
0
LINE
8
Shape2DView
10
60.735029
20
237.582000
11
60.889100
21
238.157000
0
LINE
8
Shape2DView
10
60.889100
20
238.157000
11
60.889100
21
238.157000
0
LINE
8
Shape2DView
10
77.439200
20
225.357000
11
87.039000
21
225.357000
0
LINE
8
Shape2DView
10
76.939100
20
225.857000
11
77.085545
21
225.503446
0
LINE
8
Shape2DView
10
77.085545
20
225.503446
11
77.439098
21
225.356999
0
LINE
8
Shape2DView
10
87.039000
20
225.357000
11
87.392555
21
225.503446
0
LINE
8
Shape2DView
10
87.392555
20
225.503446
11
87.539001
21
225.857001
0
LINE
8
Shape2DView
10
76.939100
20
235.457000
11
76.939100
21
225.857000
0
LINE
8
Shape2DView
10
87.539100
20
225.857000
11
87.539100
21
235.457000
0
LINE
8
Shape2DView
10
77.439100
20
235.957000
11
77.085548
21
235.810554
0
LINE
8
Shape2DView
10
77.085548
20
235.810554
11
76.939102
21
235.457002
0
LINE
8
Shape2DView
10
87.539100
20
235.457000
11
87.392653
21
235.810553
0
LINE
8
Shape2DView
10
87.392653
20
235.810553
11
87.039099
21
235.956998
0
LINE
8
Shape2DView
10
87.039000
20
235.957000
11
77.439200
21
235.957000
0
LINE
8
Shape2DView
10
90.889000
20
238.157000
11
90.734929
21
238.732000
0
LINE
8
Shape2DView
10
90.734929
20
238.732000
11
90.314000
21
239.152929
0
LINE
8
Shape2DView
10
90.314000
20
239.152929
11
89.739000
21
239.307000
0
LINE
8
Shape2DView
10
89.739000
20
239.307000
11
89.164000
21
239.152929
0
LINE
8
Shape2DView
10
89.164000
20
239.152929
11
88.743071
21
238.732000
0
LINE
8
Shape2DView
10
88.743071
20
238.732000
11
88.589000
21
238.157000
0
LINE
8
Shape2DView
10
88.589000
20
238.157000
11
88.743071
21
237.582000
0
LINE
8
Shape2DView
10
88.743071
20
237.582000
11
89.164000
21
237.161071
0
LINE
8
Shape2DView
10
89.164000
20
237.161071
11
89.739000
21
237.007000
0
LINE
8
Shape2DView
10
89.739000
20
237.007000
11
90.314000
21
237.161071
0
LINE
8
Shape2DView
10
90.314000
20
237.161071
11
90.734929
21
237.582000
0
LINE
8
Shape2DView
10
90.734929
20
237.582000
11
90.889000
21
238.157000
0
LINE
8
Shape2DView
10
90.889000
20
238.157000
11
90.889000
21
238.157000
0
LINE
8
Shape2DView
10
92.438900
20
225.357000
11
102.039000
21
225.357000
0
LINE
8
Shape2DView
10
91.939000
20
225.857000
11
92.085445
21
225.503446
0
LINE
8
Shape2DView
10
92.085445
20
225.503446
11
92.438998
21
225.356999
0
LINE
8
Shape2DView
10
102.039000
20
225.357000
11
102.392553
21
225.503447
0
LINE
8
Shape2DView
10
102.392553
20
225.503447
11
102.538998
21
225.857001
0
LINE
8
Shape2DView
10
91.939100
20
235.457000
11
91.939100
21
225.857000
0
LINE
8
Shape2DView
10
102.539000
20
225.857000
11
102.539000
21
235.457000
0
LINE
8
Shape2DView
10
92.439000
20
235.957000
11
92.085448
21
235.810554
0
LINE
8
Shape2DView
10
92.085448
20
235.810554
11
91.939002
21
235.457002
0
LINE
8
Shape2DView
10
102.539000
20
235.457000
11
102.392554
21
235.810552
0
LINE
8
Shape2DView
10
102.392554
20
235.810552
11
102.039002
21
235.956998
0
LINE
8
Shape2DView
10
102.039000
20
235.957000
11
92.438900
21
235.957000
0
LINE
8
Shape2DView
10
17.439100
20
240.357000
11
27.039100
21
240.357000
0
LINE
8
Shape2DView
10
16.939100
20
240.857000
11
17.085547
21
240.503448
0
LINE
8
Shape2DView
10
17.085547
20
240.503448
11
17.439099
21
240.357002
0
LINE
8
Shape2DView
10
27.039100
20
240.357000
11
27.392652
21
240.503446
0
LINE
8
Shape2DView
10
27.392652
20
240.503446
11
27.539098
21
240.856998
0
LINE
8
Shape2DView
10
16.939100
20
250.457000
11
16.939100
21
240.857000
0
LINE
8
Shape2DView
10
27.539100
20
240.857000
11
27.539100
21
250.457000
0
LINE
8
Shape2DView
10
17.439100
20
250.957000
11
17.085547
21
250.810553
0
LINE
8
Shape2DView
10
17.085547
20
250.810553
11
16.939101
21
250.456999
0
LINE
8
Shape2DView
10
27.539100
20
250.457000
11
27.392655
21
250.810554
0
LINE
8
Shape2DView
10
27.392655
20
250.810554
11
27.039102
21
250.957001
0
LINE
8
Shape2DView
10
27.039100
20
250.957000
11
17.439100
21
250.957000
0
LINE
8
Shape2DView
10
17.439100
20
255.357000
11
27.039100
21
255.357000
0
LINE
8
Shape2DView
10
16.939100
20
255.857000
11
17.085547
21
255.503448
0
LINE
8
Shape2DView
10
17.085547
20
255.503448
11
17.439099
21
255.357002
0
LINE
8
Shape2DView
10
27.039100
20
255.357000
11
27.392652
21
255.503446
0
LINE
8
Shape2DView
10
27.392652
20
255.503446
11
27.539098
21
255.856998
0
LINE
8
Shape2DView
10
16.939100
20
265.457000
11
16.939100
21
255.857000
0
LINE
8
Shape2DView
10
27.539100
20
255.857000
11
27.539100
21
265.457000
0
LINE
8
Shape2DView
10
17.439100
20
265.957000
11
17.085548
21
265.810554
0
LINE
8
Shape2DView
10
17.085548
20
265.810554
11
16.939101
21
265.457002
0
LINE
8
Shape2DView
10
27.539100
20
265.457000
11
27.392654
21
265.810552
0
LINE
8
Shape2DView
10
27.392654
20
265.810552
11
27.039102
21
265.956998
0
LINE
8
Shape2DView
10
27.039100
20
265.957000
11
17.439100
21
265.957000
0
LINE
8
Shape2DView
10
32.439100
20
240.357000
11
42.039100
21
240.357000
0
LINE
8
Shape2DView
10
31.939100
20
240.857000
11
32.085546
21
240.503448
0
LINE
8
Shape2DView
10
32.085546
20
240.503448
11
32.439098
21
240.357002
0
LINE
8
Shape2DView
10
42.039100
20
240.357000
11
42.392654
21
240.503445
0
LINE
8
Shape2DView
10
42.392654
20
240.503445
11
42.539101
21
240.856998
0
LINE
8
Shape2DView
10
31.939100
20
250.457000
11
31.939100
21
240.857000
0
LINE
8
Shape2DView
10
42.539100
20
240.857000
11
42.539100
21
250.457000
0
LINE
8
Shape2DView
10
32.439100
20
250.957000
11
32.085547
21
250.810553
0
LINE
8
Shape2DView
10
32.085547
20
250.810553
11
31.939102
21
250.456999
0
LINE
8
Shape2DView
10
42.539100
20
250.457000
11
42.392654
21
250.810555
0
LINE
8
Shape2DView
10
42.392654
20
250.810555
11
42.039099
21
250.957001
0
LINE
8
Shape2DView
10
42.039100
20
250.957000
11
32.439100
21
250.957000
0
LINE
8
Shape2DView
10
47.439200
20
240.357000
11
57.039000
21
240.357000
0
LINE
8
Shape2DView
10
46.939100
20
240.857000
11
47.085546
21
240.503448
0
LINE
8
Shape2DView
10
47.085546
20
240.503448
11
47.439098
21
240.357002
0
LINE
8
Shape2DView
10
57.039100
20
240.357000
11
57.392652
21
240.503446
0
LINE
8
Shape2DView
10
57.392652
20
240.503446
11
57.539098
21
240.856998
0
LINE
8
Shape2DView
10
46.939100
20
250.457000
11
46.939100
21
240.857000
0
LINE
8
Shape2DView
10
57.539100
20
240.857000
11
57.539100
21
250.457000
0
LINE
8
Shape2DView
10
47.439100
20
250.957000
11
47.085547
21
250.810553
0
LINE
8
Shape2DView
10
47.085547
20
250.810553
11
46.939102
21
250.456999
0
LINE
8
Shape2DView
10
57.539100
20
250.457000
11
57.392655
21
250.810554
0
LINE
8
Shape2DView
10
57.392655
20
250.810554
11
57.039102
21
250.957001
0
LINE
8
Shape2DView
10
57.039000
20
250.957000
11
47.439200
21
250.957000
0
LINE
8
Shape2DView
10
32.439100
20
255.357000
11
42.039100
21
255.357000
0
LINE
8
Shape2DView
10
31.939100
20
255.857000
11
32.085546
21
255.503448
0
LINE
8
Shape2DView
10
32.085546
20
255.503448
11
32.439098
21
255.357002
0
LINE
8
Shape2DView
10
42.039100
20
255.357000
11
42.392654
21
255.503445
0
LINE
8
Shape2DView
10
42.392654
20
255.503445
11
42.539101
21
255.856998
0
LINE
8
Shape2DView
10
31.939100
20
265.457000
11
31.939100
21
255.857000
0
LINE
8
Shape2DView
10
42.539100
20
255.857000
11
42.539100
21
265.457000
0
LINE
8
Shape2DView
10
32.439100
20
265.957000
11
32.085548
21
265.810554
0
LINE
8
Shape2DView
10
32.085548
20
265.810554
11
31.939102
21
265.457002
0
LINE
8
Shape2DView
10
42.539100
20
265.457000
11
42.392653
21
265.810553
0
LINE
8
Shape2DView
10
42.392653
20
265.810553
11
42.039099
21
265.956998
0
LINE
8
Shape2DView
10
42.039100
20
265.957000
11
32.439100
21
265.957000
0
LINE
8
Shape2DView
10
47.439200
20
255.357000
11
57.039000
21
255.357000
0
LINE
8
Shape2DView
10
46.939100
20
255.857000
11
47.085546
21
255.503448
0
LINE
8
Shape2DView
10
47.085546
20
255.503448
11
47.439098
21
255.357002
0
LINE
8
Shape2DView
10
57.039100
20
255.357000
11
57.392652
21
255.503446
0
LINE
8
Shape2DView
10
57.392652
20
255.503446
11
57.539098
21
255.856998
0
LINE
8
Shape2DView
10
46.939100
20
265.457000
11
46.939100
21
255.857000
0
LINE
8
Shape2DView
10
57.539100
20
255.857000
11
57.539100
21
265.457000
0
LINE
8
Shape2DView
10
47.439100
20
265.957000
11
47.085548
21
265.810554
0
LINE
8
Shape2DView
10
47.085548
20
265.810554
11
46.939102
21
265.457002
0
LINE
8
Shape2DView
10
57.539100
20
265.457000
11
57.392654
21
265.810552
0
LINE
8
Shape2DView
10
57.392654
20
265.810552
11
57.039102
21
265.956998
0
LINE
8
Shape2DView
10
57.039000
20
265.957000
11
47.439200
21
265.957000
0
LINE
8
Shape2DView
10
30.889100
20
268.157000
11
30.735029
21
268.732000
0
LINE
8
Shape2DView
10
30.735029
20
268.732000
11
30.314100
21
269.152929
0
LINE
8
Shape2DView
10
30.314100
20
269.152929
11
29.739100
21
269.307000
0
LINE
8
Shape2DView
10
29.739100
20
269.307000
11
29.164100
21
269.152929
0
LINE
8
Shape2DView
10
29.164100
20
269.152929
11
28.743171
21
268.732000
0
LINE
8
Shape2DView
10
28.743171
20
268.732000
11
28.589100
21
268.157000
0
LINE
8
Shape2DView
10
28.589100
20
268.157000
11
28.743171
21
267.582000
0
LINE
8
Shape2DView
10
28.743171
20
267.582000
11
29.164100
21
267.161071
0
LINE
8
Shape2DView
10
29.164100
20
267.161071
11
29.739100
21
267.007000
0
LINE
8
Shape2DView
10
29.739100
20
267.007000
11
30.314100
21
267.161071
0
LINE
8
Shape2DView
10
30.314100
20
267.161071
11
30.735029
21
267.582000
0
LINE
8
Shape2DView
10
30.735029
20
267.582000
11
30.889100
21
268.157000
0
LINE
8
Shape2DView
10
30.889100
20
268.157000
11
30.889100
21
268.157000
0
LINE
8
Shape2DView
10
17.439100
20
270.357000
11
27.039100
21
270.357000
0
LINE
8
Shape2DView
10
16.939100
20
270.857000
11
17.085546
21
270.503447
0
LINE
8
Shape2DView
10
17.085546
20
270.503447
11
17.439099
21
270.357001
0
LINE
8
Shape2DView
10
27.039100
20
270.357000
11
27.392652
21
270.503447
0
LINE
8
Shape2DView
10
27.392652
20
270.503447
11
27.539098
21
270.856999
0
LINE
8
Shape2DView
10
16.939100
20
280.457000
11
16.939100
21
270.857000
0
LINE
8
Shape2DView
10
27.539100
20
270.857000
11
27.539100
21
280.457000
0
LINE
8
Shape2DView
10
17.439100
20
280.957000
11
17.085548
21
280.810554
0
LINE
8
Shape2DView
10
17.085548
20
280.810554
11
16.939101
21
280.457002
0
LINE
8
Shape2DView
10
27.539100
20
280.457000
11
27.392654
21
280.810552
0
LINE
8
Shape2DView
10
27.392654
20
280.810552
11
27.039102
21
280.956998
0
LINE
8
Shape2DView
10
27.039100
20
280.957000
11
17.439100
21
280.957000
0
LINE
8
Shape2DView
10
12.139100
20
286.907000
11
11.985029
21
287.482000
0
LINE
8
Shape2DView
10
11.985029
20
287.482000
11
11.564100
21
287.902929
0
LINE
8
Shape2DView
10
11.564100
20
287.902929
11
10.989100
21
288.057000
0
LINE
8
Shape2DView
10
10.989100
20
288.057000
11
10.414100
21
287.902929
0
LINE
8
Shape2DView
10
10.414100
20
287.902929
11
9.993171
21
287.482000
0
LINE
8
Shape2DView
10
9.993171
20
287.482000
11
9.839100
21
286.907000
0
LINE
8
Shape2DView
10
9.839100
20
286.907000
11
9.993171
21
286.332000
0
LINE
8
Shape2DView
10
9.993171
20
286.332000
11
10.414100
21
285.911071
0
LINE
8
Shape2DView
10
10.414100
20
285.911071
11
10.989100
21
285.757000
0
LINE
8
Shape2DView
10
10.989100
20
285.757000
11
11.564100
21
285.911071
0
LINE
8
Shape2DView
10
11.564100
20
285.911071
11
11.985029
21
286.332000
0
LINE
8
Shape2DView
10
11.985029
20
286.332000
11
12.139100
21
286.907000
0
LINE
8
Shape2DView
10
12.139100
20
286.907000
11
12.139100
21
286.907000
0
LINE
8
Shape2DView
10
32.439100
20
270.357000
11
42.039100
21
270.357000
0
LINE
8
Shape2DView
10
31.939100
20
270.857000
11
32.085546
21
270.503448
0
LINE
8
Shape2DView
10
32.085546
20
270.503448
11
32.439098
21
270.357001
0
LINE
8
Shape2DView
10
42.039100
20
270.357000
11
42.392654
21
270.503446
0
LINE
8
Shape2DView
10
42.392654
20
270.503446
11
42.539101
21
270.856999
0
LINE
8
Shape2DView
10
31.939100
20
280.457000
11
31.939100
21
270.857000
0
LINE
8
Shape2DView
10
42.539100
20
270.857000
11
42.539100
21
280.457000
0
LINE
8
Shape2DView
10
32.439100
20
280.957000
11
32.085548
21
280.810554
0
LINE
8
Shape2DView
10
32.085548
20
280.810554
11
31.939102
21
280.457002
0
LINE
8
Shape2DView
10
42.539100
20
280.457000
11
42.392653
21
280.810553
0
LINE
8
Shape2DView
10
42.392653
20
280.810553
11
42.039099
21
280.956998
0
LINE
8
Shape2DView
10
42.039100
20
280.957000
11
32.439100
21
280.957000
0
LINE
8
Shape2DView
10
47.439200
20
270.357000
11
57.039000
21
270.357000
0
LINE
8
Shape2DView
10
46.939100
20
270.857000
11
47.085546
21
270.503448
0
LINE
8
Shape2DView
10
47.085546
20
270.503448
11
47.439098
21
270.357001
0
LINE
8
Shape2DView
10
57.039100
20
270.357000
11
57.392652
21
270.503447
0
LINE
8
Shape2DView
10
57.392652
20
270.503447
11
57.539098
21
270.856999
0
LINE
8
Shape2DView
10
46.939100
20
280.457000
11
46.939100
21
270.857000
0
LINE
8
Shape2DView
10
57.539100
20
270.857000
11
57.539100
21
280.457000
0
LINE
8
Shape2DView
10
47.439100
20
280.957000
11
47.085548
21
280.810554
0
LINE
8
Shape2DView
10
47.085548
20
280.810554
11
46.939102
21
280.457002
0
LINE
8
Shape2DView
10
57.539100
20
280.457000
11
57.392654
21
280.810552
0
LINE
8
Shape2DView
10
57.392654
20
280.810552
11
57.039102
21
280.956998
0
LINE
8
Shape2DView
10
57.039000
20
280.957000
11
47.439200
21
280.957000
0
LINE
8
Shape2DView
10
62.439200
20
240.357000
11
72.039000
21
240.357000
0
LINE
8
Shape2DView
10
61.939100
20
240.857000
11
62.085547
21
240.503447
0
LINE
8
Shape2DView
10
62.085547
20
240.503447
11
62.439101
21
240.357002
0
LINE
8
Shape2DView
10
72.039100
20
240.357000
11
72.392652
21
240.503446
0
LINE
8
Shape2DView
10
72.392652
20
240.503446
11
72.539098
21
240.856998
0
LINE
8
Shape2DView
10
61.939100
20
250.457000
11
61.939100
21
240.857000
0
LINE
8
Shape2DView
10
72.539100
20
240.857000
11
72.539100
21
250.457000
0
LINE
8
Shape2DView
10
62.439100
20
250.957000
11
62.085545
21
250.810554
0
LINE
8
Shape2DView
10
62.085545
20
250.810554
11
61.939099
21
250.456999
0
LINE
8
Shape2DView
10
72.539100
20
250.457000
11
72.392655
21
250.810554
0
LINE
8
Shape2DView
10
72.392655
20
250.810554
11
72.039102
21
250.957001
0
LINE
8
Shape2DView
10
72.039000
20
250.957000
11
62.439200
21
250.957000
0
LINE
8
Shape2DView
10
62.439200
20
255.357000
11
72.039000
21
255.357000
0
LINE
8
Shape2DView
10
61.939100
20
255.857000
11
62.085547
21
255.503447
0
LINE
8
Shape2DView
10
62.085547
20
255.503447
11
62.439101
21
255.357002
0
LINE
8
Shape2DView
10
72.039100
20
255.357000
11
72.392652
21
255.503446
0
LINE
8
Shape2DView
10
72.392652
20
255.503446
11
72.539098
21
255.856998
0
LINE
8
Shape2DView
10
61.939100
20
265.457000
11
61.939100
21
255.857000
0
LINE
8
Shape2DView
10
72.539100
20
255.857000
11
72.539100
21
265.457000
0
LINE
8
Shape2DView
10
62.439100
20
265.957000
11
62.085546
21
265.810555
0
LINE
8
Shape2DView
10
62.085546
20
265.810555
11
61.939099
21
265.457002
0
LINE
8
Shape2DView
10
72.539100
20
265.457000
11
72.392654
21
265.810552
0
LINE
8
Shape2DView
10
72.392654
20
265.810552
11
72.039102
21
265.956998
0
LINE
8
Shape2DView
10
72.039000
20
265.957000
11
62.439200
21
265.957000
0
LINE
8
Shape2DView
10
77.439200
20
240.357000
11
87.039000
21
240.357000
0
LINE
8
Shape2DView
10
76.939100
20
240.857000
11
77.085546
21
240.503448
0
LINE
8
Shape2DView
10
77.085546
20
240.503448
11
77.439098
21
240.357002
0
LINE
8
Shape2DView
10
87.039000
20
240.357000
11
87.392554
21
240.503445
0
LINE
8
Shape2DView
10
87.392554
20
240.503445
11
87.539001
21
240.856998
0
LINE
8
Shape2DView
10
76.939100
20
250.457000
11
76.939100
21
240.857000
0
LINE
8
Shape2DView
10
87.539100
20
240.857000
11
87.539100
21
250.457000
0
LINE
8
Shape2DView
10
77.439100
20
250.957000
11
77.085547
21
250.810553
0
LINE
8
Shape2DView
10
77.085547
20
250.810553
11
76.939102
21
250.456999
0
LINE
8
Shape2DView
10
87.539100
20
250.457000
11
87.392654
21
250.810555
0
LINE
8
Shape2DView
10
87.392654
20
250.810555
11
87.039099
21
250.957001
0
LINE
8
Shape2DView
10
87.039000
20
250.957000
11
77.439200
21
250.957000
0
LINE
8
Shape2DView
10
92.438900
20
240.357000
11
102.039000
21
240.357000
0
LINE
8
Shape2DView
10
91.939000
20
240.857000
11
92.085446
21
240.503448
0
LINE
8
Shape2DView
10
92.085446
20
240.503448
11
92.438998
21
240.357002
0
LINE
8
Shape2DView
10
102.039000
20
240.357000
11
102.392552
21
240.503446
0
LINE
8
Shape2DView
10
102.392552
20
240.503446
11
102.538998
21
240.856998
0
LINE
8
Shape2DView
10
91.939100
20
250.457000
11
91.939100
21
240.857000
0
LINE
8
Shape2DView
10
102.539000
20
240.857000
11
102.539000
21
250.457000
0
LINE
8
Shape2DView
10
92.439000
20
250.957000
11
92.085447
21
250.810553
0
LINE
8
Shape2DView
10
92.085447
20
250.810553
11
91.939002
21
250.456999
0
LINE
8
Shape2DView
10
102.539000
20
250.457000
11
102.392555
21
250.810554
0
LINE
8
Shape2DView
10
102.392555
20
250.810554
11
102.039002
21
250.957001
0
LINE
8
Shape2DView
10
102.039000
20
250.957000
11
92.438900
21
250.957000
0
LINE
8
Shape2DView
10
77.439200
20
255.357000
11
87.039000
21
255.357000
0
LINE
8
Shape2DView
10
76.939100
20
255.857000
11
77.085546
21
255.503448
0
LINE
8
Shape2DView
10
77.085546
20
255.503448
11
77.439098
21
255.357002
0
LINE
8
Shape2DView
10
87.039000
20
255.357000
11
87.392554
21
255.503445
0
LINE
8
Shape2DView
10
87.392554
20
255.503445
11
87.539001
21
255.856998
0
LINE
8
Shape2DView
10
76.939100
20
265.457000
11
76.939100
21
255.857000
0
LINE
8
Shape2DView
10
87.539100
20
255.857000
11
87.539100
21
265.457000
0
LINE
8
Shape2DView
10
77.439100
20
265.957000
11
77.085548
21
265.810554
0
LINE
8
Shape2DView
10
77.085548
20
265.810554
11
76.939102
21
265.457002
0
LINE
8
Shape2DView
10
87.539100
20
265.457000
11
87.392653
21
265.810553
0
LINE
8
Shape2DView
10
87.392653
20
265.810553
11
87.039099
21
265.956998
0
LINE
8
Shape2DView
10
87.039000
20
265.957000
11
77.439200
21
265.957000
0
LINE
8
Shape2DView
10
92.438900
20
255.357000
11
102.039000
21
255.357000
0
LINE
8
Shape2DView
10
91.939000
20
255.857000
11
92.085446
21
255.503448
0
LINE
8
Shape2DView
10
92.085446
20
255.503448
11
92.438998
21
255.357002
0
LINE
8
Shape2DView
10
102.039000
20
255.357000
11
102.392552
21
255.503446
0
LINE
8
Shape2DView
10
102.392552
20
255.503446
11
102.538998
21
255.856998
0
LINE
8
Shape2DView
10
91.939100
20
265.457000
11
91.939100
21
255.857000
0
LINE
8
Shape2DView
10
102.539000
20
255.857000
11
102.539000
21
265.457000
0
LINE
8
Shape2DView
10
92.439000
20
265.957000
11
92.085448
21
265.810554
0
LINE
8
Shape2DView
10
92.085448
20
265.810554
11
91.939002
21
265.457002
0
LINE
8
Shape2DView
10
102.539000
20
265.457000
11
102.392554
21
265.810552
0
LINE
8
Shape2DView
10
102.392554
20
265.810552
11
102.039002
21
265.956998
0
LINE
8
Shape2DView
10
102.039000
20
265.957000
11
92.438900
21
265.957000
0
LINE
8
Shape2DView
10
60.889100
20
268.157000
11
60.735029
21
268.732000
0
LINE
8
Shape2DView
10
60.735029
20
268.732000
11
60.314100
21
269.152929
0
LINE
8
Shape2DView
10
60.314100
20
269.152929
11
59.739100
21
269.307000
0
LINE
8
Shape2DView
10
59.739100
20
269.307000
11
59.164100
21
269.152929
0
LINE
8
Shape2DView
10
59.164100
20
269.152929
11
58.743171
21
268.732000
0
LINE
8
Shape2DView
10
58.743171
20
268.732000
11
58.589100
21
268.157000
0
LINE
8
Shape2DView
10
58.589100
20
268.157000
11
58.743171
21
267.582000
0
LINE
8
Shape2DView
10
58.743171
20
267.582000
11
59.164100
21
267.161071
0
LINE
8
Shape2DView
10
59.164100
20
267.161071
11
59.739100
21
267.007000
0
LINE
8
Shape2DView
10
59.739100
20
267.007000
11
60.314100
21
267.161071
0
LINE
8
Shape2DView
10
60.314100
20
267.161071
11
60.735029
21
267.582000
0
LINE
8
Shape2DView
10
60.735029
20
267.582000
11
60.889100
21
268.157000
0
LINE
8
Shape2DView
10
60.889100
20
268.157000
11
60.889100
21
268.157000
0
LINE
8
Shape2DView
10
62.439200
20
270.357000
11
72.039000
21
270.357000
0
LINE
8
Shape2DView
10
61.939100
20
270.857000
11
62.085547
21
270.503447
0
LINE
8
Shape2DView
10
62.085547
20
270.503447
11
62.439101
21
270.357001
0
LINE
8
Shape2DView
10
72.039100
20
270.357000
11
72.392652
21
270.503447
0
LINE
8
Shape2DView
10
72.392652
20
270.503447
11
72.539098
21
270.856999
0
LINE
8
Shape2DView
10
61.939100
20
280.457000
11
61.939100
21
270.857000
0
LINE
8
Shape2DView
10
72.539100
20
270.857000
11
72.539100
21
280.457000
0
LINE
8
Shape2DView
10
62.439100
20
280.957000
11
62.085546
21
280.810555
0
LINE
8
Shape2DView
10
62.085546
20
280.810555
11
61.939099
21
280.457002
0
LINE
8
Shape2DView
10
72.539100
20
280.457000
11
72.392654
21
280.810552
0
LINE
8
Shape2DView
10
72.392654
20
280.810552
11
72.039102
21
280.956998
0
LINE
8
Shape2DView
10
72.039000
20
280.957000
11
62.439200
21
280.957000
0
LINE
8
Shape2DView
10
90.889000
20
268.157000
11
90.734929
21
268.732000
0
LINE
8
Shape2DView
10
90.734929
20
268.732000
11
90.314000
21
269.152929
0
LINE
8
Shape2DView
10
90.314000
20
269.152929
11
89.739000
21
269.307000
0
LINE
8
Shape2DView
10
89.739000
20
269.307000
11
89.164000
21
269.152929
0
LINE
8
Shape2DView
10
89.164000
20
269.152929
11
88.743071
21
268.732000
0
LINE
8
Shape2DView
10
88.743071
20
268.732000
11
88.589000
21
268.157000
0
LINE
8
Shape2DView
10
88.589000
20
268.157000
11
88.743071
21
267.582000
0
LINE
8
Shape2DView
10
88.743071
20
267.582000
11
89.164000
21
267.161071
0
LINE
8
Shape2DView
10
89.164000
20
267.161071
11
89.739000
21
267.007000
0
LINE
8
Shape2DView
10
89.739000
20
267.007000
11
90.314000
21
267.161071
0
LINE
8
Shape2DView
10
90.314000
20
267.161071
11
90.734929
21
267.582000
0
LINE
8
Shape2DView
10
90.734929
20
267.582000
11
90.889000
21
268.157000
0
LINE
8
Shape2DView
10
90.889000
20
268.157000
11
90.889000
21
268.157000
0
LINE
8
Shape2DView
10
77.439200
20
270.357000
11
87.039000
21
270.357000
0
LINE
8
Shape2DView
10
76.939100
20
270.857000
11
77.085546
21
270.503448
0
LINE
8
Shape2DView
10
77.085546
20
270.503448
11
77.439098
21
270.357001
0
LINE
8
Shape2DView
10
87.039000
20
270.357000
11
87.392554
21
270.503446
0
LINE
8
Shape2DView
10
87.392554
20
270.503446
11
87.539001
21
270.856999
0
LINE
8
Shape2DView
10
76.939100
20
280.457000
11
76.939100
21
270.857000
0
LINE
8
Shape2DView
10
87.539100
20
270.857000
11
87.539100
21
280.457000
0
LINE
8
Shape2DView
10
77.439100
20
280.957000
11
77.085548
21
280.810554
0
LINE
8
Shape2DView
10
77.085548
20
280.810554
11
76.939102
21
280.457002
0
LINE
8
Shape2DView
10
87.539100
20
280.457000
11
87.392653
21
280.810553
0
LINE
8
Shape2DView
10
87.392653
20
280.810553
11
87.039099
21
280.956998
0
LINE
8
Shape2DView
10
87.039000
20
280.957000
11
77.439200
21
280.957000
0
LINE
8
Shape2DView
10
92.438900
20
270.357000
11
102.039000
21
270.357000
0
LINE
8
Shape2DView
10
91.939000
20
270.857000
11
92.085446
21
270.503448
0
LINE
8
Shape2DView
10
92.085446
20
270.503448
11
92.438998
21
270.357001
0
LINE
8
Shape2DView
10
102.039000
20
270.357000
11
102.392552
21
270.503447
0
LINE
8
Shape2DView
10
102.392552
20
270.503447
11
102.538998
21
270.856999
0
LINE
8
Shape2DView
10
91.939100
20
280.457000
11
91.939100
21
270.857000
0
LINE
8
Shape2DView
10
102.539000
20
270.857000
11
102.539000
21
280.457000
0
LINE
8
Shape2DView
10
92.439000
20
280.957000
11
92.085448
21
280.810554
0
LINE
8
Shape2DView
10
92.085448
20
280.810554
11
91.939002
21
280.457002
0
LINE
8
Shape2DView
10
102.539000
20
280.457000
11
102.392554
21
280.810552
0
LINE
8
Shape2DView
10
102.392554
20
280.810552
11
102.039002
21
280.956998
0
LINE
8
Shape2DView
10
102.039000
20
280.957000
11
92.438900
21
280.957000
0
LINE
8
Shape2DView
10
107.439000
20
195.357000
11
117.039000
21
195.357000
0
LINE
8
Shape2DView
10
106.939000
20
195.857000
11
107.085447
21
195.503447
0
LINE
8
Shape2DView
10
107.085447
20
195.503447
11
107.439001
21
195.357002
0
LINE
8
Shape2DView
10
117.039000
20
195.357000
11
117.392552
21
195.503446
0
LINE
8
Shape2DView
10
117.392552
20
195.503446
11
117.538998
21
195.856998
0
LINE
8
Shape2DView
10
106.939000
20
205.457000
11
106.939000
21
195.857000
0
LINE
8
Shape2DView
10
117.539000
20
195.857000
11
117.539000
21
205.457000
0
LINE
8
Shape2DView
10
107.439000
20
205.957000
11
107.085445
21
205.810554
0
LINE
8
Shape2DView
10
107.085445
20
205.810554
11
106.938999
21
205.456999
0
LINE
8
Shape2DView
10
117.539000
20
205.457000
11
117.392555
21
205.810554
0
LINE
8
Shape2DView
10
117.392555
20
205.810554
11
117.039002
21
205.957001
0
LINE
8
Shape2DView
10
117.039000
20
205.957000
11
107.439000
21
205.957000
0
LINE
8
Shape2DView
10
122.439000
20
195.357000
11
132.039000
21
195.357000
0
LINE
8
Shape2DView
10
121.939000
20
195.857000
11
122.085446
21
195.503448
0
LINE
8
Shape2DView
10
122.085446
20
195.503448
11
122.438998
21
195.357002
0
LINE
8
Shape2DView
10
132.039000
20
195.357000
11
132.392554
21
195.503445
0
LINE
8
Shape2DView
10
132.392554
20
195.503445
11
132.539001
21
195.856998
0
LINE
8
Shape2DView
10
121.939000
20
205.457000
11
121.939000
21
195.857000
0
LINE
8
Shape2DView
10
132.539000
20
195.857000
11
132.539000
21
205.457000
0
LINE
8
Shape2DView
10
122.439000
20
205.957000
11
122.085447
21
205.810553
0
LINE
8
Shape2DView
10
122.085447
20
205.810553
11
121.939002
21
205.456999
0
LINE
8
Shape2DView
10
132.539000
20
205.457000
11
132.392554
21
205.810555
0
LINE
8
Shape2DView
10
132.392554
20
205.810555
11
132.038999
21
205.957001
0
LINE
8
Shape2DView
10
132.039000
20
205.957000
11
122.439000
21
205.957000
0
LINE
8
Shape2DView
10
107.439000
20
210.357000
11
117.039000
21
210.357000
0
LINE
8
Shape2DView
10
106.939000
20
210.857000
11
107.085447
21
210.503447
0
LINE
8
Shape2DView
10
107.085447
20
210.503447
11
107.439001
21
210.357002
0
LINE
8
Shape2DView
10
117.039000
20
210.357000
11
117.392552
21
210.503446
0
LINE
8
Shape2DView
10
117.392552
20
210.503446
11
117.538998
21
210.856998
0
LINE
8
Shape2DView
10
106.939000
20
220.457000
11
106.939000
21
210.857000
0
LINE
8
Shape2DView
10
117.539000
20
210.857000
11
117.539000
21
220.457000
0
LINE
8
Shape2DView
10
107.439000
20
220.957000
11
107.085446
21
220.810555
0
LINE
8
Shape2DView
10
107.085446
20
220.810555
11
106.938999
21
220.457002
0
LINE
8
Shape2DView
10
117.539000
20
220.457000
11
117.392554
21
220.810552
0
LINE
8
Shape2DView
10
117.392554
20
220.810552
11
117.039002
21
220.956998
0
LINE
8
Shape2DView
10
117.039000
20
220.957000
11
107.439000
21
220.957000
0
LINE
8
Shape2DView
10
120.889000
20
208.157000
11
120.734929
21
208.732000
0
LINE
8
Shape2DView
10
120.734929
20
208.732000
11
120.314000
21
209.152929
0
LINE
8
Shape2DView
10
120.314000
20
209.152929
11
119.739000
21
209.307000
0
LINE
8
Shape2DView
10
119.739000
20
209.307000
11
119.164000
21
209.152929
0
LINE
8
Shape2DView
10
119.164000
20
209.152929
11
118.743071
21
208.732000
0
LINE
8
Shape2DView
10
118.743071
20
208.732000
11
118.589000
21
208.157000
0
LINE
8
Shape2DView
10
118.589000
20
208.157000
11
118.679373
21
207.709368
0
LINE
8
Shape2DView
10
118.679373
20
207.709368
11
118.925827
21
207.343827
0
LINE
8
Shape2DView
10
118.925827
20
207.343827
11
119.291368
21
207.097373
0
LINE
8
Shape2DView
10
119.291368
20
207.097373
11
119.739000
21
207.007000
0
LINE
8
Shape2DView
10
119.739000
20
207.007000
11
120.186632
21
207.097373
0
LINE
8
Shape2DView
10
120.186632
20
207.097373
11
120.552173
21
207.343827
0
LINE
8
Shape2DView
10
120.552173
20
207.343827
11
120.798627
21
207.709368
0
LINE
8
Shape2DView
10
120.798627
20
207.709368
11
120.889000
21
208.157000
0
LINE
8
Shape2DView
10
120.889000
20
208.157000
11
120.889000
21
208.157000
0
LINE
8
Shape2DView
10
122.439000
20
210.357000
11
132.039000
21
210.357000
0
LINE
8
Shape2DView
10
121.939000
20
210.857000
11
122.085446
21
210.503448
0
LINE
8
Shape2DView
10
122.085446
20
210.503448
11
122.438998
21
210.357002
0
LINE
8
Shape2DView
10
132.039000
20
210.357000
11
132.392554
21
210.503445
0
LINE
8
Shape2DView
10
132.392554
20
210.503445
11
132.539001
21
210.856998
0
LINE
8
Shape2DView
10
121.939000
20
220.457000
11
121.939000
21
210.857000
0
LINE
8
Shape2DView
10
132.539000
20
210.857000
11
132.539000
21
220.457000
0
LINE
8
Shape2DView
10
122.439000
20
220.957000
11
122.085448
21
220.810554
0
LINE
8
Shape2DView
10
122.085448
20
220.810554
11
121.939002
21
220.457002
0
LINE
8
Shape2DView
10
132.539000
20
220.457000
11
132.392553
21
220.810553
0
LINE
8
Shape2DView
10
132.392553
20
220.810553
11
132.038999
21
220.956998
0
LINE
8
Shape2DView
10
132.039000
20
220.957000
11
122.439000
21
220.957000
0
LINE
8
Shape2DView
10
137.439000
20
195.357000
11
147.039000
21
195.357000
0
LINE
8
Shape2DView
10
136.939000
20
195.857000
11
137.085446
21
195.503448
0
LINE
8
Shape2DView
10
137.085446
20
195.503448
11
137.438998
21
195.357002
0
LINE
8
Shape2DView
10
147.039000
20
195.357000
11
147.392552
21
195.503446
0
LINE
8
Shape2DView
10
147.392552
20
195.503446
11
147.538998
21
195.856998
0
LINE
8
Shape2DView
10
136.939000
20
205.457000
11
136.939000
21
195.857000
0
LINE
8
Shape2DView
10
147.539000
20
195.857000
11
147.539000
21
205.457000
0
LINE
8
Shape2DView
10
137.439000
20
205.957000
11
137.085447
21
205.810553
0
LINE
8
Shape2DView
10
137.085447
20
205.810553
11
136.939002
21
205.456999
0
LINE
8
Shape2DView
10
147.539000
20
205.457000
11
147.392555
21
205.810554
0
LINE
8
Shape2DView
10
147.392555
20
205.810554
11
147.039002
21
205.957001
0
LINE
8
Shape2DView
10
147.039000
20
205.957000
11
137.439000
21
205.957000
0
LINE
8
Shape2DView
10
150.889000
20
208.157000
11
150.734929
21
208.732000
0
LINE
8
Shape2DView
10
150.734929
20
208.732000
11
150.314000
21
209.152929
0
LINE
8
Shape2DView
10
150.314000
20
209.152929
11
149.739000
21
209.307000
0
LINE
8
Shape2DView
10
149.739000
20
209.307000
11
149.164000
21
209.152929
0
LINE
8
Shape2DView
10
149.164000
20
209.152929
11
148.743071
21
208.732000
0
LINE
8
Shape2DView
10
148.743071
20
208.732000
11
148.589000
21
208.157000
0
LINE
8
Shape2DView
10
148.589000
20
208.157000
11
148.743071
21
207.582000
0
LINE
8
Shape2DView
10
148.743071
20
207.582000
11
149.164000
21
207.161071
0
LINE
8
Shape2DView
10
149.164000
20
207.161071
11
149.739000
21
207.007000
0
LINE
8
Shape2DView
10
149.739000
20
207.007000
11
150.314000
21
207.161071
0
LINE
8
Shape2DView
10
150.314000
20
207.161071
11
150.734929
21
207.582000
0
LINE
8
Shape2DView
10
150.734929
20
207.582000
11
150.889000
21
208.157000
0
LINE
8
Shape2DView
10
150.889000
20
208.157000
11
150.889000
21
208.157000
0
LINE
8
Shape2DView
10
137.439000
20
210.357000
11
147.039000
21
210.357000
0
LINE
8
Shape2DView
10
136.939000
20
210.857000
11
137.085446
21
210.503448
0
LINE
8
Shape2DView
10
137.085446
20
210.503448
11
137.438998
21
210.357002
0
LINE
8
Shape2DView
10
147.039000
20
210.357000
11
147.392552
21
210.503446
0
LINE
8
Shape2DView
10
147.392552
20
210.503446
11
147.538998
21
210.856998
0
LINE
8
Shape2DView
10
136.939000
20
220.457000
11
136.939000
21
210.857000
0
LINE
8
Shape2DView
10
147.539000
20
210.857000
11
147.539000
21
220.457000
0
LINE
8
Shape2DView
10
137.439000
20
220.957000
11
137.085448
21
220.810554
0
LINE
8
Shape2DView
10
137.085448
20
220.810554
11
136.939002
21
220.457002
0
LINE
8
Shape2DView
10
147.539000
20
220.457000
11
147.392554
21
220.810552
0
LINE
8
Shape2DView
10
147.392554
20
220.810552
11
147.039002
21
220.956998
0
LINE
8
Shape2DView
10
147.039000
20
220.957000
11
137.439000
21
220.957000
0
LINE
8
Shape2DView
10
107.439000
20
225.357000
11
117.039000
21
225.357000
0
LINE
8
Shape2DView
10
106.939000
20
225.857000
11
107.085446
21
225.503445
0
LINE
8
Shape2DView
10
107.085446
20
225.503445
11
107.439001
21
225.356999
0
LINE
8
Shape2DView
10
117.039000
20
225.357000
11
117.392553
21
225.503447
0
LINE
8
Shape2DView
10
117.392553
20
225.503447
11
117.538998
21
225.857001
0
LINE
8
Shape2DView
10
106.939000
20
235.457000
11
106.939000
21
225.857000
0
LINE
8
Shape2DView
10
117.539000
20
225.857000
11
117.539000
21
235.457000
0
LINE
8
Shape2DView
10
107.439000
20
235.957000
11
107.085446
21
235.810555
0
LINE
8
Shape2DView
10
107.085446
20
235.810555
11
106.938999
21
235.457002
0
LINE
8
Shape2DView
10
117.539000
20
235.457000
11
117.392554
21
235.810552
0
LINE
8
Shape2DView
10
117.392554
20
235.810552
11
117.039002
21
235.956998
0
LINE
8
Shape2DView
10
117.039000
20
235.957000
11
107.439000
21
235.957000
0
LINE
8
Shape2DView
10
122.439000
20
225.357000
11
132.039000
21
225.357000
0
LINE
8
Shape2DView
10
121.939000
20
225.857000
11
122.085445
21
225.503446
0
LINE
8
Shape2DView
10
122.085445
20
225.503446
11
122.438998
21
225.356999
0
LINE
8
Shape2DView
10
132.039000
20
225.357000
11
132.392555
21
225.503446
0
LINE
8
Shape2DView
10
132.392555
20
225.503446
11
132.539001
21
225.857001
0
LINE
8
Shape2DView
10
121.939000
20
235.457000
11
121.939000
21
225.857000
0
LINE
8
Shape2DView
10
132.539000
20
225.857000
11
132.539000
21
235.457000
0
LINE
8
Shape2DView
10
122.439000
20
235.957000
11
122.085448
21
235.810554
0
LINE
8
Shape2DView
10
122.085448
20
235.810554
11
121.939002
21
235.457002
0
LINE
8
Shape2DView
10
132.539000
20
235.457000
11
132.392553
21
235.810553
0
LINE
8
Shape2DView
10
132.392553
20
235.810553
11
132.038999
21
235.956998
0
LINE
8
Shape2DView
10
132.039000
20
235.957000
11
122.439000
21
235.957000
0
LINE
8
Shape2DView
10
120.889000
20
238.157000
11
120.734929
21
238.732000
0
LINE
8
Shape2DView
10
120.734929
20
238.732000
11
120.314000
21
239.152929
0
LINE
8
Shape2DView
10
120.314000
20
239.152929
11
119.739000
21
239.307000
0
LINE
8
Shape2DView
10
119.739000
20
239.307000
11
119.164000
21
239.152929
0
LINE
8
Shape2DView
10
119.164000
20
239.152929
11
118.743071
21
238.732000
0
LINE
8
Shape2DView
10
118.743071
20
238.732000
11
118.589000
21
238.157000
0
LINE
8
Shape2DView
10
118.589000
20
238.157000
11
118.679373
21
237.709368
0
LINE
8
Shape2DView
10
118.679373
20
237.709368
11
118.925827
21
237.343827
0
LINE
8
Shape2DView
10
118.925827
20
237.343827
11
119.291368
21
237.097373
0
LINE
8
Shape2DView
10
119.291368
20
237.097373
11
119.739000
21
237.007000
0
LINE
8
Shape2DView
10
119.739000
20
237.007000
11
120.186632
21
237.097373
0
LINE
8
Shape2DView
10
120.186632
20
237.097373
11
120.552173
21
237.343827
0
LINE
8
Shape2DView
10
120.552173
20
237.343827
11
120.798627
21
237.709368
0
LINE
8
Shape2DView
10
120.798627
20
237.709368
11
120.889000
21
238.157000
0
LINE
8
Shape2DView
10
120.889000
20
238.157000
11
120.889000
21
238.157000
0
LINE
8
Shape2DView
10
137.439000
20
225.357000
11
147.039000
21
225.357000
0
LINE
8
Shape2DView
10
136.939000
20
225.857000
11
137.085445
21
225.503446
0
LINE
8
Shape2DView
10
137.085445
20
225.503446
11
137.438998
21
225.356999
0
LINE
8
Shape2DView
10
147.039000
20
225.357000
11
147.392553
21
225.503447
0
LINE
8
Shape2DView
10
147.392553
20
225.503447
11
147.538998
21
225.857001
0
LINE
8
Shape2DView
10
136.939000
20
235.457000
11
136.939000
21
225.857000
0
LINE
8
Shape2DView
10
147.539000
20
225.857000
11
147.539000
21
235.457000
0
LINE
8
Shape2DView
10
137.439000
20
235.957000
11
137.085448
21
235.810554
0
LINE
8
Shape2DView
10
137.085448
20
235.810554
11
136.939002
21
235.457002
0
LINE
8
Shape2DView
10
147.539000
20
235.457000
11
147.392554
21
235.810552
0
LINE
8
Shape2DView
10
147.392554
20
235.810552
11
147.039002
21
235.956998
0
LINE
8
Shape2DView
10
147.039000
20
235.957000
11
137.439000
21
235.957000
0
LINE
8
Shape2DView
10
150.889000
20
238.157000
11
150.734929
21
238.732000
0
LINE
8
Shape2DView
10
150.734929
20
238.732000
11
150.314000
21
239.152929
0
LINE
8
Shape2DView
10
150.314000
20
239.152929
11
149.739000
21
239.307000
0
LINE
8
Shape2DView
10
149.739000
20
239.307000
11
149.164000
21
239.152929
0
LINE
8
Shape2DView
10
149.164000
20
239.152929
11
148.743071
21
238.732000
0
LINE
8
Shape2DView
10
148.743071
20
238.732000
11
148.589000
21
238.157000
0
LINE
8
Shape2DView
10
148.589000
20
238.157000
11
148.743071
21
237.582000
0
LINE
8
Shape2DView
10
148.743071
20
237.582000
11
149.164000
21
237.161071
0
LINE
8
Shape2DView
10
149.164000
20
237.161071
11
149.739000
21
237.007000
0
LINE
8
Shape2DView
10
149.739000
20
237.007000
11
150.314000
21
237.161071
0
LINE
8
Shape2DView
10
150.314000
20
237.161071
11
150.734929
21
237.582000
0
LINE
8
Shape2DView
10
150.734929
20
237.582000
11
150.889000
21
238.157000
0
LINE
8
Shape2DView
10
150.889000
20
238.157000
11
150.889000
21
238.157000
0
LINE
8
Shape2DView
10
152.439000
20
195.357000
11
162.039000
21
195.357000
0
LINE
8
Shape2DView
10
151.939000
20
195.857000
11
152.085447
21
195.503447
0
LINE
8
Shape2DView
10
152.085447
20
195.503447
11
152.439001
21
195.357002
0
LINE
8
Shape2DView
10
162.039000
20
195.357000
11
162.392552
21
195.503446
0
LINE
8
Shape2DView
10
162.392552
20
195.503446
11
162.538998
21
195.856998
0
LINE
8
Shape2DView
10
151.939000
20
205.457000
11
151.939000
21
195.857000
0
LINE
8
Shape2DView
10
162.539000
20
195.857000
11
162.539000
21
205.457000
0
LINE
8
Shape2DView
10
152.439000
20
205.957000
11
152.085445
21
205.810554
0
LINE
8
Shape2DView
10
152.085445
20
205.810554
11
151.938999
21
205.456999
0
LINE
8
Shape2DView
10
162.539000
20
205.457000
11
162.392555
21
205.810554
0
LINE
8
Shape2DView
10
162.392555
20
205.810554
11
162.039002
21
205.957001
0
LINE
8
Shape2DView
10
162.039000
20
205.957000
11
152.439000
21
205.957000
0
LINE
8
Shape2DView
10
167.439000
20
195.357000
11
177.039000
21
195.357000
0
LINE
8
Shape2DView
10
166.939000
20
195.857000
11
167.085446
21
195.503448
0
LINE
8
Shape2DView
10
167.085446
20
195.503448
11
167.438998
21
195.357002
0
LINE
8
Shape2DView
10
177.039000
20
195.357000
11
177.392554
21
195.503445
0
LINE
8
Shape2DView
10
177.392554
20
195.503445
11
177.539001
21
195.856998
0
LINE
8
Shape2DView
10
166.939000
20
205.457000
11
166.939000
21
195.857000
0
LINE
8
Shape2DView
10
177.539000
20
195.857000
11
177.539000
21
205.457000
0
LINE
8
Shape2DView
10
167.439000
20
205.957000
11
167.085447
21
205.810553
0
LINE
8
Shape2DView
10
167.085447
20
205.810553
11
166.939002
21
205.456999
0
LINE
8
Shape2DView
10
177.539000
20
205.457000
11
177.392554
21
205.810555
0
LINE
8
Shape2DView
10
177.392554
20
205.810555
11
177.038999
21
205.957001
0
LINE
8
Shape2DView
10
177.039000
20
205.957000
11
167.439000
21
205.957000
0
LINE
8
Shape2DView
10
152.439000
20
210.357000
11
162.039000
21
210.357000
0
LINE
8
Shape2DView
10
151.939000
20
210.857000
11
152.085447
21
210.503447
0
LINE
8
Shape2DView
10
152.085447
20
210.503447
11
152.439001
21
210.357002
0
LINE
8
Shape2DView
10
162.039000
20
210.357000
11
162.392552
21
210.503446
0
LINE
8
Shape2DView
10
162.392552
20
210.503446
11
162.538998
21
210.856998
0
LINE
8
Shape2DView
10
151.939000
20
220.457000
11
151.939000
21
210.857000
0
LINE
8
Shape2DView
10
162.539000
20
210.857000
11
162.539000
21
220.457000
0
LINE
8
Shape2DView
10
152.439000
20
220.957000
11
152.085446
21
220.810555
0
LINE
8
Shape2DView
10
152.085446
20
220.810555
11
151.938999
21
220.457002
0
LINE
8
Shape2DView
10
162.539000
20
220.457000
11
162.392554
21
220.810552
0
LINE
8
Shape2DView
10
162.392554
20
220.810552
11
162.039002
21
220.956998
0
LINE
8
Shape2DView
10
162.039000
20
220.957000
11
152.439000
21
220.957000
0
LINE
8
Shape2DView
10
167.439000
20
210.357000
11
177.039000
21
210.357000
0
LINE
8
Shape2DView
10
166.939000
20
210.857000
11
167.085446
21
210.503448
0
LINE
8
Shape2DView
10
167.085446
20
210.503448
11
167.438998
21
210.357002
0
LINE
8
Shape2DView
10
177.039000
20
210.357000
11
177.392554
21
210.503445
0
LINE
8
Shape2DView
10
177.392554
20
210.503445
11
177.539001
21
210.856998
0
LINE
8
Shape2DView
10
166.939000
20
220.457000
11
166.939000
21
210.857000
0
LINE
8
Shape2DView
10
177.539000
20
210.857000
11
177.539000
21
220.457000
0
LINE
8
Shape2DView
10
167.439000
20
220.957000
11
167.085448
21
220.810554
0
LINE
8
Shape2DView
10
167.085448
20
220.810554
11
166.939002
21
220.457002
0
LINE
8
Shape2DView
10
177.539000
20
220.457000
11
177.392553
21
220.810553
0
LINE
8
Shape2DView
10
177.392553
20
220.810553
11
177.038999
21
220.956998
0
LINE
8
Shape2DView
10
177.039000
20
220.957000
11
167.439000
21
220.957000
0
LINE
8
Shape2DView
10
182.439000
20
195.357000
11
192.039000
21
195.357000
0
LINE
8
Shape2DView
10
181.939000
20
195.857000
11
182.085446
21
195.503448
0
LINE
8
Shape2DView
10
182.085446
20
195.503448
11
182.438998
21
195.357002
0
LINE
8
Shape2DView
10
192.039000
20
195.357000
11
192.392552
21
195.503446
0
LINE
8
Shape2DView
10
192.392552
20
195.503446
11
192.538998
21
195.856998
0
LINE
8
Shape2DView
10
181.939000
20
205.457000
11
181.939000
21
195.857000
0
LINE
8
Shape2DView
10
192.539000
20
195.857000
11
192.539000
21
205.457000
0
LINE
8
Shape2DView
10
182.439000
20
205.957000
11
182.085447
21
205.810553
0
LINE
8
Shape2DView
10
182.085447
20
205.810553
11
181.939002
21
205.456999
0
LINE
8
Shape2DView
10
192.539000
20
205.457000
11
192.392555
21
205.810554
0
LINE
8
Shape2DView
10
192.392555
20
205.810554
11
192.039002
21
205.957001
0
LINE
8
Shape2DView
10
192.039000
20
205.957000
11
182.439000
21
205.957000
0
LINE
8
Shape2DView
10
199.639000
20
193.157000
11
199.484929
21
193.732000
0
LINE
8
Shape2DView
10
199.484929
20
193.732000
11
199.064000
21
194.152929
0
LINE
8
Shape2DView
10
199.064000
20
194.152929
11
198.489000
21
194.307000
0
LINE
8
Shape2DView
10
198.489000
20
194.307000
11
197.914000
21
194.152929
0
LINE
8
Shape2DView
10
197.914000
20
194.152929
11
197.493071
21
193.732000
0
LINE
8
Shape2DView
10
197.493071
20
193.732000
11
197.339000
21
193.157000
0
LINE
8
Shape2DView
10
197.339000
20
193.157000
11
197.493071
21
192.582000
0
LINE
8
Shape2DView
10
197.493071
20
192.582000
11
197.914000
21
192.161071
0
LINE
8
Shape2DView
10
197.914000
20
192.161071
11
198.489000
21
192.007000
0
LINE
8
Shape2DView
10
198.489000
20
192.007000
11
199.064000
21
192.161071
0
LINE
8
Shape2DView
10
199.064000
20
192.161071
11
199.484929
21
192.582000
0
LINE
8
Shape2DView
10
199.484929
20
192.582000
11
199.639000
21
193.157000
0
LINE
8
Shape2DView
10
199.639000
20
193.157000
11
199.639000
21
193.157000
0
LINE
8
Shape2DView
10
180.889000
20
208.157000
11
180.734929
21
208.732000
0
LINE
8
Shape2DView
10
180.734929
20
208.732000
11
180.314000
21
209.152929
0
LINE
8
Shape2DView
10
180.314000
20
209.152929
11
179.739000
21
209.307000
0
LINE
8
Shape2DView
10
179.739000
20
209.307000
11
179.164000
21
209.152929
0
LINE
8
Shape2DView
10
179.164000
20
209.152929
11
178.743071
21
208.732000
0
LINE
8
Shape2DView
10
178.743071
20
208.732000
11
178.589000
21
208.157000
0
LINE
8
Shape2DView
10
178.589000
20
208.157000
11
178.743071
21
207.582000
0
LINE
8
Shape2DView
10
178.743071
20
207.582000
11
179.164000
21
207.161071
0
LINE
8
Shape2DView
10
179.164000
20
207.161071
11
179.739000
21
207.007000
0
LINE
8
Shape2DView
10
179.739000
20
207.007000
11
180.314000
21
207.161071
0
LINE
8
Shape2DView
10
180.314000
20
207.161071
11
180.734929
21
207.582000
0
LINE
8
Shape2DView
10
180.734929
20
207.582000
11
180.889000
21
208.157000
0
LINE
8
Shape2DView
10
180.889000
20
208.157000
11
180.889000
21
208.157000
0
LINE
8
Shape2DView
10
182.439000
20
210.357000
11
192.039000
21
210.357000
0
LINE
8
Shape2DView
10
181.939000
20
210.857000
11
182.085446
21
210.503448
0
LINE
8
Shape2DView
10
182.085446
20
210.503448
11
182.438998
21
210.357002
0
LINE
8
Shape2DView
10
192.039000
20
210.357000
11
192.392552
21
210.503446
0
LINE
8
Shape2DView
10
192.392552
20
210.503446
11
192.538998
21
210.856998
0
LINE
8
Shape2DView
10
181.939000
20
220.457000
11
181.939000
21
210.857000
0
LINE
8
Shape2DView
10
192.539000
20
210.857000
11
192.539000
21
220.457000
0
LINE
8
Shape2DView
10
182.439000
20
220.957000
11
182.085448
21
220.810554
0
LINE
8
Shape2DView
10
182.085448
20
220.810554
11
181.939002
21
220.457002
0
LINE
8
Shape2DView
10
192.539000
20
220.457000
11
192.392554
21
220.810552
0
LINE
8
Shape2DView
10
192.392554
20
220.810552
11
192.039002
21
220.956998
0
LINE
8
Shape2DView
10
192.039000
20
220.957000
11
182.439000
21
220.957000
0
LINE
8
Shape2DView
10
152.439000
20
225.357000
11
162.039000
21
225.357000
0
LINE
8
Shape2DView
10
151.939000
20
225.857000
11
152.085446
21
225.503445
0
LINE
8
Shape2DView
10
152.085446
20
225.503445
11
152.439001
21
225.356999
0
LINE
8
Shape2DView
10
162.039000
20
225.357000
11
162.392553
21
225.503447
0
LINE
8
Shape2DView
10
162.392553
20
225.503447
11
162.538998
21
225.857001
0
LINE
8
Shape2DView
10
151.939000
20
235.457000
11
151.939000
21
225.857000
0
LINE
8
Shape2DView
10
162.539000
20
225.857000
11
162.539000
21
235.457000
0
LINE
8
Shape2DView
10
152.439000
20
235.957000
11
152.085446
21
235.810555
0
LINE
8
Shape2DView
10
152.085446
20
235.810555
11
151.938999
21
235.457002
0
LINE
8
Shape2DView
10
162.539000
20
235.457000
11
162.392554
21
235.810552
0
LINE
8
Shape2DView
10
162.392554
20
235.810552
11
162.039002
21
235.956998
0
LINE
8
Shape2DView
10
162.039000
20
235.957000
11
152.439000
21
235.957000
0
LINE
8
Shape2DView
10
167.439000
20
225.357000
11
177.039000
21
225.357000
0
LINE
8
Shape2DView
10
166.939000
20
225.857000
11
167.085445
21
225.503446
0
LINE
8
Shape2DView
10
167.085445
20
225.503446
11
167.438998
21
225.356999
0
LINE
8
Shape2DView
10
177.039000
20
225.357000
11
177.392555
21
225.503446
0
LINE
8
Shape2DView
10
177.392555
20
225.503446
11
177.539001
21
225.857001
0
LINE
8
Shape2DView
10
166.939000
20
235.457000
11
166.939000
21
225.857000
0
LINE
8
Shape2DView
10
177.539000
20
225.857000
11
177.539000
21
235.457000
0
LINE
8
Shape2DView
10
167.439000
20
235.957000
11
167.085448
21
235.810554
0
LINE
8
Shape2DView
10
167.085448
20
235.810554
11
166.939002
21
235.457002
0
LINE
8
Shape2DView
10
177.539000
20
235.457000
11
177.392553
21
235.810553
0
LINE
8
Shape2DView
10
177.392553
20
235.810553
11
177.038999
21
235.956998
0
LINE
8
Shape2DView
10
177.039000
20
235.957000
11
167.439000
21
235.957000
0
LINE
8
Shape2DView
10
182.439000
20
225.357000
11
192.039000
21
225.357000
0
LINE
8
Shape2DView
10
181.939000
20
225.857000
11
182.085445
21
225.503446
0
LINE
8
Shape2DView
10
182.085445
20
225.503446
11
182.438998
21
225.356999
0
LINE
8
Shape2DView
10
192.039000
20
225.357000
11
192.392553
21
225.503447
0
LINE
8
Shape2DView
10
192.392553
20
225.503447
11
192.538998
21
225.857001
0
LINE
8
Shape2DView
10
181.939000
20
235.457000
11
181.939000
21
225.857000
0
LINE
8
Shape2DView
10
192.539000
20
225.857000
11
192.539000
21
235.457000
0
LINE
8
Shape2DView
10
182.439000
20
235.957000
11
182.085448
21
235.810554
0
LINE
8
Shape2DView
10
182.085448
20
235.810554
11
181.939002
21
235.457002
0
LINE
8
Shape2DView
10
192.539000
20
235.457000
11
192.392554
21
235.810552
0
LINE
8
Shape2DView
10
192.392554
20
235.810552
11
192.039002
21
235.956998
0
LINE
8
Shape2DView
10
192.039000
20
235.957000
11
182.439000
21
235.957000
0
LINE
8
Shape2DView
10
180.889000
20
238.157000
11
180.734929
21
238.732000
0
LINE
8
Shape2DView
10
180.734929
20
238.732000
11
180.314000
21
239.152929
0
LINE
8
Shape2DView
10
180.314000
20
239.152929
11
179.739000
21
239.307000
0
LINE
8
Shape2DView
10
179.739000
20
239.307000
11
179.164000
21
239.152929
0
LINE
8
Shape2DView
10
179.164000
20
239.152929
11
178.743071
21
238.732000
0
LINE
8
Shape2DView
10
178.743071
20
238.732000
11
178.589000
21
238.157000
0
LINE
8
Shape2DView
10
178.589000
20
238.157000
11
178.743071
21
237.582000
0
LINE
8
Shape2DView
10
178.743071
20
237.582000
11
179.164000
21
237.161071
0
LINE
8
Shape2DView
10
179.164000
20
237.161071
11
179.739000
21
237.007000
0
LINE
8
Shape2DView
10
179.739000
20
237.007000
11
180.314000
21
237.161071
0
LINE
8
Shape2DView
10
180.314000
20
237.161071
11
180.734929
21
237.582000
0
LINE
8
Shape2DView
10
180.734929
20
237.582000
11
180.889000
21
238.157000
0
LINE
8
Shape2DView
10
180.889000
20
238.157000
11
180.889000
21
238.157000
0
LINE
8
Shape2DView
10
107.439000
20
240.357000
11
117.039000
21
240.357000
0
LINE
8
Shape2DView
10
106.939000
20
240.857000
11
107.085447
21
240.503447
0
LINE
8
Shape2DView
10
107.085447
20
240.503447
11
107.439001
21
240.357002
0
LINE
8
Shape2DView
10
117.039000
20
240.357000
11
117.392552
21
240.503446
0
LINE
8
Shape2DView
10
117.392552
20
240.503446
11
117.538998
21
240.856998
0
LINE
8
Shape2DView
10
106.939000
20
250.457000
11
106.939000
21
240.857000
0
LINE
8
Shape2DView
10
117.539000
20
240.857000
11
117.539000
21
250.457000
0
LINE
8
Shape2DView
10
107.439000
20
250.957000
11
107.085445
21
250.810554
0
LINE
8
Shape2DView
10
107.085445
20
250.810554
11
106.938999
21
250.456999
0
LINE
8
Shape2DView
10
117.539000
20
250.457000
11
117.392555
21
250.810554
0
LINE
8
Shape2DView
10
117.392555
20
250.810554
11
117.039002
21
250.957001
0
LINE
8
Shape2DView
10
117.039000
20
250.957000
11
107.439000
21
250.957000
0
LINE
8
Shape2DView
10
122.439000
20
240.357000
11
132.039000
21
240.357000
0
LINE
8
Shape2DView
10
121.939000
20
240.857000
11
122.085446
21
240.503448
0
LINE
8
Shape2DView
10
122.085446
20
240.503448
11
122.438998
21
240.357002
0
LINE
8
Shape2DView
10
132.039000
20
240.357000
11
132.392554
21
240.503445
0
LINE
8
Shape2DView
10
132.392554
20
240.503445
11
132.539001
21
240.856998
0
LINE
8
Shape2DView
10
121.939000
20
250.457000
11
121.939000
21
240.857000
0
LINE
8
Shape2DView
10
132.539000
20
240.857000
11
132.539000
21
250.457000
0
LINE
8
Shape2DView
10
122.439000
20
250.957000
11
122.085447
21
250.810553
0
LINE
8
Shape2DView
10
122.085447
20
250.810553
11
121.939002
21
250.456999
0
LINE
8
Shape2DView
10
132.539000
20
250.457000
11
132.392554
21
250.810555
0
LINE
8
Shape2DView
10
132.392554
20
250.810555
11
132.038999
21
250.957001
0
LINE
8
Shape2DView
10
132.039000
20
250.957000
11
122.439000
21
250.957000
0
LINE
8
Shape2DView
10
107.439000
20
255.357000
11
117.039000
21
255.357000
0
LINE
8
Shape2DView
10
106.939000
20
255.857000
11
107.085447
21
255.503447
0
LINE
8
Shape2DView
10
107.085447
20
255.503447
11
107.439001
21
255.357002
0
LINE
8
Shape2DView
10
117.039000
20
255.357000
11
117.392552
21
255.503446
0
LINE
8
Shape2DView
10
117.392552
20
255.503446
11
117.538998
21
255.856998
0
LINE
8
Shape2DView
10
106.939000
20
265.457000
11
106.939000
21
255.857000
0
LINE
8
Shape2DView
10
117.539000
20
255.857000
11
117.539000
21
265.457000
0
LINE
8
Shape2DView
10
107.439000
20
265.957000
11
107.085446
21
265.810555
0
LINE
8
Shape2DView
10
107.085446
20
265.810555
11
106.938999
21
265.457002
0
LINE
8
Shape2DView
10
117.539000
20
265.457000
11
117.392554
21
265.810552
0
LINE
8
Shape2DView
10
117.392554
20
265.810552
11
117.039002
21
265.956998
0
LINE
8
Shape2DView
10
117.039000
20
265.957000
11
107.439000
21
265.957000
0
LINE
8
Shape2DView
10
122.439000
20
255.357000
11
132.039000
21
255.357000
0
LINE
8
Shape2DView
10
121.939000
20
255.857000
11
122.085446
21
255.503448
0
LINE
8
Shape2DView
10
122.085446
20
255.503448
11
122.438998
21
255.357002
0
LINE
8
Shape2DView
10
132.039000
20
255.357000
11
132.392554
21
255.503445
0
LINE
8
Shape2DView
10
132.392554
20
255.503445
11
132.539001
21
255.856998
0
LINE
8
Shape2DView
10
121.939000
20
265.457000
11
121.939000
21
255.857000
0
LINE
8
Shape2DView
10
132.539000
20
255.857000
11
132.539000
21
265.457000
0
LINE
8
Shape2DView
10
122.439000
20
265.957000
11
122.085448
21
265.810554
0
LINE
8
Shape2DView
10
122.085448
20
265.810554
11
121.939002
21
265.457002
0
LINE
8
Shape2DView
10
132.539000
20
265.457000
11
132.392553
21
265.810553
0
LINE
8
Shape2DView
10
132.392553
20
265.810553
11
132.038999
21
265.956998
0
LINE
8
Shape2DView
10
132.039000
20
265.957000
11
122.439000
21
265.957000
0
LINE
8
Shape2DView
10
137.439000
20
240.357000
11
147.039000
21
240.357000
0
LINE
8
Shape2DView
10
136.939000
20
240.857000
11
137.085446
21
240.503448
0
LINE
8
Shape2DView
10
137.085446
20
240.503448
11
137.438998
21
240.357002
0
LINE
8
Shape2DView
10
147.039000
20
240.357000
11
147.392552
21
240.503446
0
LINE
8
Shape2DView
10
147.392552
20
240.503446
11
147.538998
21
240.856998
0
LINE
8
Shape2DView
10
136.939000
20
250.457000
11
136.939000
21
240.857000
0
LINE
8
Shape2DView
10
147.539000
20
240.857000
11
147.539000
21
250.457000
0
LINE
8
Shape2DView
10
137.439000
20
250.957000
11
137.085447
21
250.810553
0
LINE
8
Shape2DView
10
137.085447
20
250.810553
11
136.939002
21
250.456999
0
LINE
8
Shape2DView
10
147.539000
20
250.457000
11
147.392555
21
250.810554
0
LINE
8
Shape2DView
10
147.392555
20
250.810554
11
147.039002
21
250.957001
0
LINE
8
Shape2DView
10
147.039000
20
250.957000
11
137.439000
21
250.957000
0
LINE
8
Shape2DView
10
137.439000
20
255.357000
11
147.039000
21
255.357000
0
LINE
8
Shape2DView
10
136.939000
20
255.857000
11
137.085446
21
255.503448
0
LINE
8
Shape2DView
10
137.085446
20
255.503448
11
137.438998
21
255.357002
0
LINE
8
Shape2DView
10
147.039000
20
255.357000
11
147.392552
21
255.503446
0
LINE
8
Shape2DView
10
147.392552
20
255.503446
11
147.538998
21
255.856998
0
LINE
8
Shape2DView
10
136.939000
20
265.457000
11
136.939000
21
255.857000
0
LINE
8
Shape2DView
10
147.539000
20
255.857000
11
147.539000
21
265.457000
0
LINE
8
Shape2DView
10
137.439000
20
265.957000
11
137.085448
21
265.810554
0
LINE
8
Shape2DView
10
137.085448
20
265.810554
11
136.939002
21
265.457002
0
LINE
8
Shape2DView
10
147.539000
20
265.457000
11
147.392554
21
265.810552
0
LINE
8
Shape2DView
10
147.392554
20
265.810552
11
147.039002
21
265.956998
0
LINE
8
Shape2DView
10
147.039000
20
265.957000
11
137.439000
21
265.957000
0
LINE
8
Shape2DView
10
107.439000
20
270.357000
11
117.039000
21
270.357000
0
LINE
8
Shape2DView
10
106.939000
20
270.857000
11
107.085447
21
270.503447
0
LINE
8
Shape2DView
10
107.085447
20
270.503447
11
107.439001
21
270.357001
0
LINE
8
Shape2DView
10
117.039000
20
270.357000
11
117.392552
21
270.503447
0
LINE
8
Shape2DView
10
117.392552
20
270.503447
11
117.538998
21
270.856999
0
LINE
8
Shape2DView
10
106.939000
20
280.457000
11
106.939000
21
270.857000
0
LINE
8
Shape2DView
10
117.539000
20
270.857000
11
117.539000
21
280.457000
0
LINE
8
Shape2DView
10
107.439000
20
280.957000
11
107.085446
21
280.810555
0
LINE
8
Shape2DView
10
107.085446
20
280.810555
11
106.938999
21
280.457002
0
LINE
8
Shape2DView
10
117.539000
20
280.457000
11
117.392554
21
280.810552
0
LINE
8
Shape2DView
10
117.392554
20
280.810552
11
117.039002
21
280.956998
0
LINE
8
Shape2DView
10
117.039000
20
280.957000
11
107.439000
21
280.957000
0
LINE
8
Shape2DView
10
120.889000
20
268.157000
11
120.734929
21
268.732000
0
LINE
8
Shape2DView
10
120.734929
20
268.732000
11
120.314000
21
269.152929
0
LINE
8
Shape2DView
10
120.314000
20
269.152929
11
119.739000
21
269.307000
0
LINE
8
Shape2DView
10
119.739000
20
269.307000
11
119.164000
21
269.152929
0
LINE
8
Shape2DView
10
119.164000
20
269.152929
11
118.743071
21
268.732000
0
LINE
8
Shape2DView
10
118.743071
20
268.732000
11
118.589000
21
268.157000
0
LINE
8
Shape2DView
10
118.589000
20
268.157000
11
118.679373
21
267.709368
0
LINE
8
Shape2DView
10
118.679373
20
267.709368
11
118.925827
21
267.343827
0
LINE
8
Shape2DView
10
118.925827
20
267.343827
11
119.291368
21
267.097373
0
LINE
8
Shape2DView
10
119.291368
20
267.097373
11
119.739000
21
267.007000
0
LINE
8
Shape2DView
10
119.739000
20
267.007000
11
120.186632
21
267.097373
0
LINE
8
Shape2DView
10
120.186632
20
267.097373
11
120.552173
21
267.343827
0
LINE
8
Shape2DView
10
120.552173
20
267.343827
11
120.798627
21
267.709368
0
LINE
8
Shape2DView
10
120.798627
20
267.709368
11
120.889000
21
268.157000
0
LINE
8
Shape2DView
10
120.889000
20
268.157000
11
120.889000
21
268.157000
0
LINE
8
Shape2DView
10
122.439000
20
270.357000
11
132.039000
21
270.357000
0
LINE
8
Shape2DView
10
121.939000
20
270.857000
11
122.085446
21
270.503448
0
LINE
8
Shape2DView
10
122.085446
20
270.503448
11
122.438998
21
270.357001
0
LINE
8
Shape2DView
10
132.039000
20
270.357000
11
132.392554
21
270.503446
0
LINE
8
Shape2DView
10
132.392554
20
270.503446
11
132.539001
21
270.856999
0
LINE
8
Shape2DView
10
121.939000
20
280.457000
11
121.939000
21
270.857000
0
LINE
8
Shape2DView
10
132.539000
20
270.857000
11
132.539000
21
280.457000
0
LINE
8
Shape2DView
10
122.439000
20
280.957000
11
122.085448
21
280.810554
0
LINE
8
Shape2DView
10
122.085448
20
280.810554
11
121.939002
21
280.457002
0
LINE
8
Shape2DView
10
132.539000
20
280.457000
11
132.392553
21
280.810553
0
LINE
8
Shape2DView
10
132.392553
20
280.810553
11
132.038999
21
280.956998
0
LINE
8
Shape2DView
10
132.039000
20
280.957000
11
122.439000
21
280.957000
0
LINE
8
Shape2DView
10
105.889000
20
286.907000
11
105.734929
21
287.482000
0
LINE
8
Shape2DView
10
105.734929
20
287.482000
11
105.314000
21
287.902929
0
LINE
8
Shape2DView
10
105.314000
20
287.902929
11
104.739000
21
288.057000
0
LINE
8
Shape2DView
10
104.739000
20
288.057000
11
104.164000
21
287.902929
0
LINE
8
Shape2DView
10
104.164000
20
287.902929
11
103.743071
21
287.482000
0
LINE
8
Shape2DView
10
103.743071
20
287.482000
11
103.589000
21
286.907000
0
LINE
8
Shape2DView
10
103.589000
20
286.907000
11
103.743071
21
286.332000
0
LINE
8
Shape2DView
10
103.743071
20
286.332000
11
104.164000
21
285.911071
0
LINE
8
Shape2DView
10
104.164000
20
285.911071
11
104.739000
21
285.757000
0
LINE
8
Shape2DView
10
104.739000
20
285.757000
11
105.314000
21
285.911071
0
LINE
8
Shape2DView
10
105.314000
20
285.911071
11
105.734929
21
286.332000
0
LINE
8
Shape2DView
10
105.734929
20
286.332000
11
105.889000
21
286.907000
0
LINE
8
Shape2DView
10
105.889000
20
286.907000
11
105.889000
21
286.907000
0
LINE
8
Shape2DView
10
150.889000
20
268.157000
11
150.734929
21
268.732000
0
LINE
8
Shape2DView
10
150.734929
20
268.732000
11
150.314000
21
269.152929
0
LINE
8
Shape2DView
10
150.314000
20
269.152929
11
149.739000
21
269.307000
0
LINE
8
Shape2DView
10
149.739000
20
269.307000
11
149.164000
21
269.152929
0
LINE
8
Shape2DView
10
149.164000
20
269.152929
11
148.743071
21
268.732000
0
LINE
8
Shape2DView
10
148.743071
20
268.732000
11
148.589000
21
268.157000
0
LINE
8
Shape2DView
10
148.589000
20
268.157000
11
148.743071
21
267.582000
0
LINE
8
Shape2DView
10
148.743071
20
267.582000
11
149.164000
21
267.161071
0
LINE
8
Shape2DView
10
149.164000
20
267.161071
11
149.739000
21
267.007000
0
LINE
8
Shape2DView
10
149.739000
20
267.007000
11
150.314000
21
267.161071
0
LINE
8
Shape2DView
10
150.314000
20
267.161071
11
150.734929
21
267.582000
0
LINE
8
Shape2DView
10
150.734929
20
267.582000
11
150.889000
21
268.157000
0
LINE
8
Shape2DView
10
150.889000
20
268.157000
11
150.889000
21
268.157000
0
LINE
8
Shape2DView
10
137.439000
20
270.357000
11
147.039000
21
270.357000
0
LINE
8
Shape2DView
10
136.939000
20
270.857000
11
137.085446
21
270.503448
0
LINE
8
Shape2DView
10
137.085446
20
270.503448
11
137.438998
21
270.357001
0
LINE
8
Shape2DView
10
147.039000
20
270.357000
11
147.392552
21
270.503447
0
LINE
8
Shape2DView
10
147.392552
20
270.503447
11
147.538998
21
270.856999
0
LINE
8
Shape2DView
10
136.939000
20
280.457000
11
136.939000
21
270.857000
0
LINE
8
Shape2DView
10
147.539000
20
270.857000
11
147.539000
21
280.457000
0
LINE
8
Shape2DView
10
137.439000
20
280.957000
11
137.085448
21
280.810554
0
LINE
8
Shape2DView
10
137.085448
20
280.810554
11
136.939002
21
280.457002
0
LINE
8
Shape2DView
10
147.539000
20
280.457000
11
147.392554
21
280.810552
0
LINE
8
Shape2DView
10
147.392554
20
280.810552
11
147.039002
21
280.956998
0
LINE
8
Shape2DView
10
147.039000
20
280.957000
11
137.439000
21
280.957000
0
LINE
8
Shape2DView
10
152.439000
20
240.357000
11
162.039000
21
240.357000
0
LINE
8
Shape2DView
10
151.939000
20
240.857000
11
152.085447
21
240.503447
0
LINE
8
Shape2DView
10
152.085447
20
240.503447
11
152.439001
21
240.357002
0
LINE
8
Shape2DView
10
162.039000
20
240.357000
11
162.392552
21
240.503446
0
LINE
8
Shape2DView
10
162.392552
20
240.503446
11
162.538998
21
240.856998
0
LINE
8
Shape2DView
10
151.939000
20
250.457000
11
151.939000
21
240.857000
0
LINE
8
Shape2DView
10
162.539000
20
240.857000
11
162.539000
21
250.457000
0
LINE
8
Shape2DView
10
152.439000
20
250.957000
11
152.085445
21
250.810554
0
LINE
8
Shape2DView
10
152.085445
20
250.810554
11
151.938999
21
250.456999
0
LINE
8
Shape2DView
10
162.539000
20
250.457000
11
162.392555
21
250.810554
0
LINE
8
Shape2DView
10
162.392555
20
250.810554
11
162.039002
21
250.957001
0
LINE
8
Shape2DView
10
162.039000
20
250.957000
11
152.439000
21
250.957000
0
LINE
8
Shape2DView
10
167.439000
20
240.357000
11
177.039000
21
240.357000
0
LINE
8
Shape2DView
10
166.939000
20
240.857000
11
167.085446
21
240.503448
0
LINE
8
Shape2DView
10
167.085446
20
240.503448
11
167.438998
21
240.357002
0
LINE
8
Shape2DView
10
177.039000
20
240.357000
11
177.392554
21
240.503445
0
LINE
8
Shape2DView
10
177.392554
20
240.503445
11
177.539001
21
240.856998
0
LINE
8
Shape2DView
10
166.939000
20
250.457000
11
166.939000
21
240.857000
0
LINE
8
Shape2DView
10
177.539000
20
240.857000
11
177.539000
21
250.457000
0
LINE
8
Shape2DView
10
167.439000
20
250.957000
11
167.085447
21
250.810553
0
LINE
8
Shape2DView
10
167.085447
20
250.810553
11
166.939002
21
250.456999
0
LINE
8
Shape2DView
10
177.539000
20
250.457000
11
177.392554
21
250.810555
0
LINE
8
Shape2DView
10
177.392554
20
250.810555
11
177.038999
21
250.957001
0
LINE
8
Shape2DView
10
177.039000
20
250.957000
11
167.439000
21
250.957000
0
LINE
8
Shape2DView
10
152.439000
20
255.357000
11
162.039000
21
255.357000
0
LINE
8
Shape2DView
10
151.939000
20
255.857000
11
152.085447
21
255.503447
0
LINE
8
Shape2DView
10
152.085447
20
255.503447
11
152.439001
21
255.357002
0
LINE
8
Shape2DView
10
162.039000
20
255.357000
11
162.392552
21
255.503446
0
LINE
8
Shape2DView
10
162.392552
20
255.503446
11
162.538998
21
255.856998
0
LINE
8
Shape2DView
10
151.939000
20
265.457000
11
151.939000
21
255.857000
0
LINE
8
Shape2DView
10
162.539000
20
255.857000
11
162.539000
21
265.457000
0
LINE
8
Shape2DView
10
152.439000
20
265.957000
11
152.085446
21
265.810555
0
LINE
8
Shape2DView
10
152.085446
20
265.810555
11
151.938999
21
265.457002
0
LINE
8
Shape2DView
10
162.539000
20
265.457000
11
162.392554
21
265.810552
0
LINE
8
Shape2DView
10
162.392554
20
265.810552
11
162.039002
21
265.956998
0
LINE
8
Shape2DView
10
162.039000
20
265.957000
11
152.439000
21
265.957000
0
LINE
8
Shape2DView
10
167.439000
20
255.357000
11
177.039000
21
255.357000
0
LINE
8
Shape2DView
10
166.939000
20
255.857000
11
167.085446
21
255.503448
0
LINE
8
Shape2DView
10
167.085446
20
255.503448
11
167.438998
21
255.357002
0
LINE
8
Shape2DView
10
177.039000
20
255.357000
11
177.392554
21
255.503445
0
LINE
8
Shape2DView
10
177.392554
20
255.503445
11
177.539001
21
255.856998
0
LINE
8
Shape2DView
10
166.939000
20
265.457000
11
166.939000
21
255.857000
0
LINE
8
Shape2DView
10
177.539000
20
255.857000
11
177.539000
21
265.457000
0
LINE
8
Shape2DView
10
167.439000
20
265.957000
11
167.085448
21
265.810554
0
LINE
8
Shape2DView
10
167.085448
20
265.810554
11
166.939002
21
265.457002
0
LINE
8
Shape2DView
10
177.539000
20
265.457000
11
177.392553
21
265.810553
0
LINE
8
Shape2DView
10
177.392553
20
265.810553
11
177.038999
21
265.956998
0
LINE
8
Shape2DView
10
177.039000
20
265.957000
11
167.439000
21
265.957000
0
LINE
8
Shape2DView
10
182.439000
20
240.357000
11
192.039000
21
240.357000
0
LINE
8
Shape2DView
10
181.939000
20
240.857000
11
182.085446
21
240.503448
0
LINE
8
Shape2DView
10
182.085446
20
240.503448
11
182.438998
21
240.357002
0
LINE
8
Shape2DView
10
192.039000
20
240.357000
11
192.392552
21
240.503446
0
LINE
8
Shape2DView
10
192.392552
20
240.503446
11
192.538998
21
240.856998
0
LINE
8
Shape2DView
10
181.939000
20
250.457000
11
181.939000
21
240.857000
0
LINE
8
Shape2DView
10
192.539000
20
240.857000
11
192.539000
21
250.457000
0
LINE
8
Shape2DView
10
182.439000
20
250.957000
11
182.085447
21
250.810553
0
LINE
8
Shape2DView
10
182.085447
20
250.810553
11
181.939002
21
250.456999
0
LINE
8
Shape2DView
10
192.539000
20
250.457000
11
192.392555
21
250.810554
0
LINE
8
Shape2DView
10
192.392555
20
250.810554
11
192.039002
21
250.957001
0
LINE
8
Shape2DView
10
192.039000
20
250.957000
11
182.439000
21
250.957000
0
LINE
8
Shape2DView
10
182.439000
20
255.357000
11
192.039000
21
255.357000
0
LINE
8
Shape2DView
10
181.939000
20
255.857000
11
182.085446
21
255.503448
0
LINE
8
Shape2DView
10
182.085446
20
255.503448
11
182.438998
21
255.357002
0
LINE
8
Shape2DView
10
192.039000
20
255.357000
11
192.392552
21
255.503446
0
LINE
8
Shape2DView
10
192.392552
20
255.503446
11
192.538998
21
255.856998
0
LINE
8
Shape2DView
10
181.939000
20
265.457000
11
181.939000
21
255.857000
0
LINE
8
Shape2DView
10
192.539000
20
255.857000
11
192.539000
21
265.457000
0
LINE
8
Shape2DView
10
182.439000
20
265.957000
11
182.085448
21
265.810554
0
LINE
8
Shape2DView
10
182.085448
20
265.810554
11
181.939002
21
265.457002
0
LINE
8
Shape2DView
10
192.539000
20
265.457000
11
192.392554
21
265.810552
0
LINE
8
Shape2DView
10
192.392554
20
265.810552
11
192.039002
21
265.956998
0
LINE
8
Shape2DView
10
192.039000
20
265.957000
11
182.439000
21
265.957000
0
LINE
8
Shape2DView
10
152.439000
20
270.357000
11
162.039000
21
270.357000
0
LINE
8
Shape2DView
10
151.939000
20
270.857000
11
152.085447
21
270.503447
0
LINE
8
Shape2DView
10
152.085447
20
270.503447
11
152.439001
21
270.357001
0
LINE
8
Shape2DView
10
162.039000
20
270.357000
11
162.392552
21
270.503447
0
LINE
8
Shape2DView
10
162.392552
20
270.503447
11
162.538998
21
270.856999
0
LINE
8
Shape2DView
10
151.939000
20
280.457000
11
151.939000
21
270.857000
0
LINE
8
Shape2DView
10
162.539000
20
270.857000
11
162.539000
21
280.457000
0
LINE
8
Shape2DView
10
152.439000
20
280.957000
11
152.085446
21
280.810555
0
LINE
8
Shape2DView
10
152.085446
20
280.810555
11
151.938999
21
280.457002
0
LINE
8
Shape2DView
10
162.539000
20
280.457000
11
162.392554
21
280.810552
0
LINE
8
Shape2DView
10
162.392554
20
280.810552
11
162.039002
21
280.956998
0
LINE
8
Shape2DView
10
162.039000
20
280.957000
11
152.439000
21
280.957000
0
LINE
8
Shape2DView
10
167.439000
20
270.357000
11
177.039000
21
270.357000
0
LINE
8
Shape2DView
10
166.939000
20
270.857000
11
167.085446
21
270.503448
0
LINE
8
Shape2DView
10
167.085446
20
270.503448
11
167.438998
21
270.357001
0
LINE
8
Shape2DView
10
177.039000
20
270.357000
11
177.392554
21
270.503446
0
LINE
8
Shape2DView
10
177.392554
20
270.503446
11
177.539001
21
270.856999
0
LINE
8
Shape2DView
10
166.939000
20
280.457000
11
166.939000
21
270.857000
0
LINE
8
Shape2DView
10
177.539000
20
270.857000
11
177.539000
21
280.457000
0
LINE
8
Shape2DView
10
167.439000
20
280.957000
11
167.085448
21
280.810554
0
LINE
8
Shape2DView
10
167.085448
20
280.810554
11
166.939002
21
280.457002
0
LINE
8
Shape2DView
10
177.539000
20
280.457000
11
177.392553
21
280.810553
0
LINE
8
Shape2DView
10
177.392553
20
280.810553
11
177.038999
21
280.956998
0
LINE
8
Shape2DView
10
177.039000
20
280.957000
11
167.439000
21
280.957000
0
LINE
8
Shape2DView
10
180.889000
20
268.157000
11
180.734929
21
268.732000
0
LINE
8
Shape2DView
10
180.734929
20
268.732000
11
180.314000
21
269.152929
0
LINE
8
Shape2DView
10
180.314000
20
269.152929
11
179.739000
21
269.307000
0
LINE
8
Shape2DView
10
179.739000
20
269.307000
11
179.164000
21
269.152929
0
LINE
8
Shape2DView
10
179.164000
20
269.152929
11
178.743071
21
268.732000
0
LINE
8
Shape2DView
10
178.743071
20
268.732000
11
178.589000
21
268.157000
0
LINE
8
Shape2DView
10
178.589000
20
268.157000
11
178.743071
21
267.582000
0
LINE
8
Shape2DView
10
178.743071
20
267.582000
11
179.164000
21
267.161071
0
LINE
8
Shape2DView
10
179.164000
20
267.161071
11
179.739000
21
267.007000
0
LINE
8
Shape2DView
10
179.739000
20
267.007000
11
180.314000
21
267.161071
0
LINE
8
Shape2DView
10
180.314000
20
267.161071
11
180.734929
21
267.582000
0
LINE
8
Shape2DView
10
180.734929
20
267.582000
11
180.889000
21
268.157000
0
LINE
8
Shape2DView
10
180.889000
20
268.157000
11
180.889000
21
268.157000
0
LINE
8
Shape2DView
10
182.439000
20
270.357000
11
192.039000
21
270.357000
0
LINE
8
Shape2DView
10
181.939000
20
270.857000
11
182.085446
21
270.503448
0
LINE
8
Shape2DView
10
182.085446
20
270.503448
11
182.438998
21
270.357001
0
LINE
8
Shape2DView
10
192.039000
20
270.357000
11
192.392552
21
270.503447
0
LINE
8
Shape2DView
10
192.392552
20
270.503447
11
192.538998
21
270.856999
0
LINE
8
Shape2DView
10
181.939000
20
280.457000
11
181.939000
21
270.857000
0
LINE
8
Shape2DView
10
192.539000
20
270.857000
11
192.539000
21
280.457000
0
LINE
8
Shape2DView
10
182.439000
20
280.957000
11
182.085448
21
280.810554
0
LINE
8
Shape2DView
10
182.085448
20
280.810554
11
181.939002
21
280.457002
0
LINE
8
Shape2DView
10
192.539000
20
280.457000
11
192.392554
21
280.810552
0
LINE
8
Shape2DView
10
192.392554
20
280.810552
11
192.039002
21
280.956998
0
LINE
8
Shape2DView
10
192.039000
20
280.957000
11
182.439000
21
280.957000
0
LINE
8
Shape2DView
10
199.639000
20
286.907000
11
199.484929
21
287.482000
0
LINE
8
Shape2DView
10
199.484929
20
287.482000
11
199.064000
21
287.902929
0
LINE
8
Shape2DView
10
199.064000
20
287.902929
11
198.489000
21
288.057000
0
LINE
8
Shape2DView
10
198.489000
20
288.057000
11
197.914000
21
287.902929
0
LINE
8
Shape2DView
10
197.914000
20
287.902929
11
197.493071
21
287.482000
0
LINE
8
Shape2DView
10
197.493071
20
287.482000
11
197.339000
21
286.907000
0
LINE
8
Shape2DView
10
197.339000
20
286.907000
11
197.493071
21
286.332000
0
LINE
8
Shape2DView
10
197.493071
20
286.332000
11
197.914000
21
285.911071
0
LINE
8
Shape2DView
10
197.914000
20
285.911071
11
198.489000
21
285.757000
0
LINE
8
Shape2DView
10
198.489000
20
285.757000
11
199.064000
21
285.911071
0
LINE
8
Shape2DView
10
199.064000
20
285.911071
11
199.484929
21
286.332000
0
LINE
8
Shape2DView
10
199.484929
20
286.332000
11
199.639000
21
286.907000
0
LINE
8
Shape2DView
10
199.639000
20
286.907000
11
199.639000
21
286.907000
 0 
ENDSEC
 0 
EOF